<svg width="20" height="20" viewBox="0 0 20 20" fill="none" xmlns="http://www.w3.org/2000/svg">
<g id="IMAGE">
<g id="Group">
<path id="Vector" d="M19.9997 12.5817C19.9995 12.5756 19.9992 12.5695 19.9988 12.5634C19.9983 12.5594 19.9979 12.5555 19.9974 12.5515C19.9966 12.5461 19.9959 12.5408 19.9948 12.5353C19.994 12.5306 19.993 12.526 19.9919 12.5214C19.9908 12.517 19.9898 12.5124 19.9884 12.508C19.9869 12.5027 19.985 12.4973 19.9832 12.492C19.982 12.4885 19.9808 12.4848 19.9792 12.4813C19.977 12.4753 19.9744 12.4695 19.9716 12.4639C19.9707 12.4619 19.9701 12.4598 19.969 12.4578L18.6748 9.86929C18.6252 9.77011 18.5237 9.7074 18.4128 9.7074H16.7644V8.35196H18.4128C18.5747 8.35196 18.7057 8.22073 18.7057 8.05899V3.52896C18.7057 3.36722 18.5747 3.23599 18.4128 3.23599H4.80072C4.63882 3.23599 4.50775 3.36722 4.50775 3.52896C4.50775 3.6907 4.63882 3.82193 4.80072 3.82193H18.1198V7.76587H16.4726C16.4722 7.76587 16.4719 7.76587 16.4714 7.76587H15.1772C15.1767 7.76587 15.1764 7.76587 15.1759 7.76587H4.82407C4.82361 7.76587 4.8233 7.76587 4.82285 7.76587H3.52859C3.52814 7.76587 3.52783 7.76587 3.52737 7.76587H1.88019V3.82193H3.58978C3.75168 3.82193 3.88275 3.6907 3.88275 3.52896C3.88275 3.36722 3.75168 3.23599 3.58978 3.23599H1.58722C1.42532 3.23599 1.29425 3.36722 1.29425 3.52896V8.05884C1.29425 8.22073 1.42532 8.35181 1.58722 8.35181H3.23563V9.70724H1.58722C1.47614 9.70724 1.37482 9.76996 1.32523 9.86929L0.0309754 12.4578C0.0299072 12.4598 0.0291443 12.4618 0.0282288 12.4637C0.0256348 12.4695 0.0230408 12.4753 0.0205994 12.4811C0.0192261 12.4848 0.0180054 12.4883 0.0167847 12.4918C0.0149536 12.4972 0.0131226 12.5025 0.0115967 12.508C0.010376 12.5124 0.00915527 12.5168 0.00823977 12.5213C0.00701906 12.526 0.00595094 12.5306 0.00518797 12.5353C0.00411988 12.5406 0.00335693 12.546 0.00274658 12.5513C0.00213623 12.5553 0.00167847 12.5594 0.00137329 12.5634C0.000762937 12.5695 0.000610352 12.5756 0.000457766 12.5815C0.000305176 12.5841 0 12.5864 0 12.5887V13.8831C0 14.0449 0.131073 14.1761 0.292969 14.1761H2.5885V16.1785H2.23434C2.07245 16.1785 1.94138 16.3097 1.94138 16.4715C1.94138 16.6332 2.07245 16.7644 2.23434 16.7644H2.87964H2.88147H4.17572H4.1777H4.823C4.98474 16.7644 5.11597 16.6332 5.11597 16.4715C5.11597 16.3097 4.98474 16.1785 4.823 16.1785H4.46869V14.1761H15.5313V16.1785H15.1772C15.0153 16.1785 14.8842 16.3097 14.8842 16.4715C14.8842 16.6332 15.0153 16.7644 15.1772 16.7644H15.8224H15.8243H17.1185H17.1205H17.7657C17.9276 16.7644 18.0586 16.6332 18.0586 16.4715C18.0586 16.3097 17.9276 16.1785 17.7657 16.1785H17.4115V14.1761H19.707C19.8689 14.1761 20 14.0449 20 13.8831V12.5887C20 12.5864 19.9997 12.5841 19.9997 12.5817ZM16.1784 9.7074H15.4701V8.35181H16.1784V9.7074ZM5.11581 9.70724V8.35181H14.8842V9.7074L5.11581 9.70724ZM3.82156 8.35181H4.52988V9.70724H3.82156V8.35181ZM1.76834 10.2932H3.52829H4.82269L18.2317 10.2933L19.2329 12.2957H0.767059L1.76834 10.2932ZM3.88275 16.1785H3.17444V14.1761H3.88275V16.1785ZM16.8256 16.1785H16.1172V14.1761H16.8256V16.1785ZM19.4141 13.5901H17.1198C17.1193 13.5901 17.119 13.59 17.1185 13.59C17.1182 13.59 17.1178 13.5901 17.1175 13.5901H15.8253C15.825 13.5901 15.8246 13.59 15.8243 13.59C15.8238 13.59 15.8235 13.5901 15.8231 13.5901H4.17694C4.17648 13.5901 4.17618 13.59 4.17572 13.59C4.17542 13.59 4.17496 13.5901 4.17465 13.5901H2.88254C2.88223 13.5901 2.88177 13.59 2.88147 13.59C2.88101 13.59 2.88071 13.5901 2.88025 13.5901H0.585938V12.8817H19.4141V13.5901Z" fill="#DBC67F"/>
<path id="Vector_2" d="M3.23535 5.79376C3.23535 6.3121 3.6571 6.73386 4.17545 6.73386C4.69379 6.73386 5.11554 6.31226 5.11554 5.79376C5.11554 5.27542 4.69379 4.85367 4.17545 4.85367C3.6571 4.85367 3.23535 5.27542 3.23535 5.79376ZM4.17545 5.43961C4.37076 5.43961 4.5296 5.59845 4.5296 5.79376C4.5296 5.98907 4.37076 6.14792 4.17545 6.14792C3.98013 6.14792 3.82129 5.98907 3.82129 5.79376C3.82129 5.59845 3.98013 5.43961 4.17545 5.43961ZM16.7641 5.79376C16.7641 5.27542 16.3423 4.85367 15.824 4.85367C15.3057 4.85367 14.8839 5.27542 14.8839 5.79376C14.8839 6.31226 15.3057 6.73401 15.824 6.73401C16.3423 6.73401 16.7641 6.31226 16.7641 5.79376ZM15.4698 5.79376C15.4698 5.5986 15.6287 5.43961 15.824 5.43961C16.0192 5.43961 16.178 5.5986 16.178 5.79376C16.178 5.98907 16.0192 6.14807 15.824 6.14807C15.6287 6.14807 15.4698 5.98907 15.4698 5.79376Z" fill="#DBC67F"/>
</g>
</g>
</svg>
