<svg width="20" height="20" viewBox="0 0 20 20" fill="none" xmlns="http://www.w3.org/2000/svg">
<g id="IMAGE" clip-path="url(#clip0_31_1708)">
<path id="Vector" d="M19.75 0H0.25C0.112012 0 0 0.111768 0 0.25V19.75C0 19.8882 0.112012 20 0.25 20H19.75C19.888 20 20 19.8882 20 19.75V0.25C20 0.111768 19.888 0 19.75 0ZM0.5 0.5H12.2755V3.88076H0.5V0.5ZM0.5 4.38076H5.69023V7.79375H0.5V4.38076ZM0.5 8.29375H17.1982V11.6987C17.1982 11.7015 17.1998 11.7037 17.1998 11.7063H0.5V8.29375ZM9.74375 19.5H0.5V16.119H9.74375V19.5ZM19.5 19.5H10.2437V16.119H19.5V19.5ZM19.5 15.619H0.5V12.2063H19.5V15.619ZM19.5 11.7063H17.6967C17.6967 11.7035 17.6982 11.7013 17.6982 11.6987V8.29375H19.5V11.7063ZM19.5 7.79351H6.19023V4.38076H19.5V7.79351ZM19.5 3.88076H12.7755V0.5H19.5V3.88076Z" fill="#DBC67F"/>
</g>
<defs>
<clipPath id="clip0_31_1708">
<rect width="20" height="20" fill="white"/>
</clipPath>
</defs>
</svg>
