<svg width="20" height="20" viewBox="0 0 20 20" fill="none" xmlns="http://www.w3.org/2000/svg">
<g id="IMAGE" clip-path="url(#clip0_31_1701)">
<g id="Group">
<path id="Vector" d="M13.9787 2.47223C13.8168 2.47223 13.6857 2.60345 13.6857 2.7652V4.11285C13.6857 4.2746 13.8168 4.40582 13.9787 4.40582C14.1404 4.40582 14.2716 4.2746 14.2716 4.11285V2.7652C14.2716 2.60345 14.1404 2.47223 13.9787 2.47223ZM16.3409 2.47223C16.179 2.47223 16.0479 2.60345 16.0479 2.7652V4.11285C16.0479 4.2746 16.179 4.40582 16.3409 4.40582C16.5028 4.40582 16.6339 4.2746 16.6339 4.11285V2.7652C16.6339 2.60345 16.5028 2.47223 16.3409 2.47223ZM13.5879 12.1542H15.1895C15.3512 12.1542 15.4824 12.023 15.4824 11.8613C15.4824 11.6995 15.3512 11.5683 15.1895 11.5683H13.5879C13.426 11.5683 13.2949 11.6995 13.2949 11.8613C13.2949 12.023 13.426 12.1542 13.5879 12.1542ZM15.1895 16.1906H13.5879C13.426 16.1906 13.2949 16.3219 13.2949 16.4836C13.2949 16.6455 13.426 16.7766 13.5879 16.7766H15.1895C15.3512 16.7766 15.4824 16.6455 15.4824 16.4836C15.4824 16.3219 15.3512 16.1906 15.1895 16.1906Z" fill="#DBC67F"/>
<path id="Vector_2" d="M19.3941 9.1972H17.4283C17.2664 9.1972 17.1353 9.32828 17.1353 9.49017C17.1353 9.65192 17.2664 9.78314 17.4283 9.78314H19.3941C19.4051 9.78314 19.4141 9.79199 19.4141 9.80313V10.5107C19.4141 10.5218 19.4051 10.5308 19.3941 10.5308H0.605927C0.59494 10.5308 0.585938 10.5218 0.585938 10.5107V9.80313C0.585938 9.79214 0.59494 9.78314 0.605927 9.78314H16.2564C16.4183 9.78314 16.5494 9.65192 16.5494 9.49017C16.5494 9.32828 16.4183 9.1972 16.2564 9.1972H6.84631V8.70328C7.19452 8.68878 7.47314 8.401 7.47314 8.04929V7.64264C7.47314 7.4809 7.34207 7.34967 7.18018 7.34967C7.01843 7.34967 6.88721 7.4809 6.88721 7.64264V8.04929C6.88721 8.08713 6.85654 8.11795 6.8187 8.11795H2.42081C2.38297 8.11795 2.35214 8.08713 2.35214 8.04929V7.64264C2.35214 7.4809 2.22107 7.34967 2.05917 7.34967C1.89743 7.34967 1.7662 7.4809 1.7662 7.64264V8.04929C1.7662 8.401 2.04498 8.68878 2.39319 8.70328V9.1972H0.605927C0.271912 9.1972 0 9.46896 0 9.80313V10.5107C0 10.8448 0.271912 11.1168 0.605927 11.1168H0.930328V19.1394C0.930328 19.6069 1.31058 19.9872 1.77811 19.9872H18.2219C18.6894 19.9872 19.0697 19.6069 19.0697 19.1394V11.1168H19.3941C19.7281 11.1168 20 10.8448 20 10.5107V9.80313C20 9.46896 19.7281 9.1972 19.3941 9.1972ZM2.97913 8.70389H6.26038V9.1972H2.97913V8.70389ZM1.51627 19.1394V11.1168H9.70703V19.4012H1.77811C1.63361 19.4012 1.51627 19.2839 1.51627 19.1394ZM18.2219 19.4012H10.293V15.5752H18.4839V19.1394C18.4839 19.2839 18.3664 19.4012 18.2219 19.4012ZM18.4839 14.9893H10.293V11.1168H18.4839V14.9893Z" fill="#DBC67F"/>
<path id="Vector_3" d="M8.61176 13.9422H2.71637C2.41882 13.9422 2.17682 14.1842 2.17682 14.4818V18.2644C2.17682 18.562 2.41882 18.804 2.71637 18.804H8.61176C8.9093 18.804 9.15131 18.562 9.15131 18.2644V14.4818C9.15131 14.1842 8.9093 13.9422 8.61176 13.9422ZM8.56537 18.218H2.76276V14.5283H8.56537V18.218ZM3.13385 13.4825C3.66165 13.4825 4.09088 13.0531 4.09088 12.5255C4.09088 11.9978 3.66165 11.5684 3.13385 11.5684C2.6062 11.5684 2.17682 11.9978 2.17682 12.5255C2.17682 13.0531 2.6062 13.4825 3.13385 13.4825ZM3.13385 12.1544C3.33847 12.1544 3.50494 12.3208 3.50494 12.5255C3.50494 12.7301 3.33847 12.8965 3.13385 12.8965C2.92923 12.8965 2.76276 12.7301 2.76276 12.5255C2.76276 12.3208 2.92923 12.1544 3.13385 12.1544ZM5.66406 13.4825C6.19171 13.4825 6.62109 13.0531 6.62109 12.5255C6.62109 11.9978 6.19171 11.5684 5.66406 11.5684C5.13641 11.5684 4.70703 11.9978 4.70703 12.5255C4.70703 13.0531 5.13641 13.4825 5.66406 13.4825ZM5.66406 12.1544C5.86868 12.1544 6.03516 12.3208 6.03516 12.5255C6.03516 12.7301 5.86868 12.8965 5.66406 12.8965C5.45944 12.8965 5.29297 12.7301 5.29297 12.5255C5.29297 12.3208 5.45944 12.1544 5.66406 12.1544ZM19.2003 0.0120239H11.1188C10.6778 0.0120239 10.3191 0.370758 10.3191 0.811737V6.02185C10.3191 6.46283 10.6778 6.82172 11.1188 6.82172H19.2003C19.6413 6.82172 20 6.46283 20 6.02185V0.811737C20 0.370758 19.6413 0.0120239 19.2003 0.0120239ZM10.905 6.02185V0.811737C10.905 0.693939 11.0008 0.597961 11.1188 0.597961H14.8665V6.23578H11.1188C11.0008 6.23578 10.905 6.1398 10.905 6.02185ZM19.4141 6.02185C19.4141 6.1398 19.3182 6.23578 19.2003 6.23578H15.4524V0.597961H19.2003C19.3182 0.597961 19.4141 0.693939 19.4141 0.811737V6.02185ZM0.584106 3.70984H9.00681C9.32892 3.70984 9.59106 3.44785 9.59106 3.12558V2.60083C9.59106 2.27872 9.32907 2.01672 9.00681 2.01672H8.56186C8.45993 1.36975 7.89856 0.873535 7.22351 0.873535H2.36755C1.6925 0.873535 1.13113 1.36975 1.02921 2.01672H0.584106C0.261993 2.01672 0 2.27872 0 2.60083V3.12573C0 3.44785 0.261993 3.70984 0.584106 3.70984ZM2.5293 2.60266C2.69104 2.60266 2.82227 2.47144 2.82227 2.30969C2.82227 2.14795 2.69104 2.01672 2.5293 2.01672H1.62827C1.72043 1.69537 2.01706 1.45947 2.36755 1.45947H7.22351C7.57401 1.45947 7.87064 1.69537 7.9628 2.01672H3.71979C3.55804 2.01672 3.42682 2.14795 3.42682 2.30969C3.42682 2.47144 3.55804 2.60266 3.71979 2.60266L8.25546 2.60114C8.26523 2.6022 8.2753 2.60266 8.28537 2.60266C8.29559 2.60266 8.30566 2.6022 8.31573 2.60114L9.00513 2.60098L9.00681 3.1239L0.585938 3.12573L0.584106 2.60266H2.5293Z" fill="#DBC67F"/>
</g>
</g>
<defs>
<clipPath id="clip0_31_1701">
<rect width="20" height="20" fill="white"/>
</clipPath>
</defs>
</svg>
