<svg width="20" height="20" viewBox="0 0 20 20" fill="none" xmlns="http://www.w3.org/2000/svg">
<g id="IMAGE">
<g id="Group">
<path id="Vector" d="M4.32177 0.000976562C2.76297 0.000976562 1.49512 1.83669 1.49512 4.09329C1.49512 5.67014 2.09825 7.0784 3.06977 7.76861C3.25934 7.90537 3.36872 8.12728 3.36172 8.36094L3.32324 9.97153C3.19591 10.1118 3.12279 10.2929 3.11702 10.4822L2.87958 18.5149C2.86776 18.9047 3.01433 19.2825 3.28585 19.5624C3.55738 19.8422 3.93068 20 4.32058 20H4.32177C4.71164 20 5.08489 19.8421 5.35639 19.5623C5.62789 19.2825 5.77449 18.9046 5.76276 18.5149L5.52516 10.4822C5.51945 10.2922 5.44594 10.1106 5.31793 9.97019L5.28181 8.36043C5.27362 8.12676 5.38289 7.90449 5.57292 7.76827C6.54461 7.07772 7.14841 5.66946 7.14841 4.09329C7.14841 1.83669 5.88039 0.000976562 4.32177 0.000976562ZM4.93232 19.1496C4.77255 19.3154 4.55199 19.4086 4.32177 19.4078H4.32058C4.09052 19.4078 3.87028 19.3146 3.71002 19.1496C3.54976 18.9845 3.46314 18.7616 3.46989 18.5316L3.70733 10.4989C3.71018 10.3846 3.80395 10.2936 3.91827 10.2942H4.72391C4.83823 10.2936 4.93201 10.3846 4.93485 10.4989L5.17246 18.5316C5.17997 18.7617 5.09323 18.985 4.93232 19.1496ZM5.23136 7.28613C4.88083 7.5359 4.67822 7.94423 4.69134 8.37444L4.72155 9.70423H3.92114L3.95219 8.37376C3.96368 7.94396 3.76094 7.53651 3.41116 7.28647C2.60603 6.71456 2.08576 5.4602 2.08576 4.09329C2.08576 2.16256 3.08884 0.591619 4.32177 0.591619C5.55469 0.591619 6.55777 2.16256 6.55777 4.09329C6.55777 5.4602 6.03682 6.71372 5.23136 7.28613Z" fill="#DBC67F"/>
<path id="Vector_2" d="M3.33614 2.0048C3.2661 1.96965 3.18496 1.96378 3.11061 1.98851C3.03625 2.01323 2.97477 2.06651 2.93973 2.1366C2.78111 2.45858 2.66635 2.80037 2.59851 3.15284C2.56668 3.31282 2.67057 3.46831 2.83055 3.50014C2.99052 3.53197 3.14602 3.42808 3.17784 3.2681C3.23531 2.96742 3.33282 2.67581 3.46776 2.40104C3.54078 2.25527 3.48186 2.0779 3.33614 2.0048ZM13.1654 0.00133833C12.7326 0.0332215 12.4 0.397366 12.4072 0.831276V3.55836C12.4115 3.67741 12.3258 3.78071 12.2079 3.79833C12.15 3.80143 12.0933 3.78055 12.0512 3.74059C12.0091 3.70062 11.9853 3.6451 11.9853 3.58705V0.831276C11.9926 0.396942 11.6592 0.0326264 11.2259 0.00133833C11.0062 -0.0107795 10.7912 0.0686374 10.6321 0.22072C10.4729 0.372441 10.3826 0.582652 10.3822 0.802588V3.55836C10.3865 3.67741 10.3007 3.78071 10.1829 3.79833C10.1249 3.80143 10.0682 3.78055 10.0261 3.74059C9.984 3.70062 9.9602 3.6451 9.96028 3.58705V0.831276C9.9675 0.396942 9.63415 0.0326264 9.20088 0.00133833C8.98112 -0.0107795 8.76614 0.0686374 8.60703 0.22072C8.44781 0.372441 8.35752 0.582652 8.35711 0.802588V4.09331C8.35711 6.39901 9.17523 7.39112 9.86206 7.8174C10.0858 7.94725 10.223 8.18682 10.2219 8.44551L10.1864 9.97105C10.0588 10.1114 9.98549 10.2926 9.97969 10.4822L9.74225 18.515C9.73043 18.9047 9.877 19.2826 10.1485 19.5624C10.42 19.8422 10.7933 20 11.1832 20H11.1843C11.5741 20 11.9474 19.842 12.2189 19.5622C12.4904 19.2825 12.6371 18.9047 12.6254 18.515L12.3878 10.4822C12.3821 10.2926 12.3088 10.1112 12.1811 9.97088L12.1457 8.44551C12.1451 8.187 12.2822 7.94774 12.5054 7.8174C13.1919 7.39197 14.0104 6.4007 14.0104 4.09331V0.802588C14.01 0.582568 13.9196 0.372284 13.7603 0.220551C13.6011 0.0679659 13.3856 -0.0114591 13.1654 0.00133833ZM11.7953 19.1496C11.6356 19.3154 11.415 19.4087 11.1848 19.4078H11.1838C10.9537 19.4078 10.7334 19.3146 10.5732 19.1496C10.4129 18.9845 10.3263 18.7616 10.3331 18.5317L10.5705 10.4989C10.5733 10.3846 10.6671 10.2936 10.7814 10.2942H11.5871C11.7014 10.2936 11.7952 10.3846 11.798 10.4989L12.0356 18.5317C12.0431 18.7618 11.9563 18.985 11.7953 19.1496ZM13.4198 4.09331C13.4198 5.70442 12.996 6.81854 12.1936 7.31653C11.7918 7.55641 11.5485 7.99232 11.5552 8.46019L11.5849 9.70526H10.7843L10.8125 8.46002C10.8195 7.9918 10.5757 7.55554 10.1732 7.3162C9.37149 6.81769 8.94775 5.7034 8.94775 4.09331V0.802588C8.94763 0.744707 8.97128 0.689317 9.01317 0.649373C9.05506 0.60943 9.11152 0.588437 9.16932 0.591306C9.28755 0.608457 9.37389 0.711888 9.36964 0.831276V3.58705C9.36965 3.80724 9.46015 4.01775 9.61992 4.16926C9.7797 4.32077 9.99471 4.39997 10.2146 4.3883C10.6474 4.35641 10.9801 3.99227 10.9728 3.55836V0.802588C10.9725 0.744405 10.9964 0.688717 11.0388 0.648852C11.0807 0.609344 11.1369 0.588572 11.1944 0.591306C11.3126 0.608457 11.399 0.711888 11.3947 0.831276V3.58705C11.3947 3.80724 11.4852 4.01775 11.645 4.16926C11.8048 4.32077 12.0198 4.39997 12.2397 4.3883C12.6725 4.35641 13.0051 3.99227 12.9979 3.55836V0.831276C12.9936 0.712305 13.0793 0.60907 13.197 0.591306C13.2548 0.588528 13.3113 0.609288 13.3536 0.648852C13.396 0.6887 13.42 0.744384 13.4198 0.802588V4.09331ZM17.8059 10.0757C17.8454 10.0086 17.9026 9.95375 17.9713 9.91705C18.3012 9.73905 18.5066 9.39416 18.506 9.01927V2.89515C18.5061 1.4991 17.5278 0.29404 16.1615 0.00724476C16.0745 -0.0108881 15.9839 0.0111372 15.915 0.0672093C15.846 0.123281 15.806 0.207436 15.806 0.296322V11.2038C15.6615 11.3472 15.5774 11.5404 15.5707 11.7438L15.3407 18.5119C15.3227 19.0368 15.5925 19.5297 16.0442 19.7974C16.496 20.0652 17.0579 20.0652 17.5097 19.7974C17.9615 19.5297 18.2312 19.0368 18.2132 18.5119L17.9829 11.7445C17.9764 11.5392 17.8912 11.3443 17.7448 11.2003V10.2951C17.7449 10.2178 17.766 10.1419 17.8059 10.0757ZM17.3875 1.40741C17.7287 1.82823 17.915 2.35342 17.9154 2.89515V9.01927C17.916 9.17614 17.8307 9.32077 17.6931 9.3961C17.3618 9.57381 17.1549 9.9191 17.1543 10.2951V10.9701H16.3966V0.689522C16.7843 0.837422 17.1262 1.08506 17.3875 1.40741ZM17.3857 19.1496C17.1423 19.4015 16.7689 19.4774 16.4465 19.3407C16.124 19.2039 15.9191 18.8827 15.931 18.5327L16.1603 11.7646C16.1638 11.6507 16.2574 11.5603 16.3713 11.5607H17.1813C17.2952 11.5603 17.3887 11.6507 17.3921 11.7646L17.6223 18.5327C17.6311 18.762 17.5456 18.985 17.3857 19.1496Z" fill="#DBC67F"/>
</g>
</g>
</svg>
