<svg width="20" height="20" viewBox="0 0 20 20" fill="none" xmlns="http://www.w3.org/2000/svg">
<g id="IMAGE">
<g id="Group">
<path id="Vector" d="M3.96663 5.7666L4.66667 6.46663V7.33333H5.33333V5.33333H14.6667V8.33333H15.3333V6.79997L16.0334 6.09994C16.0999 6.03337 16.1667 6 16.2666 6H17V5.33333H16.2666C16 5.33333 15.7334 5.43327 15.5667 5.6333L15.3333 5.8667V4.33333C15.3333 3.7666 14.9001 3.33333 14.3333 3.33333H11.6667V3C11.6667 2.43327 11.2334 2 10.6667 2H9.33333C8.7666 2 8.33333 2.43327 8.33333 3V3.33333H5.66667C5.09993 3.33333 4.66667 3.7666 4.66667 4.33333V5.53337L4.43327 5.29997C4.2334 5.09994 4 5 3.7334 5H3V5.66667H3.7334C3.79997 5.66667 3.90006 5.70003 3.96663 5.7666ZM9 3C9 2.79997 9.1333 2.66667 9.33333 2.66667H10.6667C10.8667 2.66667 11 2.79997 11 3V3.33333H9V3ZM5.66667 4H14.3333C14.5334 4 14.6667 4.1333 14.6667 4.33333V4.66667H5.33333V4.33333C5.33333 4.1333 5.46663 4 5.66667 4ZM12 12.3333V11.6667H11.1667C10.9666 11.6667 10.7666 11.7666 10.6667 11.9001V10.3333C10.6667 9.7666 10.2334 9.33333 9.66667 9.33333H7.66667V9C7.66667 8.43327 7.2334 8 6.66667 8H5.33333C4.7666 8 4.33333 8.43327 4.33333 9V9.33333H2.33333C1.7666 9.33333 1.33333 9.7666 1.33333 10.3333V11.5667C1.20003 11.4333 1.03337 11.3333 0.833333 11.3333H0V12H0.833333L1.33333 12.7666V17C1.33333 17.5667 1.7666 18 2.33333 18H9.66667C10.2334 18 10.6667 17.5667 10.6667 17V13.0999L11.1667 12.3333H12ZM5 9C5 8.79997 5.1333 8.66667 5.33333 8.66667H6.66667C6.8667 8.66667 7 8.79997 7 9V9.33333H5V9ZM2.33333 10H9.66667C9.8667 10 10 10.1333 10 10.3333V10.6667H2V10.3333C2 10.1333 2.1333 10 2.33333 10ZM9.66667 17.3333H2.33333C2.1333 17.3333 2 17.2 2 17V11.3333H10V17C10 17.2 9.8667 17.3333 9.66667 17.3333Z" fill="#DBC67F"/>
<path id="Vector_2" d="M19.1663 12.3333C18.9663 12.3333 18.7663 12.4333 18.6663 12.5667V11.3333C18.6663 10.7666 18.2331 10.3333 17.6663 10.3333H15.6663V10C15.6663 9.43327 15.2331 9 14.6663 9H13.9997C13.4329 9 12.9997 9.43327 12.9997 10V10.3333H11.333V11H17.6663C17.8664 11 17.9997 11.1333 17.9997 11.3333V12H12.6663V12.6667H17.9997V17C17.9997 17.2 17.8664 17.3333 17.6663 17.3333H11.333V18H17.6663C18.2331 18 18.6663 17.5667 18.6663 17V13.7666L19.1663 13H19.9997V12.3333H19.1663ZM13.6663 10C13.6663 9.79997 13.7996 9.66667 13.9997 9.66667H14.6663C14.8664 9.66667 14.9997 9.79997 14.9997 10V10.3333H13.6663V10Z" fill="#DBC67F"/>
</g>
</g>
</svg>
