<svg width="20" height="20" viewBox="0 0 20 20" fill="none" xmlns="http://www.w3.org/2000/svg">
<g id="IMAGE" clip-path="url(#clip0_31_1765)">
<g id="Group">
<path id="Vector" d="M19.1111 5.49106C19.0329 4.6623 18.7935 2.16817 14.3726 2.09174C14.2081 1.75919 13.8701 1.54793 13.4991 1.54587H13.3445V0.978723C13.3439 0.438423 12.9061 0.000562911 12.3658 0H5.79677C5.2565 0.000656512 4.8187 0.438462 4.81804 0.978723V1.54587H4.66366C4.2755 1.54795 3.92496 1.77842 3.76919 2.13396L1.07694 2.77226C0.99554 2.79152 0.925992 2.84411 0.885294 2.91719C0.844596 2.99026 0.836498 3.07708 0.862979 3.15643C0.897021 3.25855 1.70008 5.63898 2.98962 7.29089C2.75745 9.62281 2.56783 12.6948 2.55847 16.5382C1.93574 16.5539 1.43879 17.0627 1.43779 17.6856V19.7021C1.43774 19.7811 1.46911 19.8569 1.52498 19.9128C1.58085 19.9687 1.65664 20 1.73566 20H16.4277C16.5923 20 16.7256 19.8666 16.7256 19.7021V17.6856C16.7246 17.0628 16.2278 16.554 15.6051 16.5382C15.5913 10.913 15.1911 6.93957 14.8378 4.52119C15.5437 4.56187 16.1025 4.73311 16.5004 5.03285C17.8313 6.03472 17.3503 9.0686 17.0819 10.3265C17.0155 10.6371 17.077 10.9613 17.2524 11.226C17.4279 11.4908 17.7026 11.6737 18.0145 11.7336C18.0332 11.7371 18.0521 11.7389 18.0711 11.7389C18.2034 11.7388 18.3198 11.6515 18.3569 11.5246C18.3974 11.3843 19.3552 8.06979 19.1111 5.49106ZM5.41379 0.978723C5.41407 0.767327 5.58537 0.596026 5.79677 0.595745H12.3658C12.5772 0.596026 12.7485 0.767327 12.7488 0.978723V1.54587H5.41379V0.978723ZM4.66366 2.14162H13.4991C13.6802 2.14237 13.8362 2.26944 13.8735 2.44664C14.2107 4.06996 14.9891 8.66859 15.0085 16.5367H3.15387C3.17345 8.66809 3.95132 4.06979 4.28851 2.44664C4.32617 2.26933 4.4824 2.14231 4.66366 2.14162ZM1.53821 3.27506L3.61481 2.78281C3.46485 3.56987 3.26757 4.77072 3.08374 6.40034C2.4595 5.41617 1.94142 4.36855 1.53821 3.27506ZM16.1295 17.6856V19.4048H2.03302V17.6856C2.0334 17.3803 2.28085 17.1328 2.58621 17.1324H15.5763C15.8817 17.1328 16.1292 17.3803 16.1295 17.6856ZM17.8729 11.0317C17.6986 10.8933 17.6177 10.6682 17.6642 10.4506C18.0272 8.74843 18.4056 5.72119 16.8586 4.5566C16.3409 4.16664 15.6298 3.95506 14.746 3.92187C14.6681 3.43183 14.5946 3.02162 14.5307 2.69123C17.1023 2.76681 18.3391 3.65515 18.5181 5.54723C18.7083 7.55796 18.106 10.1343 17.8729 11.0317Z" fill="#DBC67F"/>
<path id="Vector_2" d="M9.08133 14.7477C9.98978 14.7467 10.726 14.0106 10.7271 13.1021V5.57633C10.7271 4.66739 9.99028 3.93054 9.08133 3.93054C8.17239 3.93054 7.43555 4.66739 7.43555 5.57633V13.1021C7.43667 14.0106 8.17289 14.7467 9.08133 14.7477ZM8.03129 5.57633C8.03129 4.99641 8.50141 4.52629 9.08133 4.52629C9.66126 4.52629 10.1314 4.99641 10.1314 5.57633V13.1021C10.1314 13.682 9.66126 14.1522 9.08133 14.1522C8.50141 14.1522 8.03129 13.682 8.03129 13.1021V5.57633Z" fill="#DBC67F"/>
<path id="Vector_3" d="M8.79006 6.23002H9.37321C9.53772 6.23002 9.67108 6.09666 9.67108 5.93215C9.67108 5.76764 9.53772 5.63428 9.37321 5.63428H8.79006C8.62555 5.63428 8.49219 5.76764 8.49219 5.93215C8.49219 6.09666 8.62555 6.23002 8.79006 6.23002ZM8.79006 7.93351H9.37321C9.53772 7.93351 9.67108 7.80015 9.67108 7.63564C9.67108 7.47113 9.53772 7.33777 9.37321 7.33777H8.79006C8.62555 7.33777 8.49219 7.47113 8.49219 7.63564C8.49219 7.80015 8.62555 7.93351 8.79006 7.93351ZM8.79006 9.63717H9.37321C9.53772 9.63717 9.67108 9.50381 9.67108 9.3393C9.67108 9.17479 9.53772 9.04143 9.37321 9.04143H8.79006C8.62555 9.04143 8.49219 9.17479 8.49219 9.3393C8.49219 9.50381 8.62555 9.63717 8.79006 9.63717ZM8.79006 11.3407H9.37321C9.53772 11.3407 9.67108 11.2073 9.67108 11.0428C9.67108 10.8783 9.53772 10.7449 9.37321 10.7449H8.79006C8.62555 10.7449 8.49219 10.8783 8.49219 11.0428C8.49219 11.2073 8.62555 11.3407 8.79006 11.3407ZM8.79006 13.0443H9.37321C9.53772 13.0443 9.67108 12.911 9.67108 12.7464C9.67108 12.5819 9.53772 12.4486 9.37321 12.4486H8.79006C8.62555 12.4486 8.49219 12.5819 8.49219 12.7464C8.49219 12.911 8.62555 13.0443 8.79006 13.0443Z" fill="#DBC67F"/>
</g>
</g>
<defs>
<clipPath id="clip0_31_1765">
<rect width="20" height="20" fill="white"/>
</clipPath>
</defs>
</svg>
