<svg width="20" height="20" viewBox="0 0 20 20" fill="none" xmlns="http://www.w3.org/2000/svg">
<g id="IMAGE">
<g id="Group">
<path id="Vector" d="M10.0003 7.08325C7.46902 7.08325 5.41699 9.13528 5.41699 11.6666C5.41699 14.1979 7.46902 16.2499 10.0003 16.2499C12.5316 16.2499 14.5837 14.1979 14.5837 11.6666C14.5837 9.13528 12.5316 7.08325 10.0003 7.08325ZM10.0003 15.4166C7.92926 15.4166 6.25033 13.7377 6.25033 11.6666C6.25033 9.59552 7.92926 7.91658 10.0003 7.91658C12.0714 7.91658 13.7503 9.59552 13.7503 11.6666C13.7503 13.7377 12.0714 15.4166 10.0003 15.4166Z" fill="#DBC67F"/>
<path id="Vector_2" d="M12.083 11.6667C12.083 12.8173 11.1503 13.75 9.99967 13.75C9.76956 13.75 9.58301 13.9365 9.58301 14.1667C9.58301 15.2333 12.9163 14.3125 12.9163 11.6667C12.9163 11.4365 12.7298 11.25 12.4997 11.25C12.2696 11.25 12.083 11.4365 12.083 11.6667Z" fill="#DBC67F"/>
<path id="Vector_3" d="M10.0003 5.41675C7.35482 5.42896 4.99915 7.09374 4.10449 9.58341H3.33366C3.10354 9.58341 2.91699 9.76996 2.91699 10.0001V13.3334C2.91699 13.5635 3.10354 13.7501 3.33366 13.7501H4.10449C5.16383 16.7463 8.30297 18.4706 11.3999 17.7573C14.4968 17.044 16.5654 14.1202 16.2072 10.9624C15.8491 7.80467 13.1783 5.41841 10.0003 5.41675ZM10.0003 17.0834C7.60771 17.0726 5.50192 15.5026 4.80866 13.2126C4.70033 12.8584 4.39199 12.9167 3.75033 12.9167V10.4167C4.39616 10.4167 4.70033 10.4792 4.80866 10.1209C5.60472 7.4475 8.30091 5.81576 11.0386 6.35057C13.7763 6.88538 15.6601 9.41184 15.3916 12.1883C15.123 14.9648 12.7897 17.0833 10.0003 17.0834Z" fill="#DBC67F"/>
<path id="Vector_4" d="M18.3333 0H1.66667C1.43655 0 1.25 0.186548 1.25 0.416667V19.5833C1.25 19.8135 1.43655 20 1.66667 20H18.3333C18.5635 20 18.75 19.8135 18.75 19.5833V0.416667C18.75 0.186548 18.5635 0 18.3333 0ZM17.9167 3.33333H7.08333V0.833333H17.9167V3.33333ZM2.08333 0.833333H6.25V3.33333H2.08333V0.833333ZM2.08333 19.1667V4.16667H17.9167V19.1667H2.08333Z" fill="#DBC67F"/>
<path id="Vector_5" d="M10 3.08301C10.5523 3.08301 11 2.63529 11 2.08301C11 1.53072 10.5523 1.08301 10 1.08301C9.44772 1.08301 9 1.53072 9 2.08301C9 2.63529 9.44772 3.08301 10 3.08301Z" fill="#DBC67F"/>
<path id="Vector_6" d="M12.4997 2.50008H16.6663C16.8965 2.50008 17.083 2.31353 17.083 2.08341C17.083 1.8533 16.8965 1.66675 16.6663 1.66675H12.4997C12.2696 1.66675 12.083 1.8533 12.083 2.08341C12.083 2.31353 12.2696 2.50008 12.4997 2.50008Z" fill="#DBC67F"/>
</g>
</g>
</svg>
