<svg width="20" height="20" viewBox="0 0 20 20" fill="none" xmlns="http://www.w3.org/2000/svg">
<g id="IMAGE">
<g id="Group">
<path id="Vector" d="M14.0685 9.32905C14.0682 9.32905 14.0688 9.32905 14.0685 9.32905C14.0688 9.32905 14.0699 9.32905 14.0702 9.32905H18.622C18.7303 9.32905 18.8308 9.27264 18.8871 9.18018C18.9435 9.08776 18.9476 8.9726 18.898 8.87635L15.9576 3.1683L15.9538 3.16115C15.9506 3.15361 15.9471 3.14619 15.9433 3.13896C15.8344 2.93169 15.6539 2.80798 15.4602 2.80798H12.8923C12.8918 2.80798 12.8913 2.80798 12.8908 2.80798H6.98965C6.98915 2.80798 6.98864 2.80798 6.98813 2.80798H4.53977C4.34625 2.80798 4.1657 2.93166 4.0568 3.13877C4.05324 3.14552 4.04965 3.15318 4.04645 3.16064L2.6248 5.92025C2.62461 5.92064 2.62441 5.921 2.62422 5.92139L1.10187 8.87639C1.05226 8.97264 1.0564 9.0878 1.11281 9.18022C1.16914 9.27268 1.26964 9.32913 1.37789 9.32913H5.81012C5.80985 9.32913 5.81039 9.32913 5.81012 9.32913C5.81039 9.32913 5.81157 9.32913 5.81184 9.32913L14.0685 9.32905ZM10.2508 3.429H12.6353L13.1011 5.75803H10.2508V3.429ZM5.5561 8.70803H1.88715L3.08695 6.37904H6.02184L5.5561 8.70803ZM3.40687 5.75803L4.59422 3.45318L4.59715 3.44763C4.60051 3.44142 4.6036 3.43537 4.60668 3.429H6.6118L6.14602 5.75803H3.40687ZM9.62974 8.70803H6.18942L6.6552 6.37904H9.62974V8.70803ZM9.62974 5.75803H6.77938L7.24516 3.429H9.62974V5.75803ZM10.2507 8.70803V6.37904H13.2252L13.691 8.70803H10.2507ZM13.2686 3.429H15.3933C15.3963 3.43537 15.3995 3.44142 15.4028 3.44763L16.593 5.75803H13.7344L13.2686 3.429ZM16.913 6.37904L18.1128 8.70803H14.3243L13.8586 6.37904H16.913Z" fill="#DBC67F"/>
<path id="Vector_2" d="M19.9996 9.12005C20.0018 8.94146 19.9696 8.76076 19.9043 8.58318C19.8927 8.55161 19.8789 8.52025 19.8632 8.48974L16.8876 2.71356C16.6859 2.27797 16.1928 1.77301 15.4602 1.77301H4.53977C3.80719 1.77301 3.31415 2.27797 3.11243 2.71356L0.136641 8.49001C0.121094 8.52025 0.107344 8.55161 0.0958595 8.5829C0.0304688 8.76052 -0.00160157 8.94091 0.000390626 9.11935C0 9.12744 0 9.13544 0 9.14353C0 9.31001 0.0354297 9.47181 0.105391 9.62466C0.297735 10.074 0.731759 10.3641 1.21246 10.3641H1.76172L3.87329 13.0091L3.78883 17.9112C3.7859 18.0826 3.92251 18.224 4.09395 18.227H4.09942C4.26837 18.227 4.40688 18.0915 4.40977 17.9219L4.4813 13.7707L5.47317 15.0132C5.5345 15.0899 5.62481 15.1299 5.71602 15.1299C5.78395 15.1299 5.85235 15.1078 5.90958 15.0621C6.04356 14.9551 6.06548 14.7597 5.95853 14.6257L4.49809 12.7963L4.54001 10.3642H5.72993C5.90145 10.3642 6.04044 10.2252 6.04044 10.0536C6.04044 9.88212 5.90145 9.74314 5.72993 9.74314H1.21246C0.980041 9.74314 0.769181 9.59978 0.675274 9.37791C0.673946 9.37474 0.67254 9.37162 0.671095 9.36845C0.637814 9.29662 0.620938 9.22095 0.620938 9.14353L0.621134 9.13509C0.621368 9.12908 0.621407 9.12314 0.621329 9.11708C0.619493 9.01306 0.638712 8.90552 0.678595 8.7972C0.681446 8.78943 0.684923 8.78158 0.688751 8.77412L3.6677 2.9918C3.66997 2.98747 3.67208 2.98301 3.67411 2.9786C3.77325 2.76149 4.06708 2.39407 4.53981 2.39407H15.4602C15.9329 2.39407 16.2268 2.76145 16.3259 2.97856C16.328 2.98297 16.3301 2.98743 16.3323 2.99176L19.311 8.77384C19.3151 8.78162 19.3185 8.78947 19.3214 8.79744C19.3613 8.90568 19.3805 9.01337 19.3786 9.11759C19.3785 9.1238 19.3786 9.13001 19.3789 9.13623L19.379 9.14345C19.379 9.22083 19.3622 9.2965 19.3289 9.36837C19.3275 9.3715 19.326 9.37462 19.3247 9.37783C19.2308 9.5997 19.02 9.74306 18.7875 9.74306H6.84778C6.67626 9.74306 6.53728 9.88205 6.53728 10.0536C6.53728 10.2251 6.67626 10.3641 6.84778 10.3641H15.7871L15.829 12.7962L14.3685 14.6256C14.2615 14.7597 14.2835 14.9551 14.4175 15.0621C14.4747 15.1078 14.5431 15.1299 14.611 15.1299C14.7022 15.1299 14.7926 15.0899 14.8539 15.0131L15.8458 13.7706L15.9173 17.9218C15.9201 18.0915 16.0586 18.227 16.2276 18.227H16.2331C16.4046 18.224 16.5412 18.0826 16.5382 17.9111L16.4537 13.009L18.5653 10.3641H18.7875C19.2682 10.3641 19.7023 10.074 19.8946 9.62462C19.9645 9.47177 20 9.30994 20 9.14349C20 9.13572 20 9.12787 19.9996 9.12005ZM3.91891 10.3641L3.89008 12.0347L2.55641 10.3641H3.91891ZM16.4369 12.0347L16.4082 10.3641H17.7706L16.4369 12.0347Z" fill="#DBC67F"/>
</g>
</g>
</svg>
