<svg width="20" height="20" viewBox="0 0 20 20" fill="none" xmlns="http://www.w3.org/2000/svg">
<g id="IMAGE">
<path id="Vector" d="M12.4995 4.0619C13.1898 4.0619 13.7494 4.62152 13.7494 5.31184C13.7494 5.57746 13.6666 5.82372 13.5253 6.0262C13.8503 6.08087 14.1708 6.16682 14.4825 6.28055C14.6443 6.34096 14.7265 6.52109 14.6661 6.68288C14.6057 6.84468 14.4256 6.92687 14.2638 6.86647C13.6985 6.66059 13.101 6.55741 12.4995 6.56179C11.0754 6.56179 9.99576 7.0711 9.21032 7.81117L15.7838 7.81108C15.5877 7.62618 15.3738 7.45628 15.1416 7.30551C15.048 7.24467 14.9939 7.1385 14.9998 7.02701C15.0057 6.91552 15.0706 6.81564 15.1701 6.76499C15.2696 6.71435 15.3886 6.72063 15.4822 6.78147C16.2901 7.30639 16.8823 8.00359 17.2987 8.751C17.6018 8.45424 18.0901 8.12423 18.7492 8.12423C19.044 8.11287 19.3306 8.22314 19.5417 8.42922C19.8732 8.76179 19.9663 9.30561 19.9913 9.92847L19.9995 10.3106L19.9992 10.9366L19.9926 11.0712L19.9713 11.2562C19.9663 11.2907 19.9607 11.3269 19.9543 11.3647L19.9065 11.6081C19.7044 12.5132 19.124 13.9216 17.7137 14.0518C17.5113 14.6075 17.2343 15.1368 16.8898 15.6243L19.6867 15.6239C19.8593 15.6239 19.9992 15.7638 19.9992 15.9364C19.9992 16.109 19.8593 16.2489 19.6867 16.2489H0.312487C0.139905 16.2489 0 16.109 0 15.9364C0 15.7638 0.139905 15.6239 0.312487 15.6239L2.25115 15.6239C1.96783 15.0774 1.80104 14.4581 1.70286 13.9157L1.65181 13.6006L1.61491 13.3111L1.58989 13.0545L1.56956 12.7466L1.56244 12.499C1.56244 12.3265 1.70234 12.1866 1.87492 12.1866H6.24974C6.42232 12.1866 6.56223 12.3265 6.56223 12.499C6.54759 13.3879 6.39191 14.2689 6.101 15.1089C6.03807 15.2668 5.86052 15.3454 5.70132 15.286C5.54213 15.2265 5.45967 15.0506 5.51571 14.8902C5.64515 14.5176 5.74515 14.1359 5.81502 13.7486L2.30968 13.7476C2.41502 14.3569 2.61071 15.0749 2.97394 15.6239L7.56292 15.6239C7.27971 15.0774 7.11303 14.4581 7.01494 13.9157L6.96393 13.6006C6.95667 13.55 6.95001 13.5005 6.94388 13.4522L6.91325 13.1783L6.88667 12.8377L6.87472 12.499C6.87472 12.3265 7.01462 12.1866 7.1872 12.1866H11.562C11.7346 12.1866 11.8745 12.3265 11.8745 12.499L11.8673 12.7466L11.8469 13.0545L11.8219 13.3111C11.8168 13.3569 11.8112 13.4039 11.805 13.4522L11.7613 13.7554L11.7023 14.0806C11.6011 14.5813 11.4405 15.1321 11.1856 15.6239L16.1 15.623L16.1989 15.5039C17.005 14.4645 17.4618 13.1937 17.4993 11.8741C17.4993 10.8031 17.1336 9.48797 16.3416 8.43605L8.65204 8.43619C7.91305 9.41679 7.55532 10.6113 7.49969 11.5797C7.49008 11.7452 7.35295 11.8744 7.1872 11.8741H7.16877C7.08595 11.8693 7.00843 11.8318 6.95327 11.7699C6.89811 11.7079 6.86985 11.6266 6.87472 11.5438C6.89708 11.1579 6.96267 10.7398 7.07555 10.3119L6.76317 10.3083C6.51312 10.2942 5.97824 10.2239 5.69727 9.88697L4.84355 8.7492H4.41576C4.53767 9.68159 4.84722 10.5796 5.32572 11.3891C5.38921 11.485 5.39488 11.608 5.34049 11.7094C5.2861 11.8107 5.18043 11.874 5.06542 11.8741C4.96045 11.8742 4.86243 11.8216 4.80449 11.7341C4.48433 11.25 4.25893 10.7005 4.10123 10.1918L4.00582 9.85979L3.92869 9.5469L3.86806 9.26008L3.82213 9.00632L3.77691 8.70295L3.74985 8.46171C3.74285 8.3746 3.77266 8.28854 3.83204 8.22441C3.89142 8.16028 3.97494 8.12395 4.06233 8.12423H4.99979C5.09815 8.12423 5.19077 8.17054 5.24978 8.24922L6.18725 9.49917C6.34941 9.60758 6.53629 9.67138 6.7292 9.68548L7.1872 9.68666C7.21597 9.68666 7.24382 9.69055 7.27028 9.69783C7.87486 8.04615 9.20038 6.40393 11.4718 6.02046C11.331 5.81955 11.2495 5.57521 11.2495 5.31184C11.2495 4.62152 11.8092 4.0619 12.4995 4.0619ZM11.237 12.8115H7.51188L7.52665 13.0101C7.52977 13.0463 7.53324 13.0841 7.5371 13.1233L10.3121 13.124C10.4847 13.124 10.6246 13.2639 10.6246 13.4365C10.6246 13.6091 10.4847 13.749 10.3121 13.749L7.62117 13.7474C7.72639 14.3574 7.92232 15.0764 8.2871 15.6257L10.46 15.623L10.5006 15.5652C10.9788 14.8048 11.1517 13.7549 11.2141 13.1018L11.237 12.8115ZM16.5618 11.5616C16.7344 11.5616 16.8743 11.7015 16.8743 11.8741C16.8743 12.9523 16.5257 14.0016 15.8806 14.8655C15.8221 14.9492 15.7264 14.999 15.6244 14.9989H12.4995C12.3269 14.9989 12.187 14.859 12.187 14.6865C12.187 14.5139 12.3269 14.374 12.4995 14.374H15.4587C15.9774 13.644 16.254 12.7696 16.2493 11.8741C16.2493 11.7015 16.3892 11.5616 16.5618 11.5616ZM18.7492 8.7492C18.294 8.78319 17.8761 9.00166 17.5888 9.34811C17.967 10.2286 18.1243 11.132 18.1243 11.8741C18.1137 12.3841 18.0454 12.8877 17.9227 13.3759C19.0939 13.032 19.3742 11.2863 19.3742 10.9366L19.3742 10.3514L19.3681 10.0075C19.3513 9.50347 19.2928 9.06549 19.0983 8.87014C19.0046 8.78169 18.8775 8.73766 18.7492 8.7492ZM5.92444 12.8115H2.19991L2.2148 13.0103C2.21794 13.0466 2.22143 13.0845 2.22532 13.1237L5.90097 13.125C5.91096 13.0208 5.91879 12.9163 5.92444 12.8115ZM4.60499 3.85574C4.70273 3.96461 4.7101 4.12344 4.63134 4.23964L4.54291 4.33764C4.43228 4.46573 4.22451 4.8063 4.54195 5.31644L4.62481 5.43715C5.31759 6.36055 4.90011 7.13802 4.58231 7.42051C4.52511 7.47126 4.45129 7.49925 4.37482 7.49925C4.24516 7.49915 4.12904 7.41899 4.08298 7.29779C4.04613 7.20083 4.06024 7.09372 4.11694 7.01063L4.20808 6.91058L4.26308 6.83733C4.36859 6.67568 4.47683 6.36519 4.20783 5.93276L4.12483 5.81182C3.43236 4.88842 3.84984 4.11096 4.16733 3.82878C4.29609 3.71672 4.49095 3.72873 4.60499 3.85574ZM12.4995 4.68687C12.1543 4.68687 11.8745 4.96668 11.8745 5.31184C11.8745 5.65701 12.1543 5.93682 12.4995 5.93682C12.8446 5.93682 13.1245 5.65701 13.1245 5.31184C13.1245 4.96668 12.8446 4.68687 12.4995 4.68687Z" fill="#DBC67F"/>
</g>
</svg>
