<svg width="170" height="58" viewBox="0 0 170 58" fill="none" xmlns="http://www.w3.org/2000/svg">
<path id="Vector" d="M169.313 32.7367C169.833 31.5302 168.202 30.4718 167.507 31.673C165.449 35.2211 163.011 38.2123 159.245 40.0603C158.124 40.6091 156.904 41.0689 155.649 41.3849C155.32 38.5947 153.937 35.9153 151.204 33.8269C150.766 33.492 150.261 33.6776 149.946 34.0386C148.041 33.5384 146.058 34.6427 145.345 36.6464C144.39 39.3205 146.242 42.1048 148.639 43.244C150.254 44.0182 151.977 44.2728 153.713 44.1686C152.566 49.9176 145.142 54.7509 138.797 54.8624C128.664 55.0461 118.405 49.0155 109.511 44.7689C93.0735 36.9169 77.2226 27.9177 60.8977 19.8372C47.1228 13.0197 31.2213 4.28649 15.6316 3.12188C13.5505 2.96801 10.5205 2.83943 7.72301 3.31147C6.49462 2.21622 5.10115 1.27345 3.82599 0.507313C3.29043 0.187814 2.87467 0.96672 3.34899 1.32157C4.28797 2.02869 5.30611 2.78811 6.23783 3.63822C4.13012 4.20191 2.28922 5.19942 1.30932 6.92459C0.0718567 9.10873 0.646596 11.1366 2.30637 12.3992C2.27461 12.5563 2.29116 12.7264 2.38756 12.9075C4.20894 16.3875 9.33529 15.1833 10.6179 11.9035C11.5761 9.44783 10.9674 7.27629 9.64972 5.43242C10.2476 5.36486 10.848 5.28762 11.4459 5.22006C14.1431 5.0835 16.894 5.36506 19.537 5.85585C23.7469 6.64225 27.8209 8.01339 31.8374 9.48301C40.6417 12.7118 49.2069 16.6011 57.6398 20.7139C74.3685 28.8715 90.5502 38.1043 107.312 46.1776C118.746 51.6846 134.636 61.3879 147.517 55.1595C152.12 52.935 155.21 48.4727 155.682 43.8888C161.544 42.6436 167.236 37.5532 169.313 32.7367ZM9.24637 8.21274C9.61674 9.84419 9.45788 11.7894 7.98024 12.8221C6.86105 13.5989 5.37435 13.5836 4.35949 12.7733C4.44162 12.5055 4.38851 12.2014 4.11237 12.0342C3.52383 8.08739 4.68004 5.97465 7.54686 5.70753C7.70728 5.6884 7.87735 5.67185 8.04036 5.64306C8.59727 6.4238 9.03429 7.26558 9.24637 8.21274ZM152.94 41.7978C151.283 41.8403 150.361 41.5725 149.012 40.5795C147.29 39.9732 147.205 38.9773 148.737 37.5865C148.785 36.1707 149.233 35.5038 150.074 35.5325C152.405 37.5342 153.549 39.6419 153.812 41.7106C153.523 41.747 153.231 41.793 152.94 41.7978Z" fill="#173164"/>
</svg>
