<svg width="170" height="58" viewBox="0 0 170 58" fill="none" xmlns="http://www.w3.org/2000/svg">
<path id="Vector" d="M0.353747 32.7367C-0.166246 31.5302 1.46543 30.4718 2.15998 31.673C4.21845 35.2211 6.65564 38.2123 10.4223 40.0603C11.5425 40.6091 12.7631 41.0689 14.0177 41.3849C14.3467 38.5947 15.7304 35.9153 18.463 33.8269C18.9012 33.492 19.4064 33.6776 19.7206 34.0386C21.6261 33.5384 23.6095 34.6427 24.3224 36.6464C25.277 39.3205 23.4245 42.1048 21.0277 43.244C19.413 44.0182 17.6902 44.2728 15.9541 44.1686C17.1011 49.9176 24.525 54.7509 30.8701 54.8624C41.0029 55.0461 51.2617 49.0155 60.1556 44.7689C76.5935 36.9169 92.4444 27.9177 108.769 19.8372C122.544 13.0197 138.446 4.28649 154.035 3.12188C156.117 2.96801 159.146 2.83943 161.944 3.31147C163.172 2.21622 164.566 1.27345 165.841 0.507313C166.377 0.187814 166.792 0.96672 166.318 1.32157C165.379 2.02869 164.361 2.78811 163.429 3.63822C165.537 4.20191 167.378 5.19942 168.358 6.92459C169.595 9.10873 169.02 11.1366 167.361 12.3992C167.392 12.5563 167.376 12.7264 167.279 12.9075C165.458 16.3875 160.332 15.1833 159.049 11.9035C158.091 9.44783 158.7 7.27629 160.017 5.43242C159.419 5.36486 158.819 5.28762 158.221 5.22006C155.524 5.0835 152.773 5.36506 150.13 5.85585C145.92 6.64225 141.846 8.01339 137.83 9.48301C129.025 12.7118 120.46 16.6011 112.027 20.7139C95.2985 28.8715 79.1168 38.1043 62.3551 46.1776C50.9209 51.6846 35.0308 61.3879 22.1499 55.1595C17.5473 52.935 14.4571 48.4727 13.9846 43.8888C8.12254 42.6436 2.43112 37.5532 0.353747 32.7367ZM160.421 8.21274C160.05 9.84419 160.209 11.7894 161.687 12.8221C162.806 13.5989 164.293 13.5836 165.308 12.7733C165.225 12.5055 165.278 12.2014 165.555 12.0342C166.143 8.08739 164.987 5.97465 162.12 5.70753C161.96 5.6884 161.79 5.67185 161.627 5.64306C161.07 6.4238 160.633 7.26558 160.421 8.21274ZM16.7268 41.7978C18.3843 41.8403 19.3064 41.5725 20.6554 40.5795C22.3771 39.9732 22.4622 38.9773 20.9301 37.5865C20.882 36.1707 20.4342 35.5038 19.5929 35.5325C17.2615 37.5342 16.1181 39.6419 15.8545 41.7106C16.1438 41.747 16.4357 41.793 16.7268 41.7978Z" fill="#173164"/>
</svg>
