<svg width="84" height="30" viewBox="0 0 84 30" fill="none" xmlns="http://www.w3.org/2000/svg">
<g id="Group 130">
<path id="Vector" fill-rule="evenodd" clip-rule="evenodd" d="M42.1448 25.2545C46.37 28.8352 52.8064 29.5961 57.515 26.5614C59.7414 25.157 61.39 23.0002 62.1609 20.4832C62.9148 17.9049 62.6255 15.1337 61.3553 12.7668C60.3829 11.0267 58.8512 9.66611 57.0086 8.90567C55.166 8.14523 53.1206 8.02954 51.204 8.57736C50.1357 8.90442 49.1605 9.48086 48.3589 10.2591C47.5573 11.0373 46.9523 11.9951 46.5938 13.0532C46.194 14.1688 46.0982 15.3707 46.3163 16.5355C46.4213 17.0654 46.615 17.5739 46.8892 18.0394C47.0325 18.2721 47.5785 19.1136 47.9545 18.9345C48.3305 18.7555 48.0977 17.9319 48.0977 17.6634C48.0892 16.9695 48.1858 16.2784 48.3842 15.6134C48.7349 14.3719 49.5361 13.3058 50.6311 12.6236C51.3941 12.239 52.2415 12.0523 53.0955 12.0804C53.9495 12.1086 54.7827 12.3507 55.5187 12.7847C56.3433 13.3066 57.0083 14.0455 57.4409 14.9202C57.8736 15.7949 58.0571 16.7718 57.9715 17.744C57.8442 19.0328 57.3473 20.2574 56.5406 21.2706C55.7338 22.2838 54.6516 23.0424 53.424 23.4552C52.1208 23.8808 50.7412 24.0212 49.3789 23.8667C48.0166 23.7123 46.7035 23.2666 45.5286 22.56C43.1474 21.2083 41.3302 19.0688 39.4951 17.0905C37.6285 15.017 35.5254 13.1693 33.2289 11.5851C30.9306 10.0485 28.4179 8.85998 25.7721 8.05815C20.6776 6.54629 15.196 7.0627 10.4735 9.49939C8.19179 10.7342 6.26667 12.536 4.88374 14.7311C3.50082 16.9262 2.70675 19.4406 2.57807 22.0318C2.55067 23.0059 2.64084 23.9797 2.84663 24.9322C2.49348 22.3403 2.88505 19.7015 3.97561 17.3238C5.06616 14.9462 6.81068 12.9278 9.00542 11.5046C13.4813 8.52365 19.1746 8.29985 24.1518 9.87536C27.9282 11.1851 31.3293 13.3941 34.0614 16.3117C35.4566 17.758 36.7686 19.2822 37.9912 20.8771C39.2199 22.4737 40.6087 23.9405 42.1359 25.2545H42.1448Z" fill="#ECCE00"/>
<path id="Vector_2" fill-rule="evenodd" clip-rule="evenodd" d="M23.6237 14.8348C26.7658 16.2581 29.7736 19.0242 29.7826 22.7302C29.7991 23.572 29.6342 24.4075 29.299 25.1798C28.9638 25.9522 28.4662 26.6432 27.84 27.2061C27.2122 27.7412 26.4937 28.1596 25.7185 28.4414C25.4051 28.5578 24.2414 28.71 24.1519 29.1307C24.0624 29.5515 25.0471 29.8379 25.3335 29.9095C25.9664 30.0303 26.6164 30.0303 27.2492 29.9095C28.5983 29.6946 29.8485 29.0695 30.8299 28.1192C31.7397 27.1838 32.4208 26.0506 32.82 24.8082C33.2191 23.5659 33.3253 22.248 33.1305 20.9578C32.7279 18.384 31.3968 16.0467 29.3887 14.3872C27.3447 12.7308 24.8928 11.6547 22.2899 11.272C17.58 10.3814 12.7091 11.3955 8.74593 14.0918C7.29489 15.1217 6.07262 16.4407 5.15599 17.9659C4.23936 19.491 3.64819 21.1893 3.41964 22.954C3.32384 24.0447 3.37198 25.1433 3.56286 26.2214C3.29187 24.022 3.70774 21.7926 4.75345 19.8388C5.82094 17.8852 7.411 16.2673 9.3457 15.166C11.5058 13.9938 13.9241 13.3785 16.3818 13.3756C17.5835 13.3743 18.7825 13.4882 19.9625 13.7158C21.1995 13.9273 22.4034 14.3005 23.5432 14.8258C24.8322 15.3808 23.4716 14.7542 23.6237 14.8348Z" fill="#ECCE00"/>
<path id="Vector_3" fill-rule="evenodd" clip-rule="evenodd" d="M17.9034 6.05317C20.1475 5.98754 22.3928 6.13742 24.6083 6.50076C26.7262 6.79814 28.8099 7.30183 30.8298 8.00465C32.7307 8.65901 34.5367 9.56203 36.2008 10.6902C36.8591 11.1582 37.4925 11.6602 38.0986 12.1941C38.2687 12.3462 39.2534 13.4294 39.5398 13.2414C39.8263 13.0534 38.77 11.2899 38.6446 11.102C37.8977 10.0878 37.0117 9.18374 36.0128 8.41644C33.8756 6.81375 31.4414 5.65141 28.8514 4.99686C23.6146 3.56458 17.6707 3.20651 12.5592 5.29227C8.60531 6.87284 5.32139 9.77489 3.2665 13.5044C1.21162 17.2339 0.512779 21.5602 1.28897 25.747C0.945885 23.3743 1.09807 20.9562 1.73591 18.6451C2.37376 16.3341 3.48343 14.1803 4.99499 12.3194C6.58241 10.4297 8.5497 8.89519 10.769 7.8156C12.9883 6.73602 15.41 6.13554 17.8766 6.05317H17.9034Z" fill="#ECCE00"/>
<path id="Vector_4" fill-rule="evenodd" clip-rule="evenodd" d="M63.9507 4.35231C62.4995 2.35596 60.3952 0.930761 58.0029 0.324099C55.6106 -0.282563 53.0813 -0.0323794 50.8543 1.03121C50.1788 1.35615 49.5472 1.76521 48.9744 2.24865C48.7595 2.42769 47.6316 3.45713 47.9449 3.80625C48.2582 4.15537 49.1803 3.49294 49.4309 3.38552C49.9106 3.16591 50.404 2.97754 50.908 2.82156C52.1831 2.42483 53.5114 2.22558 54.8467 2.23075C56.2086 2.25339 57.5523 2.54773 58.799 3.0965C60.0456 3.64527 61.1701 4.43742 62.1066 5.42651C65.741 9.28472 66.0991 15.0317 63.8074 19.6419C63.0175 21.2271 61.9778 22.6748 60.728 23.9298C63.4037 21.5753 65.2807 18.4469 66.0991 14.978C66.5059 13.1553 66.5249 11.2673 66.1547 9.43673C65.7846 7.60615 65.0337 5.87385 63.9507 4.35231C63.2703 3.42132 64.6579 5.3191 63.9507 4.35231Z" fill="#ECCE00"/>
<path id="Vector_5" fill-rule="evenodd" clip-rule="evenodd" d="M77.594 17.1262C79.9483 18.4063 81.3448 21.3604 79.8767 23.8311C79.5745 24.3411 79.1573 24.7734 78.6584 25.0936C78.1595 25.4137 77.5927 25.6129 77.0032 25.6751C76.5296 25.7601 76.0446 25.7601 75.5709 25.6751C75.2397 25.6125 74.9085 25.5319 74.5862 25.4424C74.264 25.3529 73.9596 25.2096 73.7448 25.3976C73.5299 25.5856 73.8701 26.3465 74.0581 26.5882C74.4407 27.0592 74.924 27.4385 75.4724 27.6982C76.5545 28.2092 77.7718 28.3598 78.9457 28.1279C80.1481 27.8431 81.2452 27.2236 82.1101 26.3412C82.9751 25.4588 83.5726 24.3496 83.8334 23.1418C84.1095 21.8504 84.0415 20.5091 83.6362 19.2523C83.2308 17.9954 82.5024 16.8671 81.5238 15.9804C80.5259 15.0917 79.3404 14.4395 78.0556 14.0722C76.7708 13.7048 75.4197 13.6319 74.1028 13.8588C70.6385 14.387 67.8366 16.7502 66.0015 19.6238C64.1664 22.4973 62.7968 26.1854 59.6278 28.0384C63.119 26.3286 64.7751 22.5868 67.3084 19.8475C69.8418 17.1083 74.0223 15.2822 77.594 17.162V17.1262Z" fill="#ECCE00"/>
<path id="Vector_6" fill-rule="evenodd" clip-rule="evenodd" d="M74.5591 10.7797C75.9921 10.3385 77.3591 9.70619 78.6232 8.89981C79.3214 8.38956 80.0286 7.46754 79.0439 6.83196C78.1362 6.3612 77.0836 6.25243 76.0988 6.5276C72.0974 7.36012 69.9668 11.5674 68.6957 15.0586C69.4054 13.9954 70.318 13.0828 71.3812 12.3731C72.3744 11.7192 73.441 11.1844 74.5591 10.7797Z" fill="#ECCE00"/>
<path id="Vector_7" fill-rule="evenodd" clip-rule="evenodd" d="M70.3163 6.51844C70.626 6.02421 70.7962 5.45537 70.8088 4.87225C70.8214 4.28912 70.676 3.71345 70.3879 3.20629C70.2608 3.01665 70.0905 2.85991 69.891 2.74898C69.6915 2.63805 69.4685 2.57611 69.2403 2.56824C69.0122 2.56037 68.7854 2.60682 68.5787 2.70374C68.372 2.80066 68.1913 2.9453 68.0515 3.12573C67.0847 4.11937 67.1563 5.48004 67.3712 6.70643C67.6689 8.01583 67.8516 9.34874 67.9172 10.69C68.6602 8.81904 69.3047 8.23718 70.3163 6.48264V6.51844Z" fill="#ECCE00"/>
</g>
</svg>
