<svg width="28" height="21" viewBox="0 0 28 21" fill="none" xmlns="http://www.w3.org/2000/svg">
<g id="IMAGE" clip-path="url(#clip0_31_1475)">
<path id="Vector" d="M26.8036 12.2247H26.284V11.6355C26.2812 10.3645 24.9883 9.2941 23.2687 9.13927V4.65167C23.2675 3.98946 22.5361 3.45284 21.6335 3.452H5.62671C4.72409 3.45284 3.99267 3.98946 3.99151 4.65167V9.13946C2.2721 9.29429 0.979243 10.3646 0.976469 11.6355V12.2247H0.456904C0.204563 12.2247 0 12.3748 0 12.56V15.1537C0 15.3388 0.204623 15.4888 0.456904 15.4889H1.39682V17.4628C1.39682 17.648 1.60138 17.798 1.85373 17.798H3.98447C4.23675 17.798 4.44123 17.6479 4.44137 17.4628V15.4899H22.5162V17.4628C22.5162 17.648 22.7208 17.798 22.9731 17.798H25.407C25.6593 17.798 25.8639 17.648 25.8639 17.4628V15.4899H26.8038C27.0561 15.4898 27.2607 15.3398 27.2607 15.1547V12.5592C27.2602 12.3743 27.0556 12.2246 26.8036 12.2247ZM4.90532 4.65167C4.90575 4.3595 5.22848 4.12273 5.62671 4.12242H21.6335C22.0317 4.12284 22.3543 4.35954 22.3549 4.65167V9.11916H20.7335V6.42464C20.7335 6.23951 20.529 6.08943 20.2766 6.08943H14.9306C14.6782 6.08943 14.4737 6.23951 14.4737 6.42464V9.11916H12.7865V6.42464C12.7865 6.23951 12.582 6.08943 12.3296 6.08943H6.98358C6.73124 6.08943 6.52668 6.23951 6.52668 6.42464V9.11916H4.90532V4.65167ZM19.8197 9.11916H15.3885V6.75985H19.8197V9.11916ZM11.8727 9.11916H7.44049V6.75985H11.8727V9.11916ZM1.89028 11.6355C1.89186 10.6165 3.01759 9.79064 4.40664 9.78958H22.8541C24.2431 9.79064 25.3689 10.6165 25.3704 11.6355V12.2247H1.89028V11.6355ZM3.52704 17.1267H2.30985V15.4899H3.52678L3.52704 17.1267ZM24.9506 17.1267H23.43V15.4899H24.9501L24.9506 17.1267ZM26.3469 14.8185H0.913547V12.8952H26.3467L26.3469 14.8185Z" fill="#DBC67F"/>
</g>
<defs>
<clipPath id="clip0_31_1475">
<rect width="27.2607" height="20" fill="white" transform="translate(0 0.625)"/>
</clipPath>
</defs>
</svg>
