<svg width="20" height="20" viewBox="0 0 20 20" fill="none" xmlns="http://www.w3.org/2000/svg">
<g id="IMAGE">
<g id="Group">
<path id="Vector" d="M17.0535 9.1874C17.6019 9.1874 18.0481 8.74127 18.0481 8.19291C18.0481 7.92725 17.9446 7.67748 17.7565 7.48932C17.5685 7.30194 17.3188 7.19877 17.0535 7.19877H16.7223V6.88452C16.7223 6.32909 16.2704 5.87718 15.715 5.87718C15.5645 5.87718 15.4218 5.91057 15.2935 5.96995V5.29335C15.2935 4.21612 14.9717 3.17937 14.3629 2.29519C14.2711 2.16195 14.0887 2.12824 13.9554 2.22003C13.8222 2.31179 13.7885 2.49421 13.8802 2.62749C14.4214 3.41351 14.7075 4.33534 14.7075 5.29339V11.0926C14.7075 13.6883 12.5958 15.8 10.0001 15.8C7.40444 15.8 5.29269 13.6883 5.29269 11.0926V5.29335C5.29269 2.69769 7.4044 0.585936 10.0001 0.585936C11.168 0.585936 12.2881 1.01664 13.1541 1.79867C13.2742 1.90714 13.4594 1.89773 13.5679 1.77761C13.6763 1.65754 13.6669 1.47226 13.5468 1.36383C12.573 0.484335 11.3134 0 10.0001 0C7.08136 0 4.70675 2.3746 4.70675 5.29335V5.96995C4.57839 5.91054 4.43566 5.87714 4.28519 5.87714C3.72976 5.87714 3.27785 6.32901 3.27785 6.88448V7.19874H2.94668C2.39828 7.19874 1.95215 7.64471 1.95215 8.19287C1.95215 8.45854 2.05559 8.7083 2.24344 8.89612C2.43125 9.08397 2.68101 9.1874 2.94668 9.1874H3.27785V17.7402C3.02242 17.7681 2.78582 17.8808 2.60176 18.0648C2.3873 18.2788 2.26922 18.5634 2.26922 18.8664C2.26922 19.4914 2.77777 20 3.40281 20H16.5973C16.9 20 17.1846 19.8821 17.3986 19.6681C17.6129 19.4538 17.7309 19.1691 17.7309 18.8664C17.7309 18.2838 17.2888 17.8027 16.7223 17.7402V9.1874H17.0535ZM17.0535 7.78467C17.1627 7.78467 17.2654 7.82713 17.3424 7.90393C17.4196 7.98108 17.4621 8.0837 17.4621 8.19287C17.4621 8.41819 17.2788 8.60143 17.0535 8.60143H16.7223V7.78463L17.0535 7.78467ZM15.2936 6.88448C15.2936 6.65214 15.4826 6.46307 15.7149 6.46307C15.9473 6.46307 16.1363 6.6521 16.1363 6.88448V17.733H15.2936V6.88448ZM3.86379 6.88448C3.86379 6.65214 4.05281 6.46307 4.28519 6.46307C4.51757 6.46307 4.7066 6.6521 4.7066 6.88448V17.733H3.86379V6.88448ZM2.94668 8.60147C2.8375 8.60147 2.73488 8.55897 2.65773 8.48182C2.58058 8.40467 2.53808 8.30205 2.53808 8.19291C2.53808 7.96784 2.72137 7.78471 2.94668 7.78471H3.27785V8.60151L2.94668 8.60147ZM17.145 18.8664C17.145 19.0125 17.0879 19.1501 16.9843 19.2538C16.8809 19.3571 16.7435 19.414 16.5974 19.414H3.40281C3.10086 19.414 2.85515 19.1683 2.85515 18.8664C2.85515 18.7202 2.91211 18.5829 3.01582 18.4794C3.11918 18.376 3.2566 18.3191 3.40281 18.3191H5.84851C6.0103 18.3191 6.14148 18.1879 6.14148 18.0261C6.14148 17.8643 6.0103 17.7332 5.84851 17.7332H5.29249V13.5113C6.17241 15.2169 7.95225 16.3859 10.0001 16.3859C12.0479 16.3859 13.8277 15.217 14.7076 13.5113V17.7332H7.01886C6.85706 17.7332 6.72589 17.8643 6.72589 18.0261C6.72589 18.1879 6.85706 18.3191 7.01886 18.3191H16.5973C16.8993 18.3191 17.145 18.5646 17.145 18.8664Z" fill="#DBC67F"/>
<path id="Vector_2" d="M10.0005 1.17188C7.72785 1.17188 5.87891 3.02082 5.87891 5.29351V11.0924C5.87891 13.3651 7.72785 15.2141 10.0005 15.2141C12.2732 15.2141 14.1222 13.3651 14.1222 11.0924V5.29351C14.1222 3.02082 12.2732 1.17188 10.0005 1.17188ZM13.5363 11.0924C13.5363 13.042 11.9501 14.6281 10.0005 14.6281C9.65933 14.6281 9.32933 14.5794 9.01695 14.4888L10.1319 13.3738C10.2464 13.2594 10.2464 13.0739 10.1319 12.9595C10.0175 12.8451 9.83202 12.8451 9.71761 12.9595L8.42167 14.2554C8.17152 14.1301 7.9382 13.9759 7.72609 13.7972L11.0467 10.4766C11.1612 10.3622 11.1612 10.1767 11.0467 10.0623C10.9323 9.94787 10.7468 9.94787 10.6324 10.0623L7.31047 13.3843C6.78347 12.7666 6.4648 11.9662 6.4648 11.0925V5.29351C6.4648 3.3439 8.05089 1.75781 10.0005 1.75781C10.7353 1.75781 11.4185 1.98324 11.9846 2.36844L10.8223 3.5307C10.7079 3.64511 10.7079 3.83062 10.8223 3.94499C10.8795 4.00218 10.9545 4.03081 11.0295 4.03081C11.1044 4.03081 11.1794 4.00222 11.2367 3.94499L12.4426 2.73902C12.6401 2.92789 12.8156 3.13941 12.9653 3.36925L9.9071 6.42753C9.79269 6.54194 9.79269 6.72745 9.9071 6.84183C9.96429 6.89901 10.0393 6.92765 10.1142 6.92765C10.1892 6.92765 10.2642 6.89905 10.3214 6.84183L13.2539 3.90933C13.4356 4.33468 13.5363 4.80253 13.5363 5.29347V11.0924Z" fill="#DBC67F"/>
</g>
</g>
</svg>
