<svg width="20" height="20" viewBox="0 0 20 20" fill="none" xmlns="http://www.w3.org/2000/svg">
<g id="IMAGE" clip-path="url(#clip0_31_1490)">
<path id="Vector" d="M15.551 0.936005C16.9859 0.937706 18.159 2.0562 18.248 3.4689L18.2535 3.63978V6.04493C18.7414 6.09612 19.1922 6.3295 19.5156 6.69846C19.8451 7.07429 20.0164 7.56018 19.9988 8.05505L19.9832 8.24085L19.1954 14.2219C19.0653 15.183 18.3341 15.9445 17.3936 16.1231L17.2256 16.1485V17.5947C17.2233 18.3652 16.6278 19.0038 15.8593 19.0599C15.1389 19.1125 14.4945 18.6364 14.3227 17.9488L14.2948 17.8086L14.0524 16.1629H5.94772L5.70534 17.8086C5.59122 18.5706 4.90929 19.116 4.14082 19.0599C3.42038 19.0073 2.85196 18.4427 2.78186 17.7375L2.77459 17.5947V16.1485C1.81123 16.0399 1.0338 15.3264 0.833789 14.3906L0.804566 14.2232L0.016686 8.24085C0.00573902 8.15572 0 8.06998 0 7.98414C0.00101442 7.03845 0.677735 6.2378 1.59307 6.06722L1.74776 6.04471V3.63978C1.74877 2.20519 2.86623 1.03171 4.27855 0.941568L4.4494 0.936005H15.551ZM5.19192 16.1642H3.52332V17.5951C3.52392 17.9744 3.81683 18.2891 4.19511 18.3168C4.53899 18.342 4.84767 18.1223 4.94295 17.8003L4.96495 17.7008L5.19192 16.1642ZM16.4777 16.1642H14.8091L15.0356 17.7008C15.0915 18.0759 15.4272 18.3445 15.8055 18.3168C16.1493 18.2916 16.4227 18.0292 16.47 17.6968L16.4772 17.5951L16.4777 16.1642ZM18.0504 6.78275C18.0125 6.78198 17.9746 6.78427 17.9371 6.78959C17.6844 6.81369 17.4456 6.91633 17.2542 7.0831C17.0722 7.24359 16.9439 7.45456 16.8845 7.68751L16.8572 7.82969L16.3117 11.9618C16.2397 12.504 15.8058 12.9191 15.2726 12.9767L15.1479 12.9835H4.85307C4.30646 12.9823 3.83882 12.6061 3.71251 12.0852L3.68954 11.9625L3.14232 7.82948C3.07078 7.28005 2.63216 6.85116 2.08126 6.79195C2.03759 6.78528 1.99345 6.7822 1.94927 6.78275C1.60272 6.78299 1.27313 6.9328 1.04507 7.19373C0.845513 7.42205 0.740674 7.716 0.748488 8.01602L0.758787 8.1448L1.54688 14.1246C1.64047 14.8166 2.19942 15.3442 2.88262 15.4088L3.02081 15.4154H16.9802C17.6784 15.4139 18.2752 14.9294 18.4293 14.2607L18.4541 14.1246L19.2418 8.14352C19.2875 7.80012 19.1828 7.45371 18.9546 7.19306C18.7264 6.93241 18.3969 6.78287 18.0504 6.78275ZM13.0269 9.90686H6.877C5.85523 9.90469 4.92643 10.4806 4.47025 11.3829L4.39035 11.5558L4.43121 11.8654C4.45569 12.0502 4.59653 12.1942 4.7741 12.2275L4.85221 12.2348H15.1479C15.3344 12.2346 15.4955 12.1138 15.5517 11.9421L15.5691 11.8656L15.585 11.7434C15.2375 10.7011 14.2934 9.98155 13.2089 9.91233L13.0269 9.90686ZM15.552 1.68474H4.4494C3.42021 1.6871 2.57804 2.4839 2.503 3.49408L2.49756 3.63978V6.11103C3.1918 6.31217 3.71314 6.87952 3.86056 7.57868L3.88635 7.73043L4.2374 10.3895C4.30115 10.3138 4.36639 10.2389 4.43699 10.1683C5.03304 9.56902 5.82754 9.21285 6.66644 9.16361L6.877 9.15773H13.0286C14.0227 9.15469 14.9656 9.58266 15.6172 10.3244L15.7523 10.4881L16.1159 7.73086C16.2075 7.01419 16.6896 6.41288 17.3588 6.16349L17.5049 6.11552V3.63978C17.5044 2.61015 16.7083 1.76644 15.6978 1.69033L15.552 1.68474ZM6.78823 5.21168C6.98674 5.12947 7.21522 5.17496 7.36712 5.32692C7.51902 5.47887 7.56441 5.70738 7.48213 5.90585C7.39984 6.10433 7.20609 6.23369 6.99124 6.23361C6.69796 6.23349 6.46028 5.99571 6.46028 5.70244C6.46028 5.48758 6.58972 5.29388 6.78823 5.21168ZM13.1975 5.16535C13.4909 5.17122 13.7239 5.41379 13.7181 5.70715C13.7122 6.00051 13.4696 6.23357 13.1763 6.2277C12.8829 6.22183 12.6499 5.97926 12.6557 5.6859C12.6616 5.39254 12.9042 5.15949 13.1975 5.16535Z" fill="#DBC67F"/>
</g>
<defs>
<clipPath id="clip0_31_1490">
<rect width="20" height="20" fill="white"/>
</clipPath>
</defs>
</svg>
