<svg width="20" height="20" viewBox="0 0 20 20" fill="none" xmlns="http://www.w3.org/2000/svg">
<g id="IMAGE" clip-path="url(#clip0_31_1480)">
<path id="Vector" d="M19.6774 9.35526H0.322581C0.144424 9.35526 0 9.49968 0 9.67784V10.6456C0 10.8237 0.144424 10.9682 0.322581 10.9682H0.645161V19.3553C0.645161 19.5334 0.789586 19.6778 0.967742 19.6778H19.0323C19.2104 19.6778 19.3548 19.5334 19.3548 19.3553V10.9682H19.6774C19.8556 10.9682 20 10.8237 20 10.6456V9.67784C20 9.49968 19.8556 9.35526 19.6774 9.35526ZM5.48387 19.0327H2.90323V18.5488C2.90323 18.4597 2.97544 18.3875 3.06452 18.3875H5.32258C5.41166 18.3875 5.48387 18.4597 5.48387 18.5488V19.0327ZM2.25806 13.2262V12.5811H6.12903V13.2262H2.25806ZM4.51613 13.8714V17.7424H3.87097V13.8714H4.51613ZM11.2903 19.0327H8.70968V18.5488C8.70968 18.4597 8.78189 18.3875 8.87097 18.3875H11.129C11.2181 18.3875 11.2903 18.4597 11.2903 18.5488V19.0327ZM8.06452 13.2262V12.5811H11.9355V13.2262H8.06452ZM10.3226 13.8714V17.7424H9.67742V13.8714H10.3226ZM17.0968 19.0327H14.5161V18.5488C14.5161 18.4597 14.5883 18.3875 14.6774 18.3875H16.9355C17.0246 18.3875 17.0968 18.4597 17.0968 18.5488V19.0327ZM13.871 13.2262V12.5811H17.7419V13.2262H13.871ZM16.129 13.8714V17.7424H15.4839V13.8714H16.129ZM18.7097 19.0327H17.7419V18.5488C17.7415 18.1036 17.3807 17.7428 16.9355 17.7424H16.7742V13.8714H18.0645C18.2427 13.8714 18.3871 13.727 18.3871 13.5488V12.2585C18.3871 12.0803 18.2427 11.9359 18.0645 11.9359H13.5484C13.3702 11.9359 13.2258 12.0803 13.2258 12.2585V13.5488C13.2258 13.727 13.3702 13.8714 13.5484 13.8714H14.8387V17.7424H14.6774C14.2322 17.7428 13.8714 18.1036 13.871 18.5488V19.0327H11.9355V18.5488C11.935 18.1036 11.5742 17.7428 11.129 17.7424H10.9677V13.8714H12.2581C12.4362 13.8714 12.5806 13.727 12.5806 13.5488V12.2585C12.5806 12.0803 12.4362 11.9359 12.2581 11.9359H7.74194C7.56378 11.9359 7.41935 12.0803 7.41935 12.2585V13.5488C7.41935 13.727 7.56378 13.8714 7.74194 13.8714H9.03226V17.7424H8.87097C8.42576 17.7428 8.06496 18.1036 8.06452 18.5488V19.0327H6.12903V18.5488C6.12859 18.1036 5.76779 17.7428 5.32258 17.7424H5.16129V13.8714H6.45161C6.62977 13.8714 6.77419 13.727 6.77419 13.5488V12.2585C6.77419 12.0803 6.62977 11.9359 6.45161 11.9359H1.93548C1.75733 11.9359 1.6129 12.0803 1.6129 12.2585V13.5488C1.6129 13.727 1.75733 13.8714 1.93548 13.8714H3.22581V17.7424H3.06452C2.61931 17.7428 2.25851 18.1036 2.25806 18.5488V19.0327H1.29032V10.9682H18.7097V19.0327ZM19.3548 10.323H0.645161V10.0004H19.3548V10.323ZM19.6774 0.322998H0.322581C0.144424 0.322998 0 0.467422 0 0.645579V1.61332C0 1.79148 0.144424 1.9359 0.322581 1.9359H3.87097V3.2536C2.94044 3.41205 2.25936 4.21779 2.25806 5.16171V5.48429C2.25806 5.66244 2.40249 5.80687 2.58065 5.80687H5.80645C5.98461 5.80687 6.12903 5.66244 6.12903 5.48429V5.16171C6.12774 4.21779 5.44666 3.41205 4.51613 3.2536V1.9359H9.67742V3.2536C8.74689 3.41205 8.06581 4.21779 8.06452 5.16171V5.48429C8.06452 5.66244 8.20894 5.80687 8.3871 5.80687H11.6129C11.7911 5.80687 11.9355 5.66244 11.9355 5.48429V5.16171C11.9342 4.21779 11.2531 3.41205 10.3226 3.2536V1.9359H15.4839V3.2536C14.5533 3.41205 13.8723 4.21779 13.871 5.16171V5.48429C13.871 5.66244 14.0154 5.80687 14.1935 5.80687H17.4194C17.5975 5.80687 17.7419 5.66244 17.7419 5.48429V5.16171C17.7406 4.21779 17.0596 3.41205 16.129 3.2536V1.9359H19.6774C19.8556 1.9359 20 1.79148 20 1.61332V0.645579C20 0.467422 19.8556 0.322998 19.6774 0.322998ZM5.48387 5.16171H2.90323C2.90323 4.44908 3.48092 3.87139 4.19355 3.87139C4.90617 3.87139 5.48387 4.44908 5.48387 5.16171ZM11.2903 5.16171H8.70968C8.70968 4.44908 9.28737 3.87139 10 3.87139C10.7126 3.87139 11.2903 4.44908 11.2903 5.16171ZM17.0968 5.16171H14.5161C14.5161 4.44908 15.0938 3.87139 15.8065 3.87139C16.5191 3.87139 17.0968 4.44908 17.0968 5.16171ZM19.3548 1.29074H0.645161V0.968159H19.3548V1.29074Z" fill="#DBC67F"/>
</g>
<defs>
<clipPath id="clip0_31_1480">
<rect width="20" height="20" fill="white"/>
</clipPath>
</defs>
</svg>
