<svg width="20" height="20" viewBox="0 0 20 20" fill="none" xmlns="http://www.w3.org/2000/svg">
<g id="IMAGE" clip-path="url(#clip0_31_1494)">
<g id="Group">
<path id="Vector" d="M2.46419 18.125H6.37461C6.48967 18.125 6.58294 18.0317 6.58294 17.9167V14.95C6.58294 14.8349 6.48967 14.7417 6.37461 14.7417H2.46419C2.34913 14.7417 2.25586 14.8349 2.25586 14.95V17.9167C2.25586 18.0317 2.34913 18.125 2.46419 18.125ZM2.67253 15.1542H6.16628V17.7083H2.67253V15.1542ZM11.9496 14.7417H8.04127C7.92622 14.7417 7.83294 14.8349 7.83294 14.95V17.9167C7.83294 18.0317 7.92622 18.125 8.04127 18.125H11.9496C12.0647 18.125 12.1579 18.0317 12.1579 17.9167V14.95C12.1579 14.8349 12.0647 14.7417 11.9496 14.7417ZM11.7413 17.7083H8.24961V15.1583H11.7413V17.7083ZM11.9496 5.46875H8.04127C7.92622 5.46875 7.83294 5.56202 7.83294 5.67708V8.64792C7.83294 8.76297 7.92622 8.85625 8.04127 8.85625H11.9496C12.0647 8.85625 12.1579 8.76297 12.1579 8.64792V5.67708C12.1579 5.56202 12.0647 5.46875 11.9496 5.46875ZM11.7413 8.43958H8.24961V5.88542H11.7413V8.43958ZM12.1579 13.2833V10.3146C12.1579 10.1995 12.0647 10.1062 11.9496 10.1062H5.25169C5.13663 10.1062 5.04336 10.1995 5.04336 10.3146V13.2833C5.04336 13.3984 5.13663 13.4917 5.25169 13.4917H11.9496C12.0647 13.4917 12.1579 13.3984 12.1579 13.2833ZM11.7413 13.075H5.46003V10.5229H11.7413V13.075ZM13.6163 18.125H17.5267C17.6417 18.125 17.735 18.0317 17.735 17.9167V14.95C17.735 14.8349 17.6417 14.7417 17.5267 14.7417H13.6163C13.5012 14.7417 13.4079 14.8349 13.4079 14.95V17.9167C13.4079 18.0317 13.5012 18.125 13.6163 18.125ZM13.8246 15.1542H17.3184V17.7083H13.8246V15.1542Z" fill="#DBC67F"/>
<path id="Vector_2" d="M18.5687 0.658333C18.5687 0.295558 18.2752 0.00114802 17.9124 0H13.2333C12.8702 0.00114367 12.5761 0.295221 12.5749 0.658333V4.39583C12.576 4.51424 12.6091 4.63014 12.6708 4.73125C12.5697 4.66963 12.4538 4.63651 12.3353 4.63542H10.7395C10.8961 4.44428 10.9829 4.20543 10.9853 3.95833V3.20417C10.9853 3.08911 10.8921 2.99583 10.777 2.99583H10.0916V0.833333C10.0916 0.718274 9.99832 0.625 9.88327 0.625C9.76821 0.625 9.67493 0.718274 9.67493 0.833333V1.12083C9.39539 0.892985 9.03494 0.78914 8.67702 0.833333C8.56196 0.833333 8.46868 0.926607 8.46868 1.04167V1.26667C8.46868 1.92365 9.00128 2.45625 9.65827 2.45625C9.68327 2.45625 9.67493 2.37917 9.67493 2.99583H8.98952C8.87446 2.99583 8.78118 3.08911 8.78118 3.20417V3.95833C8.78176 4.2083 8.86859 4.4504 9.02702 4.64375H7.65618C7.29341 4.6449 6.99993 4.93931 6.99993 5.30208C6.99993 9.3625 6.9791 9.11041 7.04577 9.28125H4.86868C4.50557 9.28239 4.21149 9.57647 4.21035 9.93958C4.21035 14 4.18952 13.7479 4.25827 13.9167H2.0791C1.71633 13.9178 1.42285 14.2122 1.42285 14.575V18.3042C1.42477 18.483 1.5001 18.6533 1.63118 18.775C1.43194 18.9842 1.3759 19.2917 1.48855 19.5577C1.60121 19.8238 1.86105 19.9975 2.14993 20H17.8416C18.132 20.0008 18.3949 19.8283 18.5097 19.5615C18.6244 19.2948 18.569 18.9853 18.3687 18.775C18.4998 18.6533 18.5751 18.483 18.577 18.3042V14.5667C18.5764 14.3994 18.5124 14.2386 18.3978 14.1167C18.5126 13.9958 18.5767 13.8355 18.577 13.6687V5.29375C18.5764 5.12647 18.5124 4.96564 18.3978 4.84375C18.5126 4.72284 18.5767 4.56255 18.577 4.39583L18.5687 0.658333ZM9.65827 2.03958C9.45036 2.03963 9.25119 1.95592 9.10575 1.80734C8.96031 1.65877 8.88087 1.45786 8.88535 1.25C9.09321 1.24552 9.29412 1.32496 9.44269 1.4704C9.59126 1.61584 9.67498 1.81501 9.67493 2.02292C9.67493 2.04375 9.6791 2.03958 9.65827 2.03958ZM12.9916 0.658333C12.9916 0.524864 13.0998 0.416667 13.2333 0.416667H17.9124C18.0451 0.41781 18.152 0.525674 18.152 0.658333V4.39583C18.152 4.52815 18.0447 4.63542 17.9124 4.63542H13.2333C13.1694 4.63597 13.1079 4.61097 13.0625 4.56598C13.0171 4.52099 12.9916 4.45974 12.9916 4.39583V0.658333ZM18.152 5.29375V13.6687C18.152 13.7323 18.1268 13.7932 18.0818 13.8382C18.0369 13.8831 17.976 13.9083 17.9124 13.9083H13.2333C13.1694 13.9089 13.1079 13.8839 13.0625 13.8389C13.0171 13.7939 12.9916 13.7326 12.9916 13.6687V5.29375C12.9916 5.22965 13.0171 5.16819 13.0624 5.12286C13.1077 5.07754 13.1692 5.05208 13.2333 5.05208H17.9124C18.0451 5.05323 18.152 5.16109 18.152 5.29375ZM18.152 14.5667V18.3042C18.1498 18.4352 18.0435 18.5406 17.9124 18.5417H12.9916V14.5667C12.9916 14.4332 13.0998 14.325 13.2333 14.325H17.9124C18.0451 14.3261 18.152 14.434 18.152 14.5667ZM7.41659 18.5417V14.5667C7.41604 14.5028 7.44104 14.4413 7.48603 14.3959C7.53102 14.3505 7.59228 14.325 7.65618 14.325H12.3353C12.3993 14.325 12.4605 14.3505 12.5055 14.3959C12.5505 14.4413 12.5755 14.5028 12.5749 14.5667V18.5417H7.41659ZM9.19785 3.95833V3.4125H10.5687V3.95833C10.5687 4.33688 10.2618 4.64375 9.88327 4.64375C9.50472 4.64375 9.19785 4.33688 9.19785 3.95833ZM7.41659 9.03125V5.29375C7.41604 5.22985 7.44104 5.16837 7.48603 5.12299C7.53102 5.07761 7.59228 5.05208 7.65618 5.05208H12.3353C12.3993 5.05208 12.4605 5.07761 12.5055 5.12299C12.5505 5.16837 12.5755 5.22985 12.5749 5.29375V9.03125C12.5755 9.09515 12.5505 9.15662 12.5055 9.20201C12.4605 9.24739 12.3993 9.27291 12.3353 9.27291H7.65618C7.59228 9.27291 7.53102 9.24739 7.48603 9.20201C7.44104 9.15662 7.41604 9.09515 7.41659 9.03125ZM4.62702 13.6687V9.93125C4.62702 9.79778 4.73521 9.68958 4.86868 9.68958H12.3353C12.3993 9.68958 12.4605 9.71511 12.5055 9.76049C12.5505 9.80587 12.5755 9.86734 12.5749 9.93125V13.6687C12.5755 13.7325 12.5504 13.7937 12.5054 13.8388C12.4603 13.8838 12.3991 13.9089 12.3353 13.9083H4.86868C4.80478 13.9089 4.74331 13.8839 4.69792 13.8389C4.65254 13.7939 4.62702 13.7326 4.62702 13.6687ZM1.83952 14.5667C1.83952 14.434 1.94645 14.3261 2.0791 14.325H6.75827C6.89174 14.325 6.99993 14.4332 6.99993 14.5667V18.5417H2.0791C1.94645 18.5405 1.83952 18.4327 1.83952 18.3V14.5667ZM17.8416 19.5833H2.14993C1.97735 19.5833 1.83743 19.4434 1.83743 19.2708C1.83743 19.0982 1.97735 18.9583 2.14993 18.9583H17.8416C18.0142 18.9583 18.1541 19.0982 18.1541 19.2708C18.1541 19.4434 18.0142 19.5833 17.8416 19.5833Z" fill="#DBC67F"/>
<path id="Vector_3" d="M13.6169 4.21867H17.5273C17.6424 4.21867 17.7357 4.12539 17.7357 4.01033V1.04159C17.7357 0.926526 17.6424 0.833252 17.5273 0.833252H13.6169C13.5019 0.833252 13.4086 0.926526 13.4086 1.04159V4.01033C13.4086 4.12539 13.5019 4.21867 13.6169 4.21867ZM13.8253 1.24992H17.319V3.802H13.8253V1.24992ZM13.6169 13.4916H17.5273C17.6424 13.4916 17.7357 13.3983 17.7357 13.2832V5.677C17.7357 5.56194 17.6424 5.46867 17.5273 5.46867H13.6169C13.5019 5.46867 13.4086 5.56194 13.4086 5.677V13.2832C13.4086 13.3385 13.4305 13.3915 13.4696 13.4306C13.5087 13.4696 13.5617 13.4916 13.6169 13.4916ZM13.8253 5.88533H17.319V13.0749H13.8253V5.88533ZM4.82318 15.7291H4.01693C3.90187 15.7291 3.80859 15.8224 3.80859 15.9374C3.80859 16.0525 3.90187 16.1457 4.01693 16.1457H4.82318C4.93824 16.1457 5.03151 16.0525 5.03151 15.9374C5.03151 15.8224 4.93824 15.7291 4.82318 15.7291ZM9.59401 16.1457H10.3982C10.5132 16.1457 10.6065 16.0525 10.6065 15.9374C10.6065 15.8224 10.5132 15.7291 10.3982 15.7291H9.59401C9.47895 15.7291 9.38568 15.8224 9.38568 15.9374C9.38568 16.0525 9.47895 16.1457 9.59401 16.1457ZM9.59401 6.91033H10.3982C10.5132 6.91033 10.6065 6.81706 10.6065 6.702C10.6065 6.58694 10.5132 6.49367 10.3982 6.49367H9.59401C9.47895 6.49367 9.38568 6.58694 9.38568 6.702C9.38568 6.81706 9.47895 6.91033 9.59401 6.91033ZM7.79401 11.602H9.41068C9.52573 11.602 9.61901 11.5087 9.61901 11.3937C9.61901 11.2786 9.52573 11.1853 9.41068 11.1853H7.79401C7.67895 11.1853 7.58568 11.2786 7.58568 11.3937C7.58568 11.5087 7.67895 11.602 7.79401 11.602ZM15.9753 15.7291H15.169C15.0539 15.7291 14.9607 15.8224 14.9607 15.9374C14.9607 16.0525 15.0539 16.1457 15.169 16.1457H15.9753C16.0903 16.1457 16.1836 16.0525 16.1836 15.9374C16.1836 15.8224 16.0903 15.7291 15.9753 15.7291Z" fill="#DBC67F"/>
<path id="Vector_4" d="M15.9745 1.927H15.1682C15.0532 1.927 14.9599 2.02028 14.9599 2.13534C14.9599 2.25039 15.0532 2.34367 15.1682 2.34367H15.9745C16.0895 2.34367 16.1828 2.25039 16.1828 2.13534C16.1828 2.02028 16.0895 1.927 15.9745 1.927ZM14.7161 8.87075C14.6011 8.87075 14.5078 8.96402 14.5078 9.07908V9.88325C14.5078 9.99831 14.6011 10.0916 14.7161 10.0916C14.8312 10.0916 14.9245 9.99831 14.9245 9.88325V9.07908C14.9245 8.96402 14.8312 8.87075 14.7161 8.87075Z" fill="#DBC67F"/>
</g>
</g>
<defs>
<clipPath id="clip0_31_1494">
<rect width="20" height="20" fill="white"/>
</clipPath>
</defs>
</svg>
