<svg width="20" height="20" viewBox="0 0 20 20" fill="none" xmlns="http://www.w3.org/2000/svg">
<g id="IMAGE">
<g id="Group">
<path id="Vector" d="M9.1835 4.66949C9.29795 4.78391 9.48342 4.78387 9.59779 4.66949L10.816 3.45129C10.9304 3.33684 10.9304 3.15137 10.816 3.03695C10.7016 2.92258 10.5161 2.92258 10.4017 3.03695L9.1835 4.25516C9.06904 4.36957 9.06904 4.55504 9.1835 4.66949Z" fill="#DBC67F"/>
<path id="Vector_2" d="M18.5212 3.63281C18.683 3.63281 18.8142 3.50168 18.8142 3.33984V1.75758C18.8142 0.788477 18.0257 0 17.0566 0H2.94219C1.97305 0 1.18457 0.788477 1.18457 1.75758V6.44332C1.18457 7.11254 1.70785 7.66156 2.36668 7.70344V16.9665C1.69406 17.0972 1.18457 17.6904 1.18457 18.4007V19.2329C1.18457 19.6559 1.52871 20 1.95168 20H18.047C18.47 20 18.8142 19.6559 18.8142 19.2329V18.4007C18.8142 17.6904 18.3047 17.0971 17.632 16.9665V7.70344C18.2909 7.66156 18.8142 7.11254 18.8142 6.44332V4.71535C18.8142 4.55352 18.683 4.42238 18.5212 4.42238C18.3594 4.42238 18.2282 4.55352 18.2282 4.71535V6.44332C18.2282 6.81664 17.9245 7.12035 17.5512 7.12035H2.44754C2.07422 7.12035 1.77051 6.81664 1.77051 6.44332V1.75758C1.77051 1.11152 2.29613 0.585938 2.94219 0.585938H17.0566C17.7026 0.585938 18.2282 1.11152 18.2282 1.75758V3.33984C18.2282 3.50168 18.3594 3.63281 18.5212 3.63281ZM9.36504 9.6198H10.6337V10.1739C10.6337 10.1953 10.6163 10.2127 10.5948 10.2127H9.40387C9.38246 10.2127 9.36504 10.1953 9.36504 10.1739V9.6198ZM8.67348 9.03387C8.42766 9.03387 8.22762 8.83387 8.22762 8.58805V7.70633H11.7711V8.58805C11.7711 8.83387 11.5711 9.03387 11.3253 9.03387H8.67348ZM8.67348 9.6198H8.77914V10.1739C8.77914 10.5184 9.05941 10.7987 9.40391 10.7987H10.5949C10.9394 10.7987 11.2197 10.5184 11.2197 10.1739V9.6198H11.3254C11.8943 9.6198 12.3571 9.15695 12.3571 8.58805V7.70629H17.0462V16.9395H12.4573L12.5471 16.3482H13.2627C13.625 16.3482 13.9415 16.1032 14.0325 15.7525L14.33 14.6048C14.3923 14.3648 14.3409 14.1147 14.1892 13.9186C14.0375 13.7226 13.8083 13.6101 13.5603 13.6101H12.9629L13.0279 13.1827C13.1294 12.5141 12.6112 11.9123 11.9358 11.9123H8.06305C7.38672 11.9123 6.86957 12.515 6.97098 13.1827L7.08703 13.9471L7.54148 16.9395H2.95262V7.70629H7.64168V8.58801C7.64168 9.15695 8.10453 9.6198 8.67348 9.6198ZM8.1341 16.9394L7.71746 14.196H8.19195C8.35375 14.196 8.48492 14.0649 8.48492 13.903C8.48492 13.7412 8.35375 13.6101 8.19195 13.6101H7.62848L7.55023 13.0947C7.50254 12.7807 7.74586 12.4982 8.06301 12.4982H11.9357C12.2534 12.4982 12.4961 12.7812 12.4485 13.0947L12.3703 13.6101C11.3345 13.6101 10.1516 13.6101 9.56164 13.6101C9.39984 13.6101 9.26867 13.7412 9.26867 13.903C9.26867 14.0649 9.39984 14.196 9.56164 14.196H12.2813L11.8647 16.9394H8.1341ZM12.8739 14.196H13.5603C13.6496 14.196 13.7023 14.2469 13.7257 14.2772C13.7492 14.3075 13.7852 14.3713 13.7628 14.4578L13.4652 15.6055C13.4413 15.6977 13.358 15.7622 13.2627 15.7622H12.6361L12.8739 14.196ZM18.2282 18.4007V19.2329C18.2282 19.3329 18.147 19.4141 18.0471 19.4141H1.95168C1.85176 19.4141 1.77051 19.3329 1.77051 19.2329V18.4007C1.77051 17.9181 2.16316 17.5254 2.64582 17.5254H17.3529C17.8355 17.5254 18.2282 17.918 18.2282 18.4007Z" fill="#DBC67F"/>
<path id="Vector_3" d="M7.6416 3.85316C7.6416 5.1532 8.69926 6.21085 9.9993 6.21085C11.2993 6.21085 12.357 5.1532 12.357 3.85316C12.357 2.55312 11.2993 1.49542 9.9993 1.49542C8.69926 1.49542 7.6416 2.55308 7.6416 3.85316ZM11.7711 3.85316C11.7711 4.83011 10.9763 5.62491 9.9993 5.62491C9.02234 5.62491 8.22754 4.83007 8.22754 3.85316C8.22754 2.87624 9.02234 2.08136 9.9993 2.08136C10.9763 2.08136 11.7711 2.8762 11.7711 3.85316ZM3.44687 2.69796C3.06586 2.69796 2.75586 3.008 2.75586 3.38902V4.31726C2.75586 4.69831 3.06586 5.00827 3.44687 5.00827H5.91953C6.30059 5.00827 6.61059 4.69827 6.61059 4.31726V3.38906C6.61059 3.008 6.30059 2.698 5.91953 2.698L3.44687 2.69796ZM6.02465 3.38906V4.3173C6.02465 4.37523 5.9775 4.42238 5.91953 4.42238H3.44687C3.38895 4.42238 3.3418 4.37523 3.3418 4.3173V3.38906C3.3418 3.33109 3.38895 3.28394 3.44687 3.28394H5.91953C5.9775 3.2839 6.02465 3.33105 6.02465 3.38906ZM16.5517 2.69796H14.0791C13.698 2.69796 13.388 3.008 13.388 3.38902V4.31726C13.388 4.69831 13.698 5.00827 14.0791 5.00827H16.5517C16.9327 5.00827 17.2427 4.69827 17.2427 4.31726V3.38906C17.2428 3.008 16.9328 2.69796 16.5517 2.69796ZM16.6568 4.31726C16.6568 4.37519 16.6097 4.42234 16.5518 4.42234H14.0791C14.0211 4.42234 13.974 4.37519 13.974 4.31726V3.38906C13.974 3.33109 14.0211 3.28394 14.0791 3.28394H16.5518C16.6097 3.28394 16.6568 3.33109 16.6568 3.38906V4.31726Z" fill="#DBC67F"/>
</g>
</g>
</svg>
