<svg width="20" height="20" viewBox="0 0 20 20" fill="none" xmlns="http://www.w3.org/2000/svg">
<g id="IMAGE" clip-path="url(#clip0_31_1537)">
<g id="Group">
<path id="Vector" d="M18.6021 0H1.39785C0.613984 0 0 0.613984 0 1.39785V18.6021C0 19.386 0.613984 20 1.39785 20H18.6021C19.386 20 20 19.386 20 18.6021V1.39785C20 0.613984 19.386 0 18.6021 0ZM19.3548 18.6021C19.3548 19.0243 19.0243 19.3548 18.6021 19.3548H1.39785C0.975899 19.3548 0.645156 19.0243 0.645156 18.6021V1.39785C0.645156 0.975899 0.975899 0.645156 1.39785 0.645156H18.6021C19.0243 0.645156 19.3548 0.975899 19.3548 1.39785V18.6021Z" fill="#DBC67F"/>
<path id="Vector_2" d="M5.69879 2.15057C3.74223 2.15057 2.15039 3.74241 2.15039 5.69897C2.15039 7.65553 3.74223 9.24737 5.69879 9.24737C7.65535 9.24737 9.24719 7.65553 9.24719 5.69897C9.24719 3.74241 7.65535 2.15057 5.69879 2.15057ZM5.69879 8.60217C4.09793 8.60217 2.79555 7.29979 2.79555 5.69893C2.79555 4.09807 4.09793 2.79569 5.69879 2.79569C7.29965 2.79569 8.60203 4.09807 8.60203 5.69893C8.60203 7.29983 7.29969 8.60217 5.69879 8.60217ZM14.301 10.7527C12.9373 10.7527 11.8279 11.8622 11.8279 13.2258C11.8279 14.5895 12.9373 15.699 14.301 15.699C15.6646 15.699 16.7741 14.5895 16.7741 13.2258C16.7741 11.8622 15.6646 10.7527 14.301 10.7527ZM14.301 15.0538C13.293 15.0538 12.473 14.2338 12.473 13.2258C12.473 12.2178 13.293 11.3978 14.301 11.3978C15.3089 11.3978 16.1289 12.2178 16.1289 13.2258C16.1289 14.2338 15.3089 15.0538 14.301 15.0538ZM5.69879 10.7527C4.33512 10.7527 3.22566 11.8622 3.22566 13.2258C3.22566 14.5895 4.33512 15.699 5.69879 15.699C7.06246 15.699 8.17191 14.5895 8.17191 13.2258C8.17191 11.8622 7.06246 10.7527 5.69879 10.7527ZM5.69879 15.0538C4.69082 15.0538 3.87082 14.2338 3.87082 13.2258C3.87082 12.2178 4.69082 11.3978 5.69879 11.3978C6.70676 11.3978 7.52676 12.2178 7.52676 13.2258C7.52676 14.2338 6.70676 15.0538 5.69879 15.0538ZM14.301 2.15057C12.3444 2.15057 10.7526 3.74241 10.7526 5.69897C10.7526 7.65553 12.3444 9.24737 14.301 9.24737C16.2575 9.24737 17.8494 7.65553 17.8494 5.69897C17.8494 3.74241 16.2575 2.15057 14.301 2.15057ZM14.301 8.60217C12.7001 8.60217 11.3977 7.29979 11.3977 5.69893C11.3977 4.09807 12.7001 2.79569 14.301 2.79569C15.9018 2.79569 17.2042 4.09807 17.2042 5.69893C17.2042 7.29983 15.9018 8.60217 14.301 8.60217ZM6.78031 17.2043C4.47449 17.1587 4.47363 17.1585 4.35086 17.3532C4.29043 17.4489 4.28441 17.5701 4.33496 17.6712C4.39152 17.7841 4.50551 17.8495 4.62379 17.8495C4.65305 17.8495 4.6827 17.8454 4.71176 17.8372C4.91586 17.8235 5.89305 17.8323 6.76766 17.8495C6.94594 17.8538 7.09305 17.7114 7.09648 17.5332C7.09988 17.3551 6.95836 17.208 6.78031 17.2043ZM12.7311 17.2043H12.688C12.51 17.2043 12.3655 17.3489 12.3655 17.5269C12.3655 17.7049 12.51 17.8495 12.688 17.8495H12.7311C12.9091 17.8495 13.0536 17.7049 13.0536 17.5269C13.0536 17.3489 12.9091 17.2043 12.7311 17.2043ZM13.8063 17.2043H13.7633C13.5853 17.2043 13.4407 17.3489 13.4407 17.5269C13.4407 17.7049 13.5853 17.8495 13.7633 17.8495H13.8063C13.9844 17.8495 14.1289 17.7049 14.1289 17.5269C14.1289 17.3489 13.9844 17.2043 13.8063 17.2043ZM14.8816 17.2043H14.8386C14.6605 17.2043 14.516 17.3489 14.516 17.5269C14.516 17.7049 14.6605 17.8495 14.8386 17.8495H14.8816C15.0596 17.8495 15.2042 17.7049 15.2042 17.5269C15.2042 17.3489 15.0597 17.2043 14.8816 17.2043ZM15.9569 17.2043H15.9139C15.7358 17.2043 15.5913 17.3489 15.5913 17.5269C15.5913 17.7049 15.7358 17.8495 15.9139 17.8495H15.9569C16.1349 17.8495 16.2795 17.7049 16.2795 17.5269C16.2795 17.3489 16.1349 17.2043 15.9569 17.2043Z" fill="#DBC67F"/>
</g>
</g>
<defs>
<clipPath id="clip0_31_1537">
<rect width="20" height="20" fill="white"/>
</clipPath>
</defs>
</svg>
