<svg width="20" height="20" viewBox="0 0 20 20" fill="none" xmlns="http://www.w3.org/2000/svg">
<g id="IMAGE">
<g id="Group">
<path id="Vector" d="M18.1697 9.46217C18.1078 9.31263 17.9364 9.24168 17.7869 9.30363C17.6373 9.36543 17.5664 9.53694 17.6283 9.68648L19.1548 13.3707C19.1826 13.4376 19.1609 13.4929 19.1455 13.5198C19.1302 13.5467 19.0942 13.5929 19.0233 13.603C18.3919 13.6933 17.7872 13.8869 17.2261 14.1784C16.6392 14.4832 16.1154 14.8865 15.6671 15.3785H10.4379C10.2762 15.3785 10.1449 15.5095 10.1449 15.6714C10.1449 15.8333 10.2762 15.9646 10.4379 15.9646H15.4434C15.3398 16.1822 15.1176 16.3331 14.861 16.3331H1.23089C0.974236 16.3331 0.75222 16.1822 0.648613 15.9646H9.1876C9.3495 15.9646 9.48072 15.8333 9.48072 15.6714C9.48072 15.5095 9.3495 15.3785 9.1876 15.3785H0.795402L1.85574 13.5021C1.9862 13.5129 2.11621 13.5189 2.2453 13.5189C2.50271 13.5189 2.75677 13.4974 3.00503 13.4543C3.65353 13.3422 4.17416 13.104 4.64383 12.705C4.76712 12.6001 4.78207 12.4152 4.67725 12.2919C4.57242 12.1685 4.38763 12.1535 4.26419 12.2583C3.87784 12.5867 3.44601 12.7833 2.90509 12.8769C2.66827 12.918 2.42504 12.9365 2.1777 12.9323L2.26193 12.7833C4.11145 9.51008 7.44901 7.33875 11.1897 6.97483L15.1674 6.58817C15.493 6.55659 15.8075 6.62785 16.0754 6.78013C16.0913 6.79188 16.1084 6.8021 16.1264 6.81034C16.3406 6.9434 16.5221 7.12971 16.6508 7.35783L16.6521 7.35996C16.6531 7.36179 16.654 7.36363 16.6551 7.36546C15.6529 7.36317 14.649 7.39628 13.6635 7.46388C12.012 7.57664 10.7695 7.75791 9.7534 8.03425C8.81788 8.28846 8.0377 8.63667 7.29841 9.13014C6.27683 9.81114 5.69837 10.5568 5.18796 11.2146C5.09702 11.3318 5.01126 11.4425 4.92459 11.5505C4.82343 11.6768 4.84372 11.8613 4.97006 11.9625C5.09641 12.0638 5.28073 12.0434 5.3819 11.917C5.47147 11.8053 5.5586 11.693 5.65106 11.574C6.13401 10.9514 6.68149 10.2459 7.62372 9.61766C8.31815 9.1541 9.02235 8.84022 9.90721 8.5999C10.8851 8.33393 12.0914 8.15876 13.7034 8.04875C14.7595 7.97611 15.8374 7.94453 16.9101 7.95353L17.1808 8.60676C17.2427 8.7563 17.4142 8.82725 17.5638 8.7653C17.7133 8.70335 17.7843 8.53199 17.7223 8.38246L17.4182 7.64866L17.8839 7.57572C18.2178 7.52354 18.4679 7.26368 18.5249 6.94843L19.1167 6.77097C19.6451 6.61259 20 6.13544 20 5.58368C20 4.90024 19.4441 4.34436 18.7608 4.34436H15.1662C14.8061 4.34436 14.5131 4.05124 14.5131 3.69083V3.37299C14.5131 3.21124 14.382 3.08002 14.2201 3.08002C14.0582 3.08002 13.927 3.21124 13.927 3.37299V3.69083C13.927 4.37427 14.4829 4.9303 15.1662 4.9303H18.7608C19.1209 4.9303 19.4139 5.22342 19.4139 5.58368C19.4139 5.87452 19.2268 6.12614 18.9484 6.2096L18.4085 6.3715C18.2469 6.12507 17.9514 5.98163 17.6421 6.03L16.3081 6.2389C15.9506 6.05015 15.5374 5.96348 15.1106 6.00498L11.1331 6.39164C9.12061 6.58741 7.21937 7.28123 5.58194 8.373V7.98832C5.58194 7.79545 5.47391 7.62364 5.29981 7.54032C5.12601 7.45701 4.92474 7.4802 4.7749 7.60059L4.47934 7.83711C4.19186 8.06751 4.02692 8.41084 4.02692 8.77873V9.60469C3.13641 10.4369 2.36584 11.408 1.75167 12.495L0.0381072 15.5272C0.0104887 15.5761 -0.00202351 15.6325 0.000265315 15.6884C0.000265315 16.3669 0.552329 16.919 1.23089 16.919H14.861C15.5061 16.919 16.0365 16.42 16.0873 15.7877C16.4918 15.3405 16.9653 14.9743 17.4962 14.6985C17.9987 14.4375 18.5403 14.2641 19.1061 14.1832C19.3385 14.1501 19.5384 14.014 19.6547 13.81C19.7713 13.6056 19.7864 13.3634 19.6962 13.1461L18.1697 9.46217ZM17.7327 6.60892C17.7821 6.60129 17.8316 6.6132 17.8722 6.64265C17.9126 6.67225 17.9391 6.71574 17.9468 6.76517C17.9472 6.76762 17.9477 6.7699 17.948 6.77235L17.9489 6.77708L17.9497 6.78242C17.9655 6.8845 17.8955 6.98063 17.7933 6.99665L17.1742 7.09354C17.1034 6.96415 17.0207 6.84437 16.9276 6.73496L17.7327 6.60892ZM4.61301 8.77858C4.61301 8.58937 4.69785 8.41282 4.8457 8.29441L4.996 8.17417V8.78926C4.8663 8.88737 4.73874 8.98793 4.61301 9.09108V8.77858Z" fill="#DBC67F"/>
<path id="Vector_2" d="M15.8535 10.7375V10.6884C15.8535 9.77271 15.1086 9.02777 14.193 9.02777H10.2604C9.34471 9.02777 8.59977 9.77271 8.59977 10.6884V10.7375C8.59977 11.6531 9.34471 12.398 10.2604 12.398H14.193C15.1086 12.398 15.8535 11.6531 15.8535 10.7375ZM11.195 11.8119V11.588C11.195 11.5003 11.2664 11.4289 11.3543 11.4289H13.0872C13.175 11.4289 13.2464 11.5003 13.2464 11.588V11.8119H11.195ZM15.2674 10.7375C15.2674 11.3299 14.7855 11.8119 14.193 11.8119H13.8325V11.588C13.8325 11.1771 13.4982 10.8428 13.0872 10.8428H11.3543C10.9432 10.8428 10.6089 11.1771 10.6089 11.588V11.8119H10.2602C9.66773 11.8119 9.18586 11.3299 9.18586 10.7375V10.6884C9.18586 10.0959 9.66773 9.61386 10.2602 9.61386H14.193C14.7854 9.61386 15.2674 10.0959 15.2674 10.6884V10.7375ZM5.58768 14.2197C5.58768 14.3844 5.45416 14.5179 5.28937 14.5179C5.12473 14.5179 4.99121 14.3844 4.99121 14.2197C4.99121 14.0549 5.12473 13.9216 5.28937 13.9216C5.45416 13.9216 5.58768 14.0549 5.58768 14.2197ZM6.84012 14.2197C6.84012 14.3844 6.70661 14.5179 6.54181 14.5179C6.37717 14.5179 6.24365 14.3844 6.24365 14.2197C6.24365 14.0549 6.37717 13.9216 6.54181 13.9216C6.70661 13.9216 6.84012 14.0549 6.84012 14.2197ZM13.3805 14.2197C13.3805 14.3844 13.247 14.5179 13.0824 14.5179C12.9176 14.5179 12.784 14.3844 12.784 14.2197C12.784 14.0549 12.9176 13.9216 13.0824 13.9216C13.247 13.9216 13.3805 14.0549 13.3805 14.2197ZM14.633 14.2197C14.633 14.3844 14.4994 14.5179 14.3346 14.5179C14.17 14.5179 14.0365 14.3844 14.0365 14.2197C14.0365 14.0549 14.17 13.9216 14.3346 13.9216C14.4994 13.9216 14.633 14.0549 14.633 14.2197Z" fill="#DBC67F"/>
</g>
</g>
</svg>
