<svg width="20" height="20" viewBox="0 0 20 20" fill="none" xmlns="http://www.w3.org/2000/svg">
<g id="IMAGE">
<g id="Group">
<path id="Vector" d="M5.53359 6.05895H5.44434C5.28254 6.05895 5.15137 6.19009 5.15137 6.35192C5.15137 6.51376 5.28254 6.64489 5.44434 6.64489H5.53359C5.69539 6.64489 5.82656 6.51376 5.82656 6.35192C5.82656 6.19009 5.69539 6.05895 5.53359 6.05895ZM6.83832 6.05895H6.7491C6.5873 6.05895 6.45613 6.19009 6.45613 6.35192C6.45613 6.51376 6.5873 6.64489 6.7491 6.64489H6.83832C7.00012 6.64489 7.13129 6.51376 7.13129 6.35192C7.13129 6.19009 7.00016 6.05895 6.83832 6.05895ZM8.14309 6.05895H8.05387C7.89207 6.05895 7.7609 6.19009 7.7609 6.35192C7.7609 6.51376 7.89207 6.64489 8.05387 6.64489H8.14309C8.30488 6.64489 8.43605 6.51376 8.43605 6.35192C8.43605 6.19009 8.30488 6.05895 8.14309 6.05895ZM5.53359 7.23579H5.44434C5.28254 7.23579 5.15137 7.36692 5.15137 7.52876C5.15137 7.6906 5.28254 7.82173 5.44434 7.82173H5.53359C5.69539 7.82173 5.82656 7.6906 5.82656 7.52876C5.82656 7.36692 5.69539 7.23579 5.53359 7.23579ZM6.83832 7.23579H6.7491C6.5873 7.23579 6.45613 7.36692 6.45613 7.52876C6.45613 7.6906 6.5873 7.82173 6.7491 7.82173H6.83832C7.00012 7.82173 7.13129 7.6906 7.13129 7.52876C7.13129 7.36692 7.00016 7.23579 6.83832 7.23579ZM8.14309 7.23579H8.05387C7.89207 7.23579 7.7609 7.36692 7.7609 7.52876C7.7609 7.6906 7.89207 7.82173 8.05387 7.82173H8.14309C8.30488 7.82173 8.43605 7.6906 8.43605 7.52876C8.43605 7.36692 8.30488 7.23579 8.14309 7.23579ZM5.53359 8.41263H5.44434C5.28254 8.41263 5.15137 8.54376 5.15137 8.7056C5.15137 8.86743 5.28254 8.99856 5.44434 8.99856H5.53359C5.69539 8.99856 5.82656 8.86743 5.82656 8.7056C5.82656 8.54376 5.69539 8.41263 5.53359 8.41263ZM6.83832 8.41263H6.7491C6.5873 8.41263 6.45613 8.54376 6.45613 8.7056C6.45613 8.86743 6.5873 8.99856 6.7491 8.99856H6.83832C7.00012 8.99856 7.13129 8.86743 7.13129 8.7056C7.13129 8.54376 7.00016 8.41263 6.83832 8.41263ZM8.14309 8.41263H8.05387C7.89207 8.41263 7.7609 8.54376 7.7609 8.7056C7.7609 8.86743 7.89207 8.99856 8.05387 8.99856H8.14309C8.30488 8.99856 8.43605 8.86743 8.43605 8.7056C8.43605 8.54376 8.30488 8.41263 8.14309 8.41263ZM7.92 3.23755H5.66742C5.38285 3.23755 5.15137 3.46907 5.15137 3.7536V4.81325C5.15137 5.09778 5.38285 5.32927 5.66742 5.32927H7.92C8.20453 5.32927 8.43602 5.09778 8.43602 4.81325V3.7536C8.43605 3.46907 8.20457 3.23755 7.92 3.23755ZM7.85012 4.74333H5.73734V3.82349H7.85012V4.74333Z" fill="#DBC67F"/>
<path id="Vector_2" d="M9.41469 10.4516C9.68395 10.4516 9.90297 10.2326 9.90297 9.96334V2.27295C9.90297 2.00369 9.68395 1.78467 9.41469 1.78467H4.17383C3.90457 1.78467 3.68555 2.00369 3.68555 2.27295V9.96334C3.68555 10.2326 3.90457 10.4516 4.17383 10.4516H9.41469ZM4.27148 2.37061H9.31703V9.86568H4.27148V2.37061ZM7.32965 12.7104C6.78551 12.7104 6.34281 13.1531 6.34281 13.6972C6.34281 14.2414 6.78551 14.6841 7.32965 14.6841C7.87379 14.6841 8.31648 14.2414 8.31648 13.6972C8.31648 13.1531 7.87379 12.7104 7.32965 12.7104ZM7.32965 14.0981C7.10859 14.0981 6.92875 13.9183 6.92875 13.6972C6.92875 13.4761 7.10859 13.2963 7.32965 13.2963C7.5507 13.2963 7.73055 13.4762 7.73055 13.6972C7.73055 13.9183 7.5507 14.0981 7.32965 14.0981Z" fill="#DBC67F"/>
<path id="Vector_3" d="M16.915 11.4926H11.6871V0.683594C11.6871 0.30668 11.3805 0 11.0036 0H2.58398C2.20707 0 1.90039 0.30668 1.90039 0.683594V4.4543C1.90039 4.61613 2.03156 4.74727 2.19336 4.74727C2.35516 4.74727 2.48633 4.61613 2.48633 4.4543V0.683594C2.48633 0.629727 2.53016 0.585938 2.58398 0.585938H11.0036C11.0574 0.585938 11.1012 0.629727 11.1012 0.683594V11.4926H6.11371C5.46016 11.4926 4.92844 12.0243 4.92844 12.6779V14.7165C4.92844 15.3701 5.46016 15.9018 6.11371 15.9018H11.1012V16.8444C11.1012 16.8983 11.0574 16.9429 11.0035 16.9429H2.5841C2.53027 16.9429 2.48645 16.8991 2.48645 16.8452V5.82148C2.48645 5.65965 2.35527 5.52852 2.19348 5.52852C2.03168 5.52852 1.90039 5.65965 1.90039 5.82148V19.3164C1.90039 19.6933 2.20719 20 2.5841 20H8.27344C8.43523 20 8.56641 19.8689 8.56641 19.707C8.56641 19.5452 8.43523 19.4141 8.27344 19.4141H2.5841C2.53027 19.4141 2.48645 19.3703 2.48645 19.3164V17.521C2.51844 17.5256 2.55086 17.5288 2.5841 17.5288H11.0035C11.0368 17.5288 11.0692 17.5256 11.1012 17.521V19.3164C11.1012 19.3703 11.0574 19.4141 11.0036 19.4141H9.64066C9.47887 19.4141 9.3477 19.5452 9.3477 19.707C9.3477 19.8689 9.47887 20 9.64066 20H11.0036C11.3805 20 11.6871 19.6933 11.6871 19.3164V15.9018H16.915C17.5686 15.9018 18.1003 15.3701 18.1003 14.7165V12.6779C18.1003 12.0243 17.5686 11.4926 16.915 11.4926ZM17.5144 14.7165C17.5144 15.047 17.2455 15.3159 16.915 15.3159H6.11371C5.78324 15.3159 5.51437 15.047 5.51437 14.7165V12.6779C5.51437 12.3474 5.78324 12.0785 6.11371 12.0785H16.915C17.2455 12.0785 17.5144 12.3474 17.5144 12.6779V14.7165Z" fill="#DBC67F"/>
</g>
</g>
</svg>
