<svg width="20" height="20" viewBox="0 0 20 20" fill="none" xmlns="http://www.w3.org/2000/svg">
<g id="IMAGE">
<path id="Vector" d="M12.8595 0.300058C12.8312 0.125395 12.6793 -0.00221793 12.5023 2.92178e-05H7.50235C7.32542 -0.00221793 7.1735 0.125395 7.14521 0.300058L6.07378 6.72861C6.05725 6.83243 6.0873 6.93826 6.15592 7.0179C6.22459 7.09819 6.32528 7.14395 6.43092 7.1429H9.6452V14.2857C9.25071 14.2857 8.93092 14.6055 8.93092 15V17.8571C7.9447 17.8571 7.14521 18.6566 7.14521 19.6429C7.14521 19.8401 7.3051 20 7.50235 20H12.5023C12.6996 20 12.8595 19.8401 12.8595 19.6429C12.8595 18.6566 12.06 17.8571 11.0738 17.8571V15C11.0738 14.6055 10.754 14.2857 10.3595 14.2857V7.1429H11.788V7.92146C11.2961 8.09541 11.001 8.59849 11.0892 9.11279C11.1774 9.6271 11.6234 10.003 12.1452 10.003C12.667 10.003 13.1129 9.6271 13.2012 9.11279C13.2894 8.59849 12.9943 8.09541 12.5023 7.92146V7.1429H13.5738C13.6782 7.1429 13.7773 7.09723 13.8452 7.0179C13.9138 6.93826 13.9439 6.83243 13.9273 6.72861L12.8595 0.300058ZM12.0845 19.2857H7.9202C8.07162 18.8574 8.47666 18.5712 8.93092 18.5714H11.0738C11.528 18.5712 11.9331 18.8574 12.0845 19.2857ZM9.6452 17.8571V15H10.3595V17.8571H9.6452ZM12.1452 9.28575C11.9479 9.28575 11.788 9.12585 11.788 8.9286C11.788 8.73136 11.9479 8.57146 12.1452 8.57146C12.3424 8.57146 12.5023 8.73136 12.5023 8.9286C12.5023 9.12585 12.3424 9.28575 12.1452 9.28575ZM12.1988 0.714343L12.438 2.14291H7.56663L7.80592 0.714343H12.1988ZM6.84164 6.42861L7.43806 2.85719H12.5452L13.1416 6.42861H6.84164Z" fill="#DBC67F"/>
</g>
</svg>
