<svg width="20" height="20" viewBox="0 0 20 20" fill="none" xmlns="http://www.w3.org/2000/svg">
<g id="IMAGE" clip-path="url(#clip0_31_1553)">
<g id="Group">
<path id="Vector" d="M5.7306 16.4256H2.98887C2.82621 16.4258 2.6889 16.3048 2.66857 16.1435L1.63639 7.95701C1.61394 7.77999 1.73929 7.6183 1.91637 7.59586C2.09344 7.57342 2.25519 7.69873 2.27763 7.87575L3.27304 15.7801H5.40804V8.4652C5.40804 8.28711 5.55245 8.14274 5.7306 8.14274C5.90874 8.14274 6.05315 8.28711 6.05315 8.4652V16.1032C6.05315 16.2813 5.90874 16.4256 5.7306 16.4256Z" fill="#DBC67F"/>
<path id="Vector_2" d="M4.1934 9.00978C3.20146 9.00846 2.24568 8.6373 1.51295 7.9689C0.539249 7.08178 -0.0108417 5.82237 0.000165799 4.50541C-0.0109657 3.18857 0.538876 1.92919 1.51231 1.04193C2.35757 0.268869 3.49537 -0.10205 4.63401 0.0242647L14.1584 1.71296C14.3123 1.7403 14.4246 1.87401 14.4246 2.03025V6.98025C14.4246 7.1365 14.3123 7.27021 14.1584 7.29755L4.65465 8.98366C4.50152 9.00113 4.34752 9.00978 4.1934 9.00978ZM4.18436 0.64241C3.35373 0.648712 2.55491 0.962578 1.94228 1.52336C1.10597 2.28816 0.634408 3.37238 0.645278 4.50541C0.63404 5.63897 1.10577 6.72376 1.9426 7.48876C2.65095 8.13947 3.60627 8.45201 4.5624 8.34585L13.7794 6.71036V2.30047L4.54176 0.66208C4.42308 0.648955 4.30377 0.64241 4.18436 0.64241Z" fill="#DBC67F"/>
<path id="Vector_3" d="M16.1414 8.18444C16.0971 8.18459 16.0531 8.17559 16.0124 8.158L13.9739 7.27899C13.8561 7.22763 13.7801 7.11136 13.7803 6.98297V2.03007C13.7801 1.90168 13.8561 1.78541 13.9739 1.73406L16.0137 0.855046C16.1135 0.811504 16.2285 0.821237 16.3196 0.880927C16.4107 0.940617 16.4654 1.04221 16.4653 1.15106V7.86198C16.4653 8.04007 16.3209 8.18444 16.1427 8.18444H16.1414ZM14.4241 6.7708L15.8189 7.37185V1.64119L14.4241 2.24257V6.7708ZM3.85591 6.33484C2.84589 6.33466 2.02723 5.51602 2.02734 4.50631C2.02746 3.4966 2.84632 2.67814 3.85634 2.6782C4.86637 2.67826 5.68513 3.49681 5.68513 4.50652C5.68389 5.51588 4.86559 6.33377 3.85591 6.33484ZM3.85591 3.32311C3.20217 3.32329 2.67234 3.8532 2.67246 4.50674C2.67257 5.16027 3.2026 5.68999 3.85634 5.68993C4.51009 5.68987 5.04002 5.16006 5.04002 4.50652C5.03913 3.85319 4.50946 3.32382 3.85591 3.32311ZM6.31347 11.2935H5.72997C5.55182 11.2935 5.40741 11.1492 5.40741 10.9711V9.31077C5.40741 9.13268 5.55182 8.98832 5.72997 8.98832H6.31347C6.7405 8.98956 7.08636 9.33531 7.0876 9.76221V10.5197C7.08636 10.9465 6.7405 11.2923 6.31347 11.2935ZM6.05252 10.6486H6.31347C6.38429 10.6476 6.44145 10.5905 6.44249 10.5197V9.7635C6.44162 9.69263 6.38436 9.63538 6.31347 9.63451H6.05252V10.6486ZM4.11428 19.9998C3.98539 20 3.86876 19.9234 3.81769 19.8051C3.76662 19.6868 3.79091 19.5495 3.87946 19.4558C4.09516 19.1689 4.09973 18.7752 3.89075 18.4833C3.38014 17.5704 3.87978 16.1504 3.93849 15.9914C4.00013 15.8242 4.18563 15.7387 4.35281 15.8003C4.52 15.8619 4.60556 16.0474 4.54393 16.2145C4.4149 16.5692 4.14364 17.6133 4.45426 18.1683C4.80347 18.7056 4.76066 19.4079 4.34878 19.8989C4.28783 19.9633 4.20301 19.9998 4.11428 19.9998ZM17.9042 2.95229C17.5105 2.92973 17.1372 2.77 16.8491 2.50085C16.7202 2.37968 16.713 2.17732 16.833 2.0473C16.953 1.91728 17.1553 1.90816 17.2865 2.02685C17.2904 2.03072 17.8078 2.49408 18.1384 2.22032C18.8606 1.62346 19.8008 2.16808 19.8402 2.1913C19.9941 2.28185 20.0454 2.48 19.9549 2.63387C19.8643 2.78773 19.6661 2.83906 19.5121 2.7485C19.5034 2.74334 18.9199 2.4125 18.55 2.71883C18.3695 2.87131 18.1404 2.95413 17.9042 2.95229ZM17.9042 4.85123C17.5106 4.82856 17.1373 4.66884 16.8491 4.39979C16.7644 4.32168 16.7277 4.2043 16.753 4.09187C16.7783 3.97944 16.8617 3.88903 16.9717 3.85471C17.0817 3.82038 17.2018 3.84735 17.2865 3.92546C17.2904 3.92965 17.8078 4.39302 18.1384 4.11893C18.8606 3.52207 19.8008 4.06669 19.8402 4.08991C19.9395 4.14849 19.9999 4.25557 19.9988 4.37081C19.9977 4.48605 19.9352 4.59194 19.8348 4.6486C19.7344 4.70526 19.6114 4.70408 19.5121 4.6455C19.5034 4.64002 18.9199 4.3095 18.55 4.61583C18.3698 4.76891 18.1407 4.85241 17.9042 4.85123ZM17.9042 6.75048C17.5106 6.72782 17.1373 6.5681 16.8491 6.29905C16.7644 6.22094 16.7277 6.10356 16.753 5.99113C16.7783 5.8787 16.8617 5.78829 16.9717 5.75396C17.0817 5.71964 17.2018 5.74661 17.2865 5.82472C17.2904 5.82891 17.8078 6.29195 18.1384 6.01819C18.8612 5.41939 19.8005 5.96563 19.8405 5.98917C19.9938 6.0799 20.0445 6.27769 19.9537 6.43093C19.863 6.58417 19.6651 6.63485 19.5118 6.54411C19.496 6.53476 18.9174 6.2094 18.55 6.51509C18.3698 6.66821 18.1407 6.75173 17.9042 6.75048Z" fill="#DBC67F"/>
</g>
</g>
<defs>
<clipPath id="clip0_31_1553">
<rect width="20" height="20" fill="white"/>
</clipPath>
</defs>
</svg>
