<svg width="16" height="16" viewBox="0 0 16 16" fill="none" xmlns="http://www.w3.org/2000/svg">
<g id="b518eba895289db7f7404563e3a44a5b 1" clip-path="url(#clip0_34_3026)">
<g id="Group">
<path id="Vector" d="M8.00016 0.160034C3.67056 0.160034 0.160156 3.67043 0.160156 8.00004C0.160156 12.3296 3.67056 15.84 8.00016 15.84C12.3298 15.84 15.8402 12.3296 15.8402 8.00004C15.8402 3.67043 12.3298 0.160034 8.00016 0.160034ZM8.00016 15.128C6.32336 15.128 4.78416 14.5456 3.56656 13.576C4.05136 12.9408 5.01936 12.2496 5.87216 11.9712C6.38736 11.8032 6.68496 11.5504 6.75696 11.2192C6.84976 10.8016 6.53136 10.4912 6.49456 10.4576C6.40176 10.3728 6.26736 10.3424 6.14736 10.3792C6.12016 10.3872 5.53776 10.5488 4.58096 10.1168C4.86896 9.61764 5.11696 8.59524 5.11696 6.55364C5.11696 3.28323 6.57136 3.01283 8.19056 3.01283C9.31856 3.01283 10.8194 3.39843 10.8194 6.73284C10.8194 8.62884 11.117 9.57444 11.413 10.0464C11.0098 10.2 10.3666 10.3792 9.66896 10.32C9.51376 10.304 9.37456 10.392 9.31216 10.5312C9.17776 10.8352 9.16816 11.5216 10.0946 11.9344C10.8146 12.256 11.6962 12.7408 12.3922 13.6048C11.181 14.5568 9.65776 15.128 8.00016 15.128ZM12.9314 13.1376C12.149 12.1712 11.1778 11.6368 10.3842 11.2832C10.2082 11.2048 10.0962 11.12 10.0306 11.0416C11.221 11.0192 12.1538 10.4944 12.197 10.4704C12.3202 10.4 12.389 10.264 12.3746 10.1232C12.3602 9.99524 12.2786 9.88323 12.1602 9.83364C12.109 9.79683 11.5314 9.32804 11.5314 6.73124C11.5314 3.79043 10.4082 2.29923 8.19056 2.29923C6.31856 2.29923 4.40496 2.80483 4.40496 6.55364C4.40496 9.27524 3.95056 9.80004 3.88016 9.86404C3.76016 9.89924 3.66576 9.99684 3.63536 10.1232C3.59856 10.2768 3.66736 10.4352 3.80176 10.5152C4.80496 11.0976 5.59216 11.1488 6.01616 11.1168C5.96496 11.16 5.86096 11.2256 5.65296 11.2944C4.67056 11.616 3.62096 12.3632 3.03536 13.1088C1.70416 11.8144 0.875356 10.0064 0.875356 8.00324C0.872156 4.06404 4.06416 0.872034 8.00016 0.872034C11.9362 0.872034 15.1282 4.06403 15.1282 8.00004C15.1282 10.0208 14.2818 11.8416 12.9314 13.1376Z" fill="#DBC67F"/>
</g>
</g>
<defs>
<clipPath id="clip0_34_3026">
<rect width="16" height="16" fill="white"/>
</clipPath>
</defs>
</svg>
