<svg width="11" height="19" viewBox="0 0 11 19" fill="none" xmlns="http://www.w3.org/2000/svg">
<g id="Group">
<path id="Vector" d="M1.67975 0.259289C1.33984 0.376329 1.06206 0.66494 0.974466 0.99744C0.948816 1.08522 0.941596 4.12579 0.945206 9.58563L0.956226 18.0423L1.04021 18.1959C1.16808 18.437 1.32901 18.5979 1.55188 18.7075L1.76012 18.8099H5.50597H9.25182L9.46006 18.7075C9.68293 18.5979 9.84385 18.4372 9.97173 18.1959L10.0557 18.0423V9.50906V0.97559L9.94608 0.778179C9.8108 0.537069 9.60978 0.357901 9.35404 0.262901C9.16061 0.189939 9.07645 0.189939 5.51338 0.189939C2.11086 0.19355 1.85873 0.197159 1.67975 0.259289ZM9.56266 9.50906V16.3432H5.50616H1.44966V9.50906V2.67495H5.50616H9.56266V9.50906ZM5.83486 16.9352C6.05051 17.0849 6.10903 17.1984 6.10903 17.4725C6.10903 17.6846 6.0944 17.7393 6.01042 17.8489C5.87153 18.0317 5.68875 18.1085 5.44764 18.09C4.84838 18.0389 4.6656 17.2787 5.17347 16.9388C5.34523 16.8218 5.66671 16.8218 5.83486 16.9352Z" fill="#DBC67F"/>
</g>
</svg>
