<svg width="16" height="16" viewBox="0 0 16 16" fill="none" xmlns="http://www.w3.org/2000/svg">
<g id="wallet_money_bills_icon_143290 (1) 1" clip-path="url(#clip0_34_3063)">
<path id="Vector" d="M10.6607 0.920002L4.42973 4.08125C4.40779 4.09133 4.3881 4.10573 4.37186 4.12359C4.35561 4.14146 4.34314 4.16242 4.33519 4.18522C4.32724 4.20802 4.32398 4.23219 4.3256 4.25628C4.32722 4.28037 4.33368 4.30389 4.3446 4.32542C4.35553 4.34696 4.37069 4.36606 4.38917 4.3816C4.40766 4.39713 4.42909 4.40877 4.45219 4.41582C4.47528 4.42288 4.49956 4.42519 4.52357 4.42263C4.54758 4.42008 4.57083 4.4127 4.59192 4.40094L10.8225 1.23969C10.9015 1.19969 10.9931 1.19265 11.0772 1.22013C11.1614 1.24761 11.2312 1.30736 11.2713 1.38625L12.761 4.32375C12.7836 4.36424 12.8209 4.39442 12.8653 4.40796C12.9096 4.4215 12.9575 4.41735 12.9988 4.39637C13.0401 4.3754 13.0718 4.33923 13.087 4.29545C13.1023 4.25168 13.1 4.2037 13.0807 4.16156L11.591 1.22406C11.5078 1.06052 11.3631 0.936653 11.1887 0.879649C11.0143 0.822645 10.8244 0.837158 10.6607 0.920002Z" fill="#DBC67F"/>
<path id="Vector_2" d="M11.2255 2.87843C11.2032 2.87102 11.1797 2.86812 11.1562 2.86989C11.1328 2.87166 11.1099 2.87807 11.089 2.88875C10.9118 2.97829 10.7064 2.99397 10.5178 2.93235C10.3291 2.87072 10.1726 2.73683 10.0824 2.56C10.0718 2.53899 10.0571 2.52029 10.0392 2.50495C10.0214 2.48962 10.0007 2.47797 9.97828 2.47065C9.9559 2.46334 9.9323 2.46051 9.90883 2.46233C9.88535 2.46414 9.86247 2.47057 9.84148 2.48125L6.68773 4.08125C6.64724 4.10382 6.61706 4.1412 6.60352 4.18553C6.58998 4.22987 6.59414 4.27773 6.61511 4.31907C6.63609 4.36042 6.67225 4.39203 6.71603 4.40729C6.7598 4.42256 6.80779 4.42028 6.84992 4.40093L9.85679 2.875C9.99396 3.06166 10.1861 3.20072 10.4063 3.27268C10.6265 3.34464 10.8637 3.34589 11.0846 3.27625L11.6159 4.32187C11.6384 4.36236 11.6758 4.39254 11.7201 4.40608C11.7645 4.41962 11.8123 4.41547 11.8537 4.39449C11.895 4.37352 11.9266 4.33735 11.9419 4.29357C11.9572 4.2498 11.9549 4.20182 11.9355 4.15968L11.3299 2.96875C11.3193 2.94755 11.3047 2.92865 11.2868 2.91315C11.2689 2.89765 11.248 2.88585 11.2255 2.87843Z" fill="#DBC67F"/>
<path id="Vector_3" d="M2.01504 15.1562H14.0266C14.2025 15.1561 14.3712 15.0861 14.4955 14.9617C14.6199 14.8374 14.6899 14.6687 14.69 14.4928V11.1562H14.8085C14.9482 11.1561 15.0822 11.1005 15.1811 11.0017C15.2799 10.9028 15.3355 10.7688 15.3357 10.6291V9.29781C15.3355 9.15804 15.2799 9.02405 15.1811 8.92522C15.0822 8.82638 14.9482 8.77079 14.8085 8.77062H12.0425C11.7262 8.77062 11.4228 8.89629 11.1991 9.11999C10.9754 9.34368 10.8497 9.64708 10.8497 9.96343C10.8497 10.2798 10.9754 10.5832 11.1991 10.8069C11.4228 11.0306 11.7262 11.1562 12.0425 11.1562H14.3316V12.3078H10.7575C10.7334 12.3068 10.7093 12.3107 10.6866 12.3192C10.664 12.3278 10.6433 12.3408 10.6259 12.3576C10.6084 12.3743 10.5945 12.3944 10.5851 12.4167C10.5756 12.4389 10.5707 12.4628 10.5707 12.487C10.5707 12.5112 10.5756 12.5352 10.5851 12.5574C10.5945 12.5796 10.6084 12.5997 10.6259 12.6165C10.6433 12.6332 10.664 12.6463 10.6866 12.6548C10.7093 12.6634 10.7334 12.6673 10.7575 12.6662H14.3316V14.4919C14.3315 14.5727 14.2994 14.6503 14.2422 14.7074C14.185 14.7646 14.1075 14.7968 14.0266 14.7969H2.01504C1.75216 14.7965 1.50015 14.692 1.31426 14.5061C1.12838 14.3202 1.02381 14.0682 1.02348 13.8053V12.6656H8.4641C8.51034 12.6637 8.55404 12.644 8.58607 12.6106C8.61811 12.5772 8.63599 12.5327 8.63599 12.4864C8.63599 12.4401 8.61811 12.3956 8.58607 12.3622C8.55404 12.3288 8.51034 12.3091 8.4641 12.3072H1.02348V6.11969C1.02381 5.85681 1.12838 5.60479 1.31426 5.41891C1.50015 5.23303 1.75216 5.12845 2.01504 5.12812H14.0266C14.1075 5.12821 14.185 5.16037 14.2422 5.21755C14.2994 5.27473 14.3315 5.35226 14.3316 5.43312V8.19187C14.3306 8.21604 14.3345 8.24016 14.343 8.26278C14.3516 8.2854 14.3646 8.30606 14.3814 8.32352C14.3981 8.34098 14.4182 8.35487 14.4405 8.36435C14.4627 8.37384 14.4866 8.37873 14.5108 8.37873C14.535 8.37873 14.5589 8.37384 14.5812 8.36435C14.6034 8.35487 14.6235 8.34098 14.6403 8.32352C14.657 8.30606 14.6701 8.2854 14.6786 8.26278C14.6872 8.24016 14.691 8.21604 14.69 8.19187V5.43437C14.6898 5.25849 14.6198 5.08989 14.4954 4.96553C14.3711 4.84116 14.2025 4.77118 14.0266 4.77094H2.01504C1.65712 4.77135 1.31399 4.91371 1.0609 5.1668C0.807817 5.41988 0.665453 5.76302 0.665039 6.12093V13.8047C0.665039 14.1629 0.807221 14.5064 1.06035 14.7598C1.31348 15.0133 1.65685 15.1558 2.01504 15.1562ZM11.2082 9.96281C11.2084 9.7416 11.2964 9.52951 11.4528 9.37309C11.6092 9.21667 11.8213 9.12868 12.0425 9.12843H14.8085C14.8532 9.12852 14.8961 9.14632 14.9277 9.17795C14.9593 9.20958 14.9771 9.25246 14.9772 9.29719V10.6284C14.9772 10.6732 14.9594 10.7161 14.9278 10.7478C14.8962 10.7794 14.8532 10.7972 14.8085 10.7972H12.0425C11.8213 10.7969 11.6092 10.709 11.4528 10.5525C11.2964 10.3961 11.2084 10.184 11.2082 9.96281Z" fill="#DBC67F"/>
<path id="Vector_4" d="M12.1567 9.81249C12.1372 9.79933 12.1151 9.79029 12.092 9.78593C12.069 9.78124 12.0453 9.78124 12.0223 9.78593C12.0108 9.78822 11.9995 9.79157 11.9886 9.79593C11.9667 9.80503 11.9469 9.8183 11.9301 9.83499C11.8967 9.86864 11.878 9.91413 11.8779 9.96155C11.8778 9.97331 11.879 9.98504 11.8814 9.99655C11.8835 10.0081 11.8869 10.0194 11.8914 10.0303C11.896 10.0412 11.9016 10.0516 11.9079 10.0616C11.9146 10.0712 11.9221 10.0802 11.9301 10.0887C11.9384 10.0971 11.9477 10.1046 11.9576 10.1109C11.9675 10.1174 11.978 10.1229 11.9889 10.1275C11.9998 10.132 12.0111 10.1354 12.0226 10.1378C12.034 10.1401 12.0457 10.1412 12.0573 10.1412C12.0691 10.1412 12.0808 10.14 12.0923 10.1378C12.1154 10.1332 12.1374 10.124 12.157 10.1109C12.1668 10.1044 12.1759 10.097 12.1842 10.0887C12.1923 10.0804 12.1997 10.0713 12.2061 10.0616C12.2127 10.0518 12.2182 10.0413 12.2226 10.0303C12.2272 10.0194 12.2307 10.0081 12.2329 9.99655C12.2354 9.98505 12.2367 9.97332 12.2367 9.96155C12.2364 9.91412 12.2176 9.86868 12.1842 9.83499C12.1756 9.82681 12.1664 9.81929 12.1567 9.81249Z" fill="#DBC67F"/>
<path id="Vector_5" d="M9.57716 12.3072C9.53093 12.3091 9.48722 12.3289 9.45519 12.3623C9.42316 12.3956 9.40527 12.4401 9.40527 12.4864C9.40527 12.5327 9.42316 12.5772 9.45519 12.6106C9.48722 12.644 9.53093 12.6637 9.57716 12.6656H9.64216C9.66633 12.6666 9.69045 12.6628 9.71307 12.6542C9.73569 12.6456 9.75636 12.6326 9.77381 12.6159C9.79127 12.5991 9.80516 12.579 9.81464 12.5568C9.82413 12.5345 9.82902 12.5106 9.82902 12.4864C9.82902 12.4622 9.82413 12.4383 9.81464 12.416C9.80516 12.3938 9.79127 12.3737 9.77381 12.357C9.75636 12.3402 9.73569 12.3272 9.71307 12.3186C9.69045 12.3101 9.66633 12.3062 9.64216 12.3072H9.57716Z" fill="#DBC67F"/>
</g>
<defs>
<clipPath id="clip0_34_3063">
<rect width="16" height="16" fill="white"/>
</clipPath>
</defs>
</svg>
