<svg width="20" height="20" viewBox="0 0 20 20" fill="none" xmlns="http://www.w3.org/2000/svg">
<g id="IMAGE">
<g id="Group">
<path id="Vector" d="M19.0808 2.81799H0.919221C0.412384 2.81799 0 3.23038 0 3.73721V15.0099C0 15.5168 0.412384 15.9292 0.919221 15.9292H5.76841L5.43513 16.5957H4.36364C4.20184 16.5957 4.07067 16.7269 4.07067 16.8887C4.07067 17.0505 4.20184 17.1817 4.36364 17.1817H15.6364C15.7982 17.1817 15.9293 17.0505 15.9293 16.8887C15.9293 16.7269 15.7982 16.5957 15.6364 16.5957H14.5649L14.2316 15.9292H19.0808C19.5877 15.9292 20 15.5168 20 15.0099V3.73721C20 3.23038 19.5877 2.81799 19.0808 2.81799ZM19.4141 14.0907H18.4545C18.2927 14.0907 18.1616 14.2218 18.1616 14.3836C18.1616 14.5454 18.2927 14.6766 18.4545 14.6766H19.4141V15.0099C19.4141 15.1937 19.2646 15.3433 19.0808 15.3433H8.12111C7.95931 15.3433 7.82814 15.4744 7.82814 15.6362C7.82814 15.798 7.95931 15.9292 8.12111 15.9292H13.5765L13.9098 16.5958H6.09021L6.42349 15.9292H6.86872C7.03052 15.9292 7.16169 15.798 7.16169 15.6362C7.16169 15.4744 7.03052 15.3433 6.86872 15.3433H0.919221C0.735431 15.3433 0.585939 15.1937 0.585939 15.01V14.6766H17.2022C17.364 14.6766 17.4952 14.5455 17.4952 14.3837C17.4952 14.2219 17.364 14.0907 17.2022 14.0907H0.585939V3.73721C0.585939 3.55342 0.73547 3.40393 0.919221 3.40393H19.0808C19.2646 3.40393 19.4141 3.55346 19.4141 3.73721V14.0907Z" fill="#DBC67F"/>
<path id="Vector_2" d="M14.5914 4.78272C14.477 4.6683 14.2915 4.6683 14.1771 4.78268L6.66198 12.2978C6.54757 12.4123 6.54757 12.5978 6.66198 12.7121C6.71917 12.7693 6.79417 12.798 6.86913 12.798C6.94409 12.798 7.01909 12.7694 7.07628 12.7121L14.5914 5.19701C14.7058 5.0826 14.7058 4.89709 14.5914 4.78272ZM11.7732 5.40897C11.6588 5.29455 11.4733 5.29455 11.3589 5.40897L6.97511 9.7928C6.86069 9.90722 6.86069 10.0927 6.97511 10.2071C7.0323 10.2643 7.1073 10.2929 7.18226 10.2929C7.25722 10.2929 7.33222 10.2643 7.38941 10.2071L11.7732 5.82326C11.8877 5.70885 11.8877 5.52334 11.7732 5.40897Z" fill="#DBC67F"/>
</g>
</g>
</svg>
