<svg width="20" height="20" viewBox="0 0 20 20" fill="none" xmlns="http://www.w3.org/2000/svg">
<g id="IMAGE">
<g id="Group">
<path id="Vector" d="M1.46789 12.4825H12.4287C12.9533 12.4825 13.3674 12.8994 13.3674 13.4268V15.5256C13.3674 16.0505 12.9533 16.4687 12.4287 16.4687H1.46789C0.943047 16.4687 0.528908 16.0507 0.528908 15.5256V13.4268C0.528908 12.8991 0.943047 12.4825 1.46789 12.4825ZM2.53256 9.01091H11.364C11.8137 9.01091 12.0821 9.51493 12.2393 9.95548L12.9668 12.0579C12.8002 11.9919 12.6192 11.9535 12.4287 11.9535H1.46789C1.27872 11.9535 1.09616 11.9919 0.929589 12.0579L1.65808 9.95548C1.81449 9.51493 2.08262 9.01091 2.53256 9.01091ZM2.53256 8.48352C1.74542 8.48352 1.38359 9.14193 1.16116 9.7823L0.0832847 12.8834C0.0223447 13.0591 0 13.263 0 13.4258V15.5256C0 16.3336 0.659929 16.9961 1.46789 16.9961H12.4287C13.2382 16.9961 13.8976 16.3336 13.8976 15.5256V13.4258C13.8976 13.263 13.874 13.0591 13.8131 12.8834L12.7352 9.7823C12.5135 9.14218 12.1509 8.48352 11.364 8.48352H2.53256Z" fill="#DBC67F"/>
<path id="Vector_2" d="M2.46921 13.6873C2.03933 13.6873 1.68359 14.043 1.68359 14.4739C1.68359 14.9069 2.03908 15.2621 2.46921 15.2621C2.9029 15.2621 3.25737 14.9069 3.25737 14.4739C3.25737 14.043 2.9029 13.6873 2.46921 13.6873ZM2.46921 14.2152C2.61725 14.2152 2.731 14.3277 2.731 14.4742C2.731 14.6225 2.61725 14.735 2.46921 14.735C2.32499 14.735 2.20996 14.6212 2.20996 14.4742C2.20971 14.3287 2.32473 14.2152 2.46921 14.2152ZM4.39187 13.6873C3.95945 13.6873 3.60371 14.043 3.60371 14.4739C3.60371 14.9069 3.9592 15.2621 4.39187 15.2621C4.82327 15.2621 5.17876 14.9069 5.17876 14.4739C5.17876 14.043 4.82327 13.6873 4.39187 13.6873ZM4.39187 14.2152C4.53863 14.2152 4.65239 14.3277 4.65239 14.4742C4.65239 14.6225 4.53863 14.735 4.39187 14.735C4.24536 14.735 4.1316 14.6212 4.1316 14.4742C4.1316 14.3287 4.24536 14.2152 4.39187 14.2152ZM16.2058 3.00299C15.535 3.00299 14.9878 3.55069 14.9878 4.22103L14.9891 15.7793C14.9891 16.4484 15.5378 16.9958 16.2086 16.9958H18.7821C19.4514 16.9958 20.0001 16.4484 20.0001 15.7793L19.9989 4.22103C19.9973 3.55069 19.4499 3.00299 18.7793 3.00299H16.2058ZM16.2058 3.53342H18.7793C19.1668 3.53342 19.471 3.83355 19.471 4.22103V13.2295H15.5172V4.22128C15.5172 3.83355 15.8184 3.53342 16.2058 3.53342ZM15.5172 13.7602H19.471V15.7796C19.471 16.1643 19.1696 16.4687 18.7821 16.4687H16.2086C15.8212 16.4687 15.517 16.1643 15.517 15.7796L15.5172 13.7602Z" fill="#DBC67F"/>
<path id="Vector_3" d="M17.4936 9.08494C16.7003 9.08494 16.0524 9.73166 16.0524 10.5267C16.0524 11.3202 16.7003 11.9669 17.4936 11.9669C18.2871 11.9669 18.9353 11.3202 18.9353 10.5267C18.9351 9.73166 18.2871 9.08494 17.4936 9.08494ZM17.4936 9.61156C18.0014 9.61156 18.4062 10.0188 18.4062 10.5267C18.4062 11.0345 18.0014 11.4418 17.4936 11.4418C16.9858 11.4418 16.581 11.0345 16.581 10.5267C16.581 10.0188 16.9858 9.61156 17.4936 9.61156ZM16.4594 4.93365C16.3126 4.93365 16.1935 5.05147 16.1935 5.19824C16.1935 5.34348 16.3126 5.46282 16.4594 5.46282H16.9235C17.069 5.46282 17.1879 5.34348 17.1879 5.19824C17.1879 5.05147 17.0701 4.93365 16.9235 4.93365H16.4594ZM18.0608 4.93365C17.9143 4.93365 17.7965 5.05147 17.7965 5.19824C17.7965 5.34348 17.9143 5.46282 18.0608 5.46282H18.5278C18.6748 5.46282 18.7934 5.34348 18.7934 5.19824C18.7934 5.05147 18.6748 4.93365 18.5278 4.93365H18.0608ZM16.4332 6.11488C16.08 6.13316 16.108 6.65978 16.4596 6.64099H16.9238C17.0693 6.64226 17.1881 6.5247 17.1881 6.37946C17.1881 6.23244 17.0703 6.11488 16.9238 6.11488H16.4596C16.45 6.11361 16.4408 6.11361 16.4332 6.11488ZM18.0357 6.11488C17.6838 6.13316 17.7104 6.65978 18.0608 6.64099H18.5278C18.6748 6.64226 18.7934 6.5247 18.7934 6.37946C18.7934 6.23244 18.6748 6.11488 18.5278 6.11488H18.0608C18.053 6.11361 18.0436 6.11361 18.0357 6.11488ZM16.4332 7.29584C16.097 7.32758 16.1222 7.82348 16.4596 7.82221H16.9238C17.0759 7.83288 17.2054 7.71125 17.2054 7.55763C17.2054 7.40426 17.0756 7.28543 16.9238 7.2961H16.4596C16.45 7.29457 16.4408 7.29457 16.4332 7.29584ZM18.0357 7.29584C17.6998 7.32758 17.7249 7.82348 18.0608 7.82221H18.5278C18.6812 7.83288 18.8081 7.71125 18.8081 7.55763C18.8081 7.40426 18.6812 7.28543 18.5278 7.2961H18.0608C18.053 7.29457 18.0436 7.29457 18.0357 7.29584ZM9.30198 13.4467C9.23317 13.4493 9.16867 13.4785 9.12068 13.5259C8.72533 13.9241 8.60752 14.5248 8.82055 15.0444C9.03207 15.5613 9.5399 15.9026 10.0995 15.9026C10.6599 15.9026 11.1652 15.5613 11.3795 15.0444C11.5923 14.5248 11.4747 13.9256 11.0794 13.5259C10.9773 13.4162 10.8042 13.4122 10.6995 13.5168C10.5929 13.6237 10.5939 13.7956 10.7036 13.8977C10.9496 14.1452 11.0251 14.518 10.8915 14.8433C10.7582 15.166 10.4471 15.376 10.0995 15.376C9.7542 15.376 9.44341 15.1673 9.30858 14.8433C9.17629 14.5193 9.25043 14.145 9.49369 13.8977C9.66559 13.7309 9.54269 13.4399 9.30198 13.4467Z" fill="#DBC67F"/>
<path id="Vector_4" d="M10.0973 13.088C9.95206 13.092 9.83703 13.2111 9.83932 13.3551L9.83398 14.465C9.83398 14.6092 9.95332 14.728 10.1003 14.728C10.2441 14.728 10.3631 14.6095 10.3621 14.465L10.3662 13.3551C10.3685 13.2086 10.2469 13.0857 10.0973 13.088Z" fill="#DBC67F"/>
</g>
</g>
</svg>
