<svg width="20" height="20" viewBox="0 0 20 20" fill="none" xmlns="http://www.w3.org/2000/svg">
<g id="IMAGE" clip-path="url(#clip0_31_1614)">
<path id="Vector" d="M10 0C11.3173 0 12.6097 0.271055 13.8413 0.805664C15.0248 1.31934 16.0951 2.05004 17.0225 2.97746C17.95 3.90488 18.6807 4.9752 19.1943 6.15867C19.7289 7.39027 20 8.6827 20 10C20 11.3173 19.7289 12.6097 19.1943 13.8413C18.6807 15.0248 17.95 16.0951 17.0225 17.0225C16.0951 17.95 15.0248 18.6807 13.8413 19.1943C12.6097 19.7289 11.3173 20 10 20C8.6827 20 7.39027 19.7289 6.15867 19.1943C4.9752 18.6807 3.90488 17.95 2.97746 17.0225C2.05 16.0951 1.3193 15.0248 0.805664 13.8413C0.271055 12.6097 0 11.3173 0 10C0 8.6827 0.271055 7.39027 0.805664 6.15867C1.31934 4.9752 2.05004 3.90488 2.97746 2.97746C3.90488 2.05004 4.9752 1.31934 6.15867 0.805664C7.39027 0.271055 8.6827 0 10 0ZM10 0.78125C5.00293 0.78125 0.78125 5.00293 0.78125 10C0.78125 14.9971 5.00293 19.2188 10 19.2188C14.9971 19.2188 19.2188 14.9971 19.2188 10C19.2188 5.00293 14.9971 0.78125 10 0.78125ZM10 1.67969C11.1052 1.67969 12.1855 1.90344 13.2108 2.34477C14.1974 2.76938 15.0875 3.37457 15.8565 4.14355C16.6255 4.9125 17.2307 5.80266 17.6553 6.78922C18.0966 7.81453 18.3203 8.8948 18.3203 10C18.3203 11.1052 18.0966 12.1855 17.6552 13.2108C17.2306 14.1974 16.6254 15.0875 15.8564 15.8565C15.0875 16.6255 14.1973 17.2307 13.2108 17.6553C12.1855 18.0966 11.1052 18.3203 10 18.3203C8.8948 18.3203 7.81453 18.0966 6.78922 17.6553C5.80262 17.2306 4.9125 16.6255 4.14352 15.8564C3.37453 15.0875 2.76934 14.1973 2.34473 13.2108C1.90344 12.1855 1.67969 11.1052 1.67969 10C1.67969 8.49789 2.19258 6.9318 3.16289 5.47098C3.28227 5.29129 3.52465 5.24234 3.70441 5.36172C3.8841 5.48109 3.93301 5.72352 3.81363 5.90324C2.92871 7.23551 2.46094 8.65219 2.46094 10C2.46094 14.0866 5.9134 17.5391 10 17.5391C14.0866 17.5391 17.5391 14.0866 17.5391 10C17.5391 5.9134 14.0866 2.46094 10 2.46094C8.65191 2.46094 7.23531 2.92883 5.90328 3.81398C5.72363 3.93336 5.48117 3.88453 5.36176 3.70484C5.24234 3.5252 5.29121 3.28273 5.4709 3.16332C6.93145 2.19273 8.49758 1.67969 10 1.67969ZM13.5156 6.48438C13.9329 6.48438 14.3252 6.64695 14.6204 6.94215C14.9155 7.23707 15.0781 7.62941 15.0781 8.04688C15.0781 8.41215 14.9536 8.7582 14.7247 9.03666L14.6202 9.15172L9.93285 13.8391C9.63766 14.1343 9.24531 14.2969 8.82812 14.2969C8.46309 14.2969 8.11707 14.1724 7.83851 13.9435L7.7234 13.8391L5.37965 11.4954C5.08449 11.2004 4.92188 10.8081 4.92188 10.3906C4.92188 9.97316 5.08449 9.58082 5.37977 9.28578C5.67484 8.9907 6.06715 8.82812 6.48438 8.82812C6.84945 8.82812 7.19544 8.9526 7.47399 9.18147L7.5891 9.2859L8.82812 10.5249L12.4109 6.94215C12.7061 6.64695 13.0984 6.48438 13.5156 6.48438ZM13.5156 7.26562C13.3488 7.26562 13.1899 7.31768 13.0574 7.41407L12.9633 7.49457L8.82812 11.6298L7.03668 9.83832C6.88902 9.6907 6.69289 9.60938 6.48438 9.60938C6.27586 9.60938 6.07973 9.6907 5.93207 9.83832C5.78441 9.9859 5.70312 10.182 5.70312 10.3906C5.70312 10.5575 5.75515 10.7164 5.8515 10.8488L5.93195 10.9428L8.27582 13.2867C8.42348 13.4343 8.61961 13.5156 8.82812 13.5156C8.99494 13.5156 9.15382 13.4636 9.28631 13.3672L9.38043 13.2867L14.0679 8.59918C14.2156 8.4516 14.2969 8.25551 14.2969 8.04688C14.2969 7.83824 14.2156 7.64215 14.068 7.49469C13.9203 7.34695 13.7241 7.26562 13.5156 7.26562ZM4.49219 4.10156C4.70781 4.10156 4.88281 4.27656 4.88281 4.49219C4.88281 4.70781 4.70781 4.88281 4.49219 4.88281C4.27656 4.88281 4.10156 4.70781 4.10156 4.49219C4.10156 4.27656 4.27656 4.10156 4.49219 4.10156Z" fill="#DBC67F"/>
</g>
<defs>
<clipPath id="clip0_31_1614">
<rect width="20" height="20" fill="white"/>
</clipPath>
</defs>
</svg>
