<svg width="20" height="20" viewBox="0 0 20 20" fill="none" xmlns="http://www.w3.org/2000/svg">
<g id="IMAGE">
<g id="Group">
<path id="Vector" d="M9.57691 0.105417C9.51389 0.0381583 9.42583 0 9.33366 0H2.00033C1.90815 0 1.82009 0.0381688 1.75707 0.105436C1.69405 0.172702 1.6617 0.263062 1.6677 0.355042L2.66699 15.6775V18.3333C2.66803 19.2534 3.41361 19.999 4.33366 20H16.667C17.587 19.999 18.3326 19.2534 18.3337 18.3333V13.6667C18.3329 13.0043 17.9405 12.405 17.3337 12.1396V11C17.3337 9.88017 16.8917 8.89367 16.0557 8.14717C15.6803 7.80917 15.2481 7.54022 14.7791 7.35275C14.6149 7.28751 14.4288 7.367 14.3625 7.53075C14.346 7.56179 14.1902 7.83792 13.7102 8.11346C13.2265 8.39117 12.3131 8.72221 10.7091 8.72221C10.0956 8.72221 9.56205 8.78457 9.10841 8.90929L9.66628 0.355125C9.67231 0.26311 9.63996 0.172707 9.57691 0.105417ZM8.97787 0.666667L8.93441 1.33333H2.39958L2.35612 0.666667H8.97787ZM7.00033 18V14H17.667V18H7.00033ZM5.00033 18V17.6667C5.00053 17.4827 5.14965 17.3335 5.33366 17.3333H6.00033C6.18433 17.3335 6.33345 17.4827 6.33366 17.6667V18H5.00033ZM6.33366 16.724C6.22663 16.686 6.11389 16.6666 6.00033 16.6667H5.33366C4.78163 16.6673 4.33428 17.1146 4.33366 17.6667V18H3.33366V16H6.33366V16.724ZM3.39099 18.6667H6.3672C6.41663 18.9085 6.51936 19.1362 6.66791 19.3333H4.33366C3.91008 19.3328 3.53264 19.0659 3.39099 18.6667ZM16.667 19.3333H8.00033C7.57675 19.3328 7.19931 19.0659 7.05766 18.6667H17.6097C17.468 19.0659 17.0906 19.3328 16.667 19.3333ZM17.6097 13.3333H7.05766C7.19931 12.9341 7.57675 12.6672 8.00033 12.6667H16.667C17.0906 12.6672 17.468 12.9341 17.6097 13.3333ZM8.00033 12V11.3333H16.667V12H8.00033ZM14.1197 8.64583C14.3718 8.49748 14.5972 8.30779 14.7864 8.08471C15.0916 8.23827 15.375 8.43184 15.6292 8.66029C16.2339 9.20737 16.5766 9.88112 16.6512 10.6667H8.01858C8.05724 10.4622 8.15015 10.2719 8.28758 10.1157C8.70008 9.64021 9.53758 9.38892 10.7091 9.38892C12.1628 9.38888 13.3102 9.13888 14.1197 8.64583ZM7.7697 9.69525C7.4702 10.0453 7.31534 10.4963 7.33666 10.9564C7.33471 10.9709 7.33371 10.9854 7.33366 11V12.1396C6.7268 12.405 6.33439 13.0043 6.33366 13.6667V15.3333H3.31283L2.44303 2H8.89095L8.42283 9.17762C8.17453 9.30751 7.95283 9.48316 7.7697 9.69525Z" fill="#DBC67F"/>
<path id="Vector_2" d="M14.1152 14.9866C13.634 14.7804 13.0014 14.6667 12.334 14.6667C11.6666 14.6667 11.034 14.7804 10.5528 14.9866C9.78236 15.3167 9.66732 15.7633 9.66732 16.0001C9.66732 16.2369 9.78236 16.6834 10.5528 17.0136C11.034 17.2198 11.6666 17.3334 12.334 17.3334C13.0014 17.3334 13.634 17.2198 14.1152 17.0136C14.8856 16.6834 15.0007 16.2369 15.0007 16.0001C15.0007 15.7633 14.8856 15.3167 14.1152 14.9866ZM12.334 16.6667C11.0933 16.6667 10.334 16.2351 10.334 16.0001C10.334 15.765 11.0933 15.3334 12.334 15.3334C13.5747 15.3334 14.334 15.765 14.334 16.0001C14.334 16.2351 13.5747 16.6667 12.334 16.6667ZM7.66732 2.66675H3.66732C3.48322 2.66675 3.33398 2.81599 3.33398 3.00008V5.00008C3.33398 5.18418 3.48322 5.33341 3.66732 5.33341H7.66732C7.85141 5.33341 8.00065 5.18418 8.00065 5.00008V3.00008C8.00065 2.81599 7.85141 2.66675 7.66732 2.66675ZM7.33398 4.66675H4.00065V3.33341H7.33398V4.66675ZM7.00065 6.00008H4.33398C4.14989 6.00008 4.00065 6.14932 4.00065 6.33341C4.00065 6.51751 4.14989 6.66675 4.33398 6.66675H7.00065C7.18475 6.66675 7.33398 6.51751 7.33398 6.33341C7.33398 6.14932 7.18475 6.00008 7.00065 6.00008Z" fill="#DBC67F"/>
</g>
</g>
</svg>
