<svg width="104" height="99" viewBox="0 0 104 99" fill="none" xmlns="http://www.w3.org/2000/svg">
<path id="Star 1" d="M55.1386 2.48923L67.9606 28.4695C68.6161 29.7977 69.8831 30.7182 71.3488 30.9312L100.02 35.0973C102.891 35.5145 104.037 39.0424 101.96 41.0673L81.213 61.2901C80.1525 62.3239 79.6685 63.8134 79.9189 65.2732L84.8164 93.8283C85.3068 96.6874 82.3058 98.8678 79.7381 97.5179L54.094 84.036C52.7831 83.3468 51.2169 83.3468 49.906 84.036L24.2619 97.5179C21.6942 98.8678 18.6932 96.6875 19.1836 93.8283L24.0811 65.2732C24.3315 63.8134 23.8475 62.3239 22.787 61.2901L2.04047 41.0673C-0.0368361 39.0424 1.10945 35.5145 3.98022 35.0973L32.6512 30.9312C34.1169 30.7182 35.3839 29.7977 36.0394 28.4695L48.8614 2.48923C50.1453 -0.112128 53.8547 -0.112132 55.1386 2.48923Z" stroke="#ECCE00"/>
</svg>
