<svg width="10" height="19" viewBox="0 0 10 19" fill="none" xmlns="http://www.w3.org/2000/svg">
<path id="Vector" d="M0.73541 0.449352C0.3955 0.566393 0.11772 0.855003 0.0301303 1.1875C0.00448034 1.27528 -0.00273994 4.31585 0.000870064 9.77569L0.0118902 18.2324L0.0958701 18.3859C0.22374 18.627 0.38467 18.788 0.60754 18.8976L0.81578 19H4.56163H8.30748L8.51572 18.8976C8.73859 18.788 8.89952 18.6272 9.02739 18.3859L9.11137 18.2324V9.69912V1.16565L9.00174 0.968243C8.86646 0.727133 8.66544 0.547964 8.4097 0.452965C8.21628 0.380003 8.13211 0.380003 4.56904 0.380003C1.16652 0.383614 0.91439 0.387222 0.73541 0.449352ZM8.61832 9.69912V16.5332H4.56182H0.50532V9.69912V2.86501H4.56182H8.61832V9.69912ZM4.89052 17.1253C5.10617 17.275 5.16469 17.3884 5.16469 17.6626C5.16469 17.8746 5.15006 17.9294 5.06608 18.039C4.92719 18.2218 4.74441 18.2985 4.5033 18.2801C3.90404 18.229 3.72126 17.4688 4.22913 17.1289C4.40089 17.0118 4.72237 17.0118 4.89052 17.1253Z" fill="#C4C4C4"/>
</svg>
