<svg width="16" height="16" viewBox="0 0 16 16" fill="none" xmlns="http://www.w3.org/2000/svg">
<g id="2179538710662f254b109a163a21595e 1" clip-path="url(#clip0_135_5865)">
<g id="Group">
<g id="Group_2">
<path id="Vector" d="M7.18419 0.19867C4.43107 0.51291 2.09827 2.17019 0.912188 4.66027C0.0558679 6.45515 -0.073732 8.55627 0.546908 10.4492C1.37155 12.9588 3.45315 14.9344 5.97459 15.5902C6.76403 15.7944 7.12931 15.8416 8.00899 15.8416C8.88483 15.8416 9.25395 15.7944 10.0317 15.594C12.7141 14.895 14.8938 12.7153 15.5928 10.0329C15.7931 9.25531 15.8402 8.88603 15.8402 8.01035C15.8402 7.13067 15.793 6.76539 15.5888 5.97595C14.933 3.45451 12.9575 1.37307 10.4479 0.54827C9.43843 0.21451 8.19747 0.0849104 7.18419 0.19867ZM8.92787 0.84283C11.2333 1.14523 13.2205 2.50411 14.3634 4.56203C14.7011 5.17083 14.9997 6.03083 15.141 6.81243C15.2431 7.36619 15.2431 8.65435 15.141 9.20811C14.7325 11.4388 13.4247 13.2691 11.4571 14.3648C10.8483 14.7025 9.98835 15.0011 9.20675 15.1424C8.65299 15.2444 7.36483 15.2444 6.81107 15.1424C4.29363 14.6828 2.26707 13.0569 1.31667 10.732C0.609628 9.00795 0.609628 7.01675 1.32051 5.28475C1.95667 3.72555 3.08003 2.47275 4.59603 1.63627C5.33827 1.22779 6.40659 0.90571 7.34131 0.81147C7.70643 0.77211 8.52339 0.791789 8.92787 0.84283Z" fill="#C4C4C4"/>
<path id="Vector_2" d="M7.69434 1.56941V2.04077H8.00857H8.32281V1.56941V1.09805H8.00857H7.69434V1.56941Z" fill="#C4C4C4"/>
<path id="Vector_3" d="M7.79274 3.08164L7.6945 3.17588V5.16308C7.6945 6.93829 7.68666 7.14645 7.63162 7.14645C7.52554 7.14645 7.16426 7.54309 7.11322 7.71989C7.0033 8.08901 7.08186 8.38357 7.36058 8.65861C7.63546 8.93749 7.93002 9.01605 8.2993 8.90597C8.4761 8.85493 8.87274 8.49365 8.87274 8.38757C8.87274 8.33269 9.06906 8.32469 10.699 8.32469H12.5291L12.6233 8.22645C12.7529 8.10085 12.7529 7.92005 12.6233 7.79445L12.5291 7.69621H10.699C9.06906 7.69621 8.87274 7.68837 8.87274 7.63333C8.87274 7.55477 8.46426 7.14629 8.3857 7.14629C8.33066 7.14629 8.32282 6.93813 8.32282 5.16293V3.17556L8.22458 3.08132C8.1657 3.01844 8.08314 2.98308 8.00858 2.98308C7.93402 2.9834 7.85162 3.01876 7.79274 3.08164ZM8.22474 7.79445C8.42106 7.98693 8.28362 8.32469 8.00874 8.32469C7.93418 8.32469 7.85162 8.28933 7.79274 8.22645C7.59642 8.03397 7.73386 7.69621 8.00874 7.69621C8.0833 7.69621 8.16586 7.73157 8.22474 7.79445Z" fill="#C4C4C4"/>
<path id="Vector_4" d="M1.09668 8.01047V8.32471H1.56804H2.0394V8.01047V7.69623H1.56804H1.09668V8.01047Z" fill="#C4C4C4"/>
<path id="Vector_5" d="M13.9785 8.01047V8.32471H14.4499H14.9212V8.01047V7.69623H14.4499H13.9785V8.01047Z" fill="#C4C4C4"/>
<path id="Vector_6" d="M7.69434 14.4512V14.9226H8.00857H8.32281V14.4512V13.9799H8.00857H7.69434V14.4512Z" fill="#C4C4C4"/>
</g>
</g>
</g>
<defs>
<clipPath id="clip0_135_5865">
<rect width="16" height="16" fill="white"/>
</clipPath>
</defs>
</svg>
