<svg width="16" height="16" viewBox="0 0 16 16" fill="none" xmlns="http://www.w3.org/2000/svg">
<path d="M8.00016 0.160156C3.67056 0.160156 0.160156 3.67056 0.160156 8.00016C0.160156 12.3298 3.67056 15.8402 8.00016 15.8402C12.3298 15.8402 15.8402 12.3298 15.8402 8.00016C15.8402 3.67056 12.3298 0.160156 8.00016 0.160156ZM8.00016 15.1282C6.32336 15.1282 4.78416 14.5458 3.56656 13.5762C4.05136 12.941 5.01936 12.2498 5.87216 11.9714C6.38736 11.8034 6.68496 11.5506 6.75696 11.2194C6.84976 10.8018 6.53136 10.4914 6.49456 10.4578C6.40176 10.373 6.26736 10.3426 6.14736 10.3794C6.12016 10.3874 5.53776 10.549 4.58096 10.117C4.86896 9.61776 5.11696 8.59536 5.11696 6.55376C5.11696 3.28336 6.57136 3.01296 8.19056 3.01296C9.31856 3.01296 10.8194 3.39856 10.8194 6.73296C10.8194 8.62896 11.117 9.57456 11.413 10.0466C11.0098 10.2002 10.3666 10.3794 9.66896 10.3202C9.51376 10.3042 9.37456 10.3922 9.31216 10.5314C9.17776 10.8354 9.16816 11.5218 10.0946 11.9346C10.8146 12.2562 11.6962 12.741 12.3922 13.605C11.181 14.557 9.65776 15.1282 8.00016 15.1282ZM12.9314 13.1378C12.149 12.1714 11.1778 11.637 10.3842 11.2834C10.2082 11.205 10.0962 11.1202 10.0306 11.0418C11.221 11.0194 12.1538 10.4946 12.197 10.4706C12.3202 10.4002 12.389 10.2642 12.3746 10.1234C12.3602 9.99536 12.2786 9.88336 12.1602 9.83376C12.109 9.79696 11.5314 9.32816 11.5314 6.73136C11.5314 3.79056 10.4082 2.29936 8.19056 2.29936C6.31856 2.29936 4.40496 2.80496 4.40496 6.55376C4.40496 9.27536 3.95056 9.80016 3.88016 9.86416C3.76016 9.89936 3.66576 9.99696 3.63536 10.1234C3.59856 10.277 3.66736 10.4354 3.80176 10.5154C4.80496 11.0978 5.59216 11.149 6.01616 11.117C5.96496 11.1602 5.86096 11.2258 5.65296 11.2946C4.67056 11.6162 3.62096 12.3634 3.03536 13.109C1.70416 11.8146 0.875356 10.0066 0.875356 8.00336C0.872156 4.06416 4.06416 0.872156 8.00016 0.872156C11.9362 0.872156 15.1282 4.06416 15.1282 8.00016C15.1282 10.021 14.2818 11.8418 12.9314 13.1378Z" fill="#C4C4C4"/>
</svg>
