<svg width="59" height="59" viewBox="0 0 59 59" fill="none" xmlns="http://www.w3.org/2000/svg">
<g id="Group 148">
<path id="Vector" d="M29.0121 58.0242C45.035 58.0242 58.0242 45.035 58.0242 29.0121C58.0242 12.9892 45.035 0 29.0121 0C12.9892 0 0 12.9892 0 29.0121C0 45.035 12.9892 58.0242 29.0121 58.0242Z" fill="url(#paint0_linear_4_1532)"/>
<path id="Vector_2" fill-rule="evenodd" clip-rule="evenodd" d="M13.1169 28.6984C21.5717 25.0266 27.2002 22.5868 30.0266 21.4031C38.0707 18.0453 39.7617 17.4656 40.8487 17.4414C41.0903 17.4414 41.6217 17.4897 41.9841 17.7796C42.274 18.0212 42.3464 18.3352 42.3947 18.5768C42.443 18.8183 42.4914 19.3256 42.443 19.7121C42.0082 24.3019 40.124 35.4381 39.1578 40.5593C38.7471 42.7334 37.9499 43.4581 37.1769 43.5305C35.4859 43.6755 34.2056 42.4193 32.5872 41.3564C30.0266 39.6896 28.6013 38.6509 26.1132 37.0082C23.2386 35.124 25.0986 34.0853 26.7413 32.3943C27.1761 31.9595 34.5922 25.1957 34.7371 24.5918C34.7613 24.5193 34.7612 24.2294 34.5922 24.0845C34.4231 23.9395 34.1815 23.9878 33.9882 24.0362C33.7225 24.0845 29.6642 26.79 21.765 32.1286C20.6055 32.9258 19.5667 33.3123 18.6246 33.2881C17.5859 33.264 15.6051 32.7084 14.1074 32.2252C12.2956 31.6455 10.8462 31.3314 10.967 30.3169C11.0395 29.7854 11.7642 29.254 13.1169 28.6984Z" fill="white"/>
</g>
<defs>
<linearGradient id="paint0_linear_4_1532" x1="28.9879" y1="0" x2="28.9879" y2="57.5652" gradientUnits="userSpaceOnUse">
<stop stop-color="#2AABEE"/>
<stop offset="1" stop-color="#229ED9"/>
</linearGradient>
</defs>
</svg>
