<svg width="59" height="59" viewBox="0 0 59 59" fill="none" xmlns="http://www.w3.org/2000/svg">
<g id="sc1.svg" clip-path="url(#clip0_4_1514)">
<path id="Vector" d="M29.0121 58.0242C45.035 58.0242 58.0242 45.035 58.0242 29.0121C58.0242 12.9892 45.035 0 29.0121 0C12.9892 0 0 12.9892 0 29.0121C0 45.035 12.9892 58.0242 29.0121 58.0242Z" fill="#48C857"/>
<path id="Vector_2" d="M12.1464 28.343C12.1453 31.3995 12.9475 34.3835 14.4725 37.0135L12 46L21.2383 43.5885C23.7837 44.9704 26.6493 45.6987 29.5659 45.6999H29.5733C39.1773 45.6999 46.996 37.9186 47 28.3565C47.0016 23.7219 45.1903 19.3644 41.9004 16.0864C38.6099 12.8083 34.2349 11.002 29.5733 11C19.9673 11 12.1504 18.7804 12.1464 28.343ZM17.6476 36.5603L17.3027 36.0151C15.8526 33.7199 15.0873 31.0672 15.0883 28.3438C15.0915 20.3959 21.5889 13.9293 29.5784 13.9293C33.4474 13.9308 37.0837 15.4324 39.8188 18.1568C42.5537 20.8814 44.0586 24.5034 44.0575 28.3551C44.054 36.3034 37.5564 42.7705 29.5729 42.7705H29.5673C26.9678 42.769 24.4184 42.0743 22.1951 40.7609L21.666 40.4487L16.1836 41.8796L17.6476 36.5603ZM29.5733 45.6999C29.5729 45.6999 29.5731 45.6999 29.5733 45.6999V45.6999Z" fill="url(#paint0_linear_4_1514)"/>
<path id="Vector_3" fill-rule="evenodd" clip-rule="evenodd" d="M24.8306 21.6969C24.4804 21.0342 24.1118 21.0209 23.7787 21.0092C23.5061 20.9994 23.1943 21 22.8829 21C22.571 21 22.0646 21.0996 21.6363 21.4978C21.2077 21.8961 20 22.8587 20 24.8165C20 26.7744 21.6754 28.6663 21.9088 28.9321C22.1426 29.1973 25.1429 33.3436 29.8941 34.9385C33.8431 36.2641 34.6467 36.0004 35.5038 35.934C36.3609 35.8678 38.2697 34.9717 38.6591 34.0424C39.0488 33.1133 39.0488 32.3169 38.932 32.1506C38.8151 31.9847 38.5033 31.8852 38.0359 31.6863C37.5682 31.4873 35.27 30.5245 34.8416 30.3917C34.4129 30.259 34.1013 30.1928 33.7895 30.5912C33.4778 30.9891 32.5825 31.8852 32.3097 32.1506C32.0371 32.4165 31.7643 32.4497 31.2968 32.2507C30.8292 32.051 29.3235 31.6312 27.5374 30.2757C26.1477 29.221 25.2095 27.9184 24.9367 27.52C24.6641 27.1221 24.9076 26.9065 25.142 26.7081C25.352 26.5298 25.6096 26.2435 25.8434 26.0113C26.0767 25.7789 26.1545 25.613 26.3103 25.3476C26.4663 25.082 26.3883 24.8496 26.2715 24.6505C26.1545 24.4515 25.2463 22.4837 24.8306 21.6969Z" fill="white"/>
</g>
<defs>
<linearGradient id="paint0_linear_4_1514" x1="29.5002" y1="46.001" x2="29.5002" y2="11.0011" gradientUnits="userSpaceOnUse">
<stop stop-color="#F9F9F9"/>
<stop offset="1" stop-color="white"/>
</linearGradient>
<clipPath id="clip0_4_1514">
<rect width="59" height="59" fill="white"/>
</clipPath>
</defs>
</svg>
