<svg width="58" height="58" viewBox="0 0 58 58" fill="none" xmlns="http://www.w3.org/2000/svg">
<g id="sc3.svg" clip-path="url(#clip0_4_1520)">
<g id="Clip path group">
<mask id="mask0_4_1520" style="mask-type:luminance" maskUnits="userSpaceOnUse" x="0" y="0" width="58" height="58">
<g id="clip0_36_575">
<path id="Vector" d="M58 0H0V58H58V0Z" fill="white"/>
</g>
</mask>
<g mask="url(#mask0_4_1520)">
<g id="Group">
<path id="Vector_2" d="M29.0121 58.0242C45.035 58.0242 58.0242 45.035 58.0242 29.0121C58.0242 12.9892 45.035 0 29.0121 0C12.9892 0 0 12.9892 0 29.0121C0 45.035 12.9892 58.0242 29.0121 58.0242Z" fill="#655CAC"/>
</g>
</g>
</g>
<path id="Vector_3" d="M39.9756 17.8194C39.2245 17.1473 36.2201 14.9336 29.4603 14.8941C29.4603 14.8941 21.5145 14.4197 17.6404 17.9775C15.4662 20.1517 14.7151 23.2747 14.6361 27.1883C14.557 31.1019 14.4384 38.4151 21.5145 40.4312V43.4751C21.5145 43.4751 21.475 44.7006 22.2656 44.9378C23.2539 45.254 23.8073 44.3053 24.7561 43.317C25.27 42.7636 25.9815 41.9729 26.4954 41.3405C31.3182 41.7358 35.0342 40.8265 35.469 40.6684C36.4573 40.3522 41.9521 39.6406 42.8614 32.3273C43.8101 24.7373 42.466 19.9541 39.9756 17.8194ZM40.8057 31.7344C40.0546 37.8617 35.5876 38.257 34.7575 38.4942C34.4017 38.6128 31.1601 39.4034 27.0489 39.1662C27.0489 39.1662 24.005 42.8426 23.0167 43.8309C22.8586 43.989 22.7004 44.0286 22.5818 44.0286C22.4237 43.989 22.3842 43.7914 22.3842 43.5147C22.3842 43.1194 22.4237 38.4547 22.4237 38.4547C16.4545 36.7944 16.8103 30.5484 16.8498 27.2673C16.9289 23.9862 17.5218 21.3377 19.3403 19.5192C22.6214 16.5544 29.3812 16.9892 29.3812 16.9892C35.0737 17.0288 37.8014 18.7286 38.4339 19.3216C40.4895 21.14 41.5568 25.4489 40.8057 31.7344Z" fill="white"/>
<path id="Vector_4" d="M32.2275 27.0302C32.1484 25.5279 31.3973 24.7373 29.9346 24.6582" stroke="white" stroke-linecap="round" stroke-linejoin="round"/>
<path id="Vector_5" d="M34.2044 27.6637C34.2439 26.2801 33.809 25.0941 32.9788 24.1848C32.1091 23.236 30.9231 22.7221 29.4209 22.6035" stroke="white" stroke-linecap="round" stroke-linejoin="round"/>
<path id="Vector_6" d="M36.1811 28.454C36.1811 26.0425 35.43 24.1449 34.0068 22.7612C32.5837 21.3776 30.8047 20.666 28.6699 20.666" stroke="white" stroke-linecap="round" stroke-linejoin="round"/>
<path id="Vector_7" d="M30.0136 32.1297C30.0136 32.1297 30.567 32.1692 30.8437 31.8134L31.3972 31.1019C31.6739 30.7461 32.3064 30.5089 32.9784 30.8647C33.3342 31.0624 33.9667 31.4577 34.362 31.7739C34.7969 32.0902 35.6666 32.8017 35.6666 32.8017C36.1014 33.1575 36.1805 33.6714 35.9037 34.2248C35.627 34.7388 35.2317 35.2131 34.7178 35.648C34.3225 36.0038 33.9272 36.1619 33.5319 36.2409H33.3737C33.2156 36.2409 33.018 36.2014 32.8598 36.1619C32.2669 36.0038 31.2786 35.5689 29.5787 34.6597C28.5114 34.0667 27.6022 33.4342 26.8511 32.8413C26.4558 32.525 26.0209 32.1692 25.6256 31.7344L25.4675 31.5763C25.0327 31.1414 24.6769 30.7461 24.3606 30.3508C23.7677 29.5997 23.1352 28.6905 22.5422 27.6231C21.633 25.9628 21.1981 24.9745 21.04 24.342C21.0005 24.1839 20.9609 24.0258 20.9609 23.8281V23.67C21.0005 23.2747 21.1981 22.8794 21.5539 22.4841C21.9887 22.0097 22.4631 21.6144 22.977 21.2981C23.5305 21.0214 24.0444 21.1005 24.4002 21.5353C24.4002 21.5353 25.1117 22.405 25.428 22.8399C25.7047 23.2352 26.1 23.8677 26.3372 24.2235C26.693 24.856 26.4558 25.528 26.1395 25.8047L25.428 26.3581C25.0722 26.6349 25.1117 27.1883 25.1117 27.1883C25.1117 27.1883 26.1 31.1019 30.0136 32.1297Z" fill="white"/>
</g>
<defs>
<clipPath id="clip0_4_1520">
<rect width="58" height="58" fill="white"/>
</clipPath>
</defs>
</svg>
