<svg width="20" height="20" viewBox="0 0 20 20" fill="none" xmlns="http://www.w3.org/2000/svg">
<g id="IMAGE">
<g id="Group">
<path id="Vector" d="M13.7403 10.9305C11.4975 9.39943 8.52086 9.38736 6.26041 10.9305C5.58475 11.3918 5.4969 12.358 6.0774 12.9384C6.52107 13.3822 7.22423 13.4467 7.74961 13.0908C9.10366 12.1733 10.892 12.1699 12.251 13.0908C13.1788 13.7195 14.4054 12.9871 14.3025 11.8863C14.2662 11.4981 14.0613 11.1497 13.7403 10.9305ZM13.4813 12.4965C13.2489 12.729 12.8789 12.7613 12.6016 12.5734C11.0364 11.5128 8.97046 11.5086 7.39907 12.5734C7.12181 12.7614 6.75185 12.729 6.51939 12.4965C6.2156 12.1927 6.26076 11.687 6.61283 11.4468C8.64808 10.0572 11.345 10.052 13.3879 11.4468C13.7406 11.6875 13.7845 12.1933 13.4813 12.4965Z" fill="#DBC67F"/>
<path id="Vector_2" d="M16.6766 8.13683C12.7868 4.99729 7.21966 4.99214 3.32349 8.13683C2.71845 8.62519 2.67205 9.53334 3.22228 10.0835C3.69719 10.5584 4.45039 10.5981 4.97441 10.1756C7.89208 7.82363 12.0884 7.80781 15.0257 10.1756C15.9068 10.886 17.221 10.2194 17.1606 9.08491C17.141 8.7148 16.9645 8.36921 16.6766 8.13683ZM16.3359 9.64154C16.0873 9.89014 15.6927 9.9106 15.4179 9.68904C12.2722 7.15321 7.74903 7.13622 4.58219 9.68904C4.30738 9.9106 3.91278 9.8901 3.66423 9.64154C3.38259 9.35991 3.39243 8.88433 3.71606 8.62319C7.36399 5.67889 12.6114 5.65893 16.2841 8.62319C16.6079 8.88448 16.6174 9.3601 16.3359 9.64154Z" fill="#DBC67F"/>
<path id="Vector_3" d="M19.999 6.2688C19.9854 5.90517 19.8195 5.56052 19.5438 5.32322C14.0585 0.601192 5.93133 0.610021 0.456224 5.32318C0.180523 5.56052 0.0145874 5.90517 0.000993816 6.2688C-0.0417792 7.41421 1.30583 8.05378 2.17023 7.31007C6.67058 3.43749 13.3378 3.44476 17.8297 7.31007C18.6955 8.05487 20.0417 7.41292 19.999 6.2688ZM19.1736 6.80375C18.921 7.05644 18.5098 7.07066 18.2374 6.83629C13.5031 2.76246 6.48921 2.7691 1.76262 6.83629C1.49024 7.07074 1.07899 7.0564 0.826377 6.80375C0.54509 6.5225 0.558957 6.05946 0.863993 5.79685C6.11473 1.27681 13.8951 1.28521 19.136 5.79689C19.4375 6.05634 19.4582 6.51918 19.1736 6.80375ZM10 18.2156C8.79384 18.2156 7.81252 17.2343 7.81252 16.0281C7.81252 14.8219 8.79384 13.8406 10 13.8406C11.2062 13.8406 12.1875 14.8219 12.1875 16.0281C12.1875 17.2343 11.2062 18.2156 10 18.2156ZM10 14.4656C9.13845 14.4656 8.43752 15.1665 8.43752 16.0281C8.43752 16.8896 9.13845 17.5906 10 17.5906C10.8616 17.5906 11.5625 16.8896 11.5625 16.0281C11.5625 15.1665 10.8616 14.4656 10 14.4656Z" fill="#DBC67F"/>
</g>
</g>
</svg>
