<svg width="20" height="20" viewBox="0 0 20 20" fill="none" xmlns="http://www.w3.org/2000/svg">
<g id="IMAGE" clip-path="url(#clip0_31_1618)">
<g id="Group">
<path id="Vector" d="M10.001 14.375H1.87598C1.35821 14.375 0.938477 13.9553 0.938477 13.4375V0.9375C0.938477 0.419733 1.35821 0 1.87598 0H10.001C10.5187 0 10.9385 0.419733 10.9385 0.9375V13.4375C10.9385 13.9553 10.5187 14.375 10.001 14.375ZM1.87598 0.625C1.70339 0.625 1.56348 0.764911 1.56348 0.9375V13.4375C1.56348 13.6101 1.70339 13.75 1.87598 13.75H10.001C10.1736 13.75 10.3135 13.6101 10.3135 13.4375V0.9375C10.3135 0.764911 10.1736 0.625 10.001 0.625H1.87598Z" fill="#DBC67F"/>
<path id="Vector_2" d="M5.93856 6.87502C4.80101 6.87502 3.77547 6.18978 3.34015 5.13882C2.90483 4.08786 3.14545 2.87815 3.94982 2.07378C4.75419 1.26941 5.9639 1.02879 7.01486 1.46411C8.06582 1.89943 8.75106 2.92497 8.75106 4.06252C8.74934 5.61511 7.49115 6.8733 5.93856 6.87502ZM5.93856 1.87502C4.73044 1.87502 3.75106 2.8544 3.75106 4.06252C3.75106 5.27064 4.73044 6.25002 5.93856 6.25002C7.14668 6.25002 8.12606 5.27064 8.12606 4.06252C8.12468 2.85497 7.14611 1.8764 5.93856 1.87502Z" fill="#DBC67F"/>
<path id="Vector_3" d="M5.93848 5.9375C4.90294 5.9375 4.06348 5.09803 4.06348 4.0625C4.06348 3.02697 4.90294 2.1875 5.93848 2.1875C6.97401 2.1875 7.81348 3.02697 7.81348 4.0625C7.81244 5.09761 6.97358 5.93647 5.93848 5.9375ZM5.93848 2.8125C5.24812 2.8125 4.68848 3.37214 4.68848 4.0625C4.68848 4.75286 5.24812 5.3125 5.93848 5.3125C6.62883 5.3125 7.18848 4.75286 7.18848 4.0625C7.18848 3.37214 6.62883 2.8125 5.93848 2.8125Z" fill="#DBC67F"/>
<path id="Vector_4" d="M4.37695 3.75H5.31395V4.375H4.37695V3.75Z" fill="#DBC67F"/>
<path id="Vector_5" d="M5.31348 7.5H6.56348V8.125H5.31348V7.5Z" fill="#DBC67F"/>
<path id="Vector_6" d="M5.31348 8.75H6.56348V9.375H5.31348V8.75Z" fill="#DBC67F"/>
<path id="Vector_7" d="M9.68848 15.625H7.18848C7.01589 15.625 6.87598 15.4851 6.87598 15.3125V14.0625H7.50098V15H9.37598V14.0625H10.001V15.3125C10.001 15.4851 9.86107 15.625 9.68848 15.625ZM4.68848 15.625H2.18848C2.01589 15.625 1.87598 15.4851 1.87598 15.3125V14.0625H2.50098V15H4.37598V14.0625H5.00098V15.3125C5.00098 15.4851 4.86107 15.625 4.68848 15.625Z" fill="#DBC67F"/>
<path id="Vector_8" d="M13.4385 18.75H10.3135C9.45096 18.749 8.75201 18.05 8.75098 17.1875V15.3125H9.37598V17.1875C9.37598 17.7053 9.79571 18.125 10.3135 18.125H13.4385C13.9562 18.125 14.376 17.7053 14.376 17.1875V12.8125H15.001V17.1875C14.9999 18.05 14.301 18.749 13.4385 18.75Z" fill="#DBC67F"/>
<path id="Vector_9" d="M14.0635 20H9.68848C8.48092 19.9986 7.50235 19.0201 7.50098 17.8125V15.3125H8.12598V17.8125C8.12701 18.675 8.82596 19.374 9.68848 19.375H14.0635C14.926 19.374 15.6249 18.675 15.626 17.8125V12.8125H16.251V17.8125C16.2496 19.0201 15.271 19.9986 14.0635 20Z" fill="#DBC67F"/>
<path id="Vector_10" d="M3.75195 15.313H4.37695V18.438H3.75195V15.313Z" fill="#DBC67F"/>
<path id="Vector_11" d="M2.50195 15.313H3.12695V19.688H2.50195V15.313Z" fill="#DBC67F"/>
<path id="Vector_12" d="M15.3135 7.5C13.2424 7.5 11.5635 5.82107 11.5635 3.75C11.5635 1.67893 13.2424 0 15.3135 0C17.3845 0 19.0635 1.67893 19.0635 3.75C19.0612 5.82014 17.3836 7.49776 15.3135 7.5ZM15.3135 0.625C13.5876 0.625 12.1885 2.02411 12.1885 3.75C12.1885 5.47589 13.5876 6.875 15.3135 6.875C17.0394 6.875 18.4385 5.47589 18.4385 3.75C18.4366 2.0249 17.0386 0.626894 15.3135 0.625Z" fill="#DBC67F"/>
<path id="Vector_13" d="M16.251 11.875H14.376C14.2034 11.875 14.0635 11.7351 14.0635 11.5625V8.87938L13.2175 8.03344C13.1589 7.97485 13.126 7.89537 13.126 7.8125V6.5625H13.751V7.68313L14.5969 8.52906C14.6555 8.58765 14.6885 8.66713 14.6885 8.75V11.25H15.9385V8.75C15.9385 8.66713 15.9714 8.58765 16.03 8.52906L16.876 7.68313V6.5625H17.501V7.8125C17.501 7.89537 17.468 7.97485 17.4094 8.03344L16.5635 8.87938V11.5625C16.5635 11.7351 16.4236 11.875 16.251 11.875Z" fill="#DBC67F"/>
<path id="Vector_14" d="M16.876 13.125H13.751C13.5784 13.125 13.4385 12.9851 13.4385 12.8125V11.5625C13.4385 11.3899 13.5784 11.25 13.751 11.25H14.376V11.875H14.0635V12.5H16.5635V11.875H16.251V11.25H16.876C17.0486 11.25 17.1885 11.3899 17.1885 11.5625V12.8125C17.1885 12.9851 17.0486 13.125 16.876 13.125Z" fill="#DBC67F"/>
<path id="Vector_15" d="M15.002 0.937988H15.627V1.56299H15.002V0.937988Z" fill="#DBC67F"/>
<path id="Vector_16" d="M15.002 2.18799H15.627V2.81299H15.002V2.18799Z" fill="#DBC67F"/>
<path id="Vector_17" d="M15.002 3.43799H15.627V4.06299H15.002V3.43799Z" fill="#DBC67F"/>
<path id="Vector_18" d="M15.002 4.68799H15.627V5.31299H15.002V4.68799Z" fill="#DBC67F"/>
<path id="Vector_19" d="M15.002 5.93799H15.627V6.56299H15.002V5.93799Z" fill="#DBC67F"/>
<path id="Vector_20" d="M17.502 3.43799H18.127V4.06299H17.502V3.43799Z" fill="#DBC67F"/>
<path id="Vector_21" d="M16.252 3.43799H16.877V4.06299H16.252V3.43799Z" fill="#DBC67F"/>
<path id="Vector_22" d="M13.752 3.43799H14.377V4.06299H13.752V3.43799Z" fill="#DBC67F"/>
<path id="Vector_23" d="M13.4385 1.875H14.0635V2.5H13.4385V1.875Z" fill="#DBC67F"/>
<path id="Vector_24" d="M16.5635 1.875H17.1885V2.5H16.5635V1.875Z" fill="#DBC67F"/>
<path id="Vector_25" d="M16.5635 5H17.1885V5.625H16.5635V5Z" fill="#DBC67F"/>
<path id="Vector_26" d="M13.4385 5H14.0635V5.625H13.4385V5Z" fill="#DBC67F"/>
<path id="Vector_27" d="M12.502 3.43799H13.127V4.06299H12.502V3.43799Z" fill="#DBC67F"/>
<path id="Vector_28" d="M3.75195 19.063H4.37695V19.688H3.75195V19.063Z" fill="#DBC67F"/>
</g>
</g>
<defs>
<clipPath id="clip0_31_1618">
<rect width="20" height="20" fill="white"/>
</clipPath>
</defs>
</svg>
