<svg width="20" height="20" viewBox="0 0 20 20" fill="none" xmlns="http://www.w3.org/2000/svg">
<g id="IMAGE" clip-path="url(#clip0_31_1608)">
<g id="Group">
<path id="Vector" d="M19 10.667H18.6667V3.66699C18.6667 2.00031 17.3334 0.666992 15.6667 0.666992C14.1913 0.666992 13.1302 1.76098 13.0114 3.36391C12.2369 3.51031 11.6667 4.17742 11.6667 5.00031C11.6667 5.20031 11.8 5.33363 12 5.33363H14.6667C14.8667 5.33363 15 5.20031 15 5.00031C15 4.18652 14.4424 3.52496 13.681 3.36879C13.7806 2.30957 14.4168 1.33363 15.6667 1.33363C16.9667 1.33363 18 2.36695 18 3.66695V10.667H7.96777C7.81699 9.89816 7.15223 9.33363 6.33336 9.33363C6.00004 8.93363 5.53336 8.66695 5.00004 8.66695C4.36672 8.66695 3.80004 9.03363 3.53336 9.56695C3.26668 9.43363 2.96668 9.33363 2.66668 9.33363C1.84781 9.33363 1.18305 9.89816 1.03227 10.667H1C0.43332 10.667 0 11.1003 0 11.667C0 12.2336 0.43332 12.667 1 12.667H1.40059L2.3 16.2336C2.56668 17.267 3.5 18.0003 4.56668 18.0003H4.83336L4.40004 18.867C4.30004 19.0337 4.36672 19.2337 4.53336 19.3003C4.56668 19.3336 4.63336 19.3336 4.66668 19.3336C4.8 19.3336 4.9 19.267 4.96668 19.167L5.55 18.0003H14.8L15.3667 19.1336C15.4334 19.267 15.5334 19.3336 15.6667 19.3336C15.7334 19.3336 15.7667 19.3336 15.8 19.267C15.9333 19.2003 16 19.0003 15.9333 18.8336L15.5158 17.9985C16.5478 17.9619 17.4402 17.2411 17.7 16.267L18.6078 12.667H19C19.5667 12.667 20 12.2336 20 11.667C20 11.1003 19.5667 10.667 19 10.667ZM14.3 4.66699H12.4C12.5333 4.26699 12.9333 4.00031 13.3667 4.00031C13.8 4.00031 14.1667 4.26699 14.3 4.66699ZM2.66668 10.0003C2.96668 10.0003 3.23336 10.1336 3.46668 10.367C3.53336 10.467 3.66668 10.5003 3.8 10.467C3.93332 10.4337 4 10.3337 4.03332 10.2003C4.13332 9.70031 4.53332 9.33363 5.03332 9.33363C5.4 9.33363 5.73332 9.50031 5.9 9.83363C5.96668 9.96695 6.13332 10.0336 6.26668 10.0003C6.3 10.0003 6.33336 10.0003 6.36668 10.0003C6.8 10.0003 7.16668 10.267 7.3 10.667H1.73332C1.86668 10.267 2.23332 10.0003 2.66668 10.0003ZM17.1 16.067C16.9 16.8003 16.2333 17.3337 15.4667 17.3337H4.6C3.83332 17.3337 3.16668 16.8004 2.96668 16.067L2.1 12.667H17.9L17.1 16.067ZM19 12.0003H18.3333H1.66668H1C0.8 12.0003 0.66668 11.867 0.66668 11.667C0.66668 11.467 0.8 11.3337 1 11.3337H1.33332H7.66664H19C19.2 11.3337 19.3333 11.467 19.3333 11.667C19.3333 11.867 19.2 12.0003 19 12.0003Z" fill="#DBC67F"/>
<path id="Vector_2" d="M12.0003 6.83356C12.2003 6.83356 12.3336 6.70024 12.3336 6.50024V6.33356C12.3336 6.13356 12.2003 6.00024 12.0003 6.00024C11.8003 6.00024 11.667 6.13356 11.667 6.33356V6.50024C11.667 6.70024 11.8003 6.83356 12.0003 6.83356ZM12.0003 8.36692C12.2003 8.36692 12.3336 8.20024 12.3336 8.0336V7.66692C12.3336 7.46692 12.2003 7.3336 12.0003 7.3336C11.8003 7.3336 11.667 7.46692 11.667 7.66692V8.0336C11.667 8.23356 11.8003 8.36692 12.0003 8.36692ZM12.0003 9.66692C12.2003 9.66692 12.3336 9.5336 12.3336 9.3336V9.16692C12.3336 8.96692 12.2003 8.8336 12.0003 8.8336C11.8003 8.8336 11.667 8.96692 11.667 9.16692V9.3336C11.667 9.53356 11.8003 9.66692 12.0003 9.66692ZM13.3336 6.83356C13.5336 6.83356 13.667 6.70024 13.667 6.50024V6.33356C13.667 6.13356 13.5336 6.00024 13.3336 6.00024C13.1336 6.00024 13.0003 6.13356 13.0003 6.33356V6.50024C13.0003 6.70024 13.1336 6.83356 13.3336 6.83356ZM13.0003 8.03356C13.0003 8.23356 13.1336 8.36688 13.3336 8.36688C13.5336 8.36688 13.667 8.20021 13.667 8.03356V7.66688C13.667 7.46688 13.5336 7.33356 13.3336 7.33356C13.1336 7.33356 13.0003 7.46688 13.0003 7.66688V8.03356ZM13.0003 9.33356C13.0003 9.53356 13.1336 9.66688 13.3336 9.66688C13.5336 9.66688 13.667 9.53356 13.667 9.33356V9.16688C13.667 8.96688 13.5336 8.83356 13.3336 8.83356C13.1336 8.83356 13.0003 8.96688 13.0003 9.16688V9.33356ZM14.667 6.83356C14.867 6.83356 15.0003 6.70024 15.0003 6.50024V6.33356C15.0003 6.13356 14.867 6.00024 14.667 6.00024C14.467 6.00024 14.3337 6.13356 14.3337 6.33356V6.50024C14.3336 6.70024 14.467 6.83356 14.667 6.83356ZM14.3336 8.03356C14.3336 8.23356 14.467 8.36688 14.667 8.36688C14.867 8.36688 15.0003 8.20024 15.0003 8.03356V7.66688C15.0003 7.46688 14.867 7.33356 14.667 7.33356C14.467 7.33356 14.3337 7.46688 14.3337 7.66688L14.3336 8.03356ZM14.3336 9.33356C14.3336 9.53356 14.467 9.66688 14.667 9.66688C14.867 9.66688 15.0003 9.53356 15.0003 9.33356V9.16688C15.0003 8.96688 14.867 8.83356 14.667 8.83356C14.467 8.83356 14.3336 8.96688 14.3336 9.16688V9.33356Z" fill="#DBC67F"/>
</g>
</g>
<defs>
<clipPath id="clip0_31_1608">
<rect width="20" height="20" fill="white"/>
</clipPath>
</defs>
</svg>
