<svg width="20" height="20" viewBox="0 0 20 20" fill="none" xmlns="http://www.w3.org/2000/svg">
<g id="IMAGE" clip-path="url(#clip0_31_1667)">
<path id="Vector" d="M17.5002 9H8.83357V1.93867C9.35328 1.75563 9.62619 1.18592 9.44311 0.666212C9.30228 0.266379 8.92415 -0.00078803 8.50024 1.81528e-06H1.83357C1.28257 -0.00103803 0.83503 0.444795 0.833986 0.995795C0.833196 1.41971 1.10036 1.79784 1.5002 1.93867V10C1.5002 10.5523 1.9479 11 2.5002 11H3.5002V14C3.50203 15.6561 4.84411 16.9982 6.5002 17V19.6667C6.5002 19.8507 6.64945 20 6.83353 20H12.8335C13.0176 20 13.1669 19.8507 13.1669 19.6667V16.983C16.1585 16.8055 18.4952 14.3303 18.5002 11.3333V11H18.8335C19.0176 11 19.1669 10.8508 19.1669 10.6667C19.1658 9.74667 18.4202 9.00109 17.5002 9ZM1.50024 1C1.50024 0.81592 1.64949 0.66667 1.83357 0.66667H8.50024C8.68432 0.66667 8.83357 0.81592 8.83357 1C8.83357 1.18409 8.68432 1.33334 8.50024 1.33334H1.83357C1.64945 1.33334 1.50024 1.18409 1.50024 1ZM2.50024 10.3333C2.31615 10.3333 2.1669 10.1841 2.1669 10V2H8.1669V10.3333H2.50024ZM12.5002 19.3333H7.1669V17H12.5002V19.3333ZM17.8336 11.3333C17.8304 14.0935 15.5937 16.3302 12.8336 16.3333H6.50024C5.21228 16.3317 4.16857 15.288 4.1669 14V11H17.8336V11.3333ZM8.83357 10.3333V9.66667H17.5002C17.9239 9.66717 18.3014 9.93408 18.4432 10.3333H8.83357Z" fill="#DBC67F"/>
</g>
<defs>
<clipPath id="clip0_31_1667">
<rect width="20" height="20" fill="white"/>
</clipPath>
</defs>
</svg>
