<svg width="20" height="20" viewBox="0 0 20 20" fill="none" xmlns="http://www.w3.org/2000/svg">
<g id="IMAGE" clip-path="url(#clip0_31_1660)">
<g id="Group">
<path id="Vector" d="M2.33333 13.6663C2.14924 13.6663 2 13.8156 2 13.9996V14.6663C2 14.8504 2.14924 14.9996 2.33333 14.9996C2.51743 14.9996 2.66667 14.8504 2.66667 14.6663V13.9996C2.66667 13.8156 2.51743 13.6663 2.33333 13.6663ZM2.33333 15.6663C2.14924 15.6663 2 15.8155 2 15.9996V16.6662C2 16.8503 2.14924 16.9996 2.33333 16.9996C2.51743 16.9996 2.66667 16.8503 2.66667 16.6662V15.9996C2.66667 15.8155 2.51743 15.6663 2.33333 15.6663Z" fill="#DBC67F"/>
<path id="Vector_2" d="M15 7.00414V2.66659C15 1.1713 12.8037 0 10 0C7.19633 0 5 1.1713 5 2.66659V7.00414C2.18367 7.04848 0 8.19978 0 9.66641V17.3329C0 18.2535 0.862333 19.0502 2.2 19.5275L2.21 19.5311C3.16226 19.8522 4.1618 20.0105 5.16667 19.9995C7.41 19.9995 9.27133 19.2958 10 18.2848C10.4861 18.874 11.1356 19.3063 11.8667 19.5275L11.8767 19.5311C12.8289 19.8522 13.8285 20.0105 14.8333 19.9995C17.7303 19.9995 20 18.8282 20 17.3329V9.66641C20 8.19978 17.8163 7.04848 15 7.00414ZM19.3333 9.66641C19.3333 10.633 17.525 11.6664 14.8333 11.6664C14.675 11.6664 14.52 11.6577 14.3643 11.65C14.6562 11.3879 14.8633 11.0447 14.9593 10.6644C16.2867 10.6424 17.6667 10.2767 17.6667 9.49974C17.6667 8.73077 16.315 8.36444 15 8.33578V7.66913C17.598 7.71279 19.3333 8.7211 19.3333 9.66641ZM10 12.333C9.2105 12.3403 8.42425 12.231 7.66667 12.0087V10.9997C7.66667 10.8156 7.51743 10.6664 7.33333 10.6664C7.14924 10.6664 7 10.8156 7 10.9997V11.7583C6.15733 11.3724 5.66667 10.844 5.66667 10.3331V4.01123C6.05807 4.3577 6.51009 4.6289 7 4.8112V5.66651C7 5.8506 7.14924 5.99984 7.33333 5.99984C7.51743 5.99984 7.66667 5.8506 7.66667 5.66651V5.0332C8.42758 5.23685 9.21232 5.33775 10 5.33319C11.877 5.33319 13.4777 4.80687 14.3333 4.01123V10.3331C14.3333 11.2997 12.592 12.333 10 12.333ZM2.998 9.51274C3.052 9.37275 3.728 9.03409 5 9.00509V9.9944C3.728 9.9664 3.052 9.62774 2.998 9.51274ZM15 9.00509C16.272 9.03409 16.948 9.37175 17.002 9.48674C16.948 9.62674 16.272 9.9654 15 9.9944V9.00509ZM10 0.666649C12.592 0.666649 14.3333 1.69995 14.3333 2.66659C14.3333 3.63324 12.592 4.66654 10 4.66654C9.14544 4.67701 8.29488 4.54833 7.48167 4.28555C7.46536 4.27768 7.44841 4.27121 7.431 4.26622C6.32467 3.8769 5.66667 3.25958 5.66667 2.66659C5.66667 1.69995 7.408 0.666649 10 0.666649ZM5 7.67046V8.33711C3.685 8.36577 2.33333 8.7321 2.33333 9.50108C2.33333 10.2781 3.71333 10.6437 5.04067 10.6657C5.13665 11.0461 5.3438 11.3892 5.63567 11.6514C5.48 11.659 5.325 11.6677 5.16667 11.6677C4.25351 11.6793 3.34461 11.5413 2.476 11.2594C2.46366 11.2539 2.45096 11.2492 2.438 11.2454C1.32667 10.8537 0.666667 10.2484 0.666667 9.66641C0.666667 8.7211 2.402 7.71279 5 7.67046ZM5.16667 19.3328C4.32079 19.3413 3.47831 19.2245 2.66667 18.9862V17.9995C2.66667 17.8154 2.51743 17.6662 2.33333 17.6662C2.14924 17.6662 2 17.8154 2 17.9995V18.7355C1.15633 18.3518 0.666667 17.8329 0.666667 17.3329V10.992C1.0597 11.3344 1.51142 11.6028 2 11.7843V12.6663C2 12.8504 2.14924 12.9997 2.33333 12.9997C2.51743 12.9997 2.66667 12.8504 2.66667 12.6663V12.01C3.48159 12.2301 4.32257 12.3387 5.16667 12.333C5.60757 12.3325 6.04797 12.303 6.485 12.2447C7.47823 12.7231 8.5643 12.9778 9.66667 12.991V17.3329C9.66667 18.2995 7.85833 19.3328 5.16667 19.3328ZM14.8333 19.3328C13.9875 19.3413 13.145 19.2245 12.3333 18.9862V17.9995C12.3333 17.8154 12.1841 17.6662 12 17.6662C11.8159 17.6662 11.6667 17.8154 11.6667 17.9995V18.7355C10.823 18.3518 10.3333 17.8355 10.3333 17.3329V12.991C11.4357 12.9778 12.5218 12.7231 13.515 12.2447C13.952 12.303 14.3924 12.3325 14.8333 12.333C16.7883 12.333 18.4543 11.7997 19.3333 10.992V17.3329C19.3333 18.2995 17.525 19.3328 14.8333 19.3328Z" fill="#DBC67F"/>
<path id="Vector_3" d="M12 13.6663C11.8159 13.6663 11.6667 13.8155 11.6667 13.9996V14.6663C11.6667 14.8504 11.8159 14.9996 12 14.9996C12.1841 14.9996 12.3333 14.8504 12.3333 14.6663V13.9996C12.3333 13.8155 12.1841 13.6663 12 13.6663ZM12 15.6663C11.8159 15.6663 11.6667 15.8155 11.6667 15.9996V16.6662C11.6667 16.8503 11.8159 16.9996 12 16.9996C12.1841 16.9996 12.3333 16.8503 12.3333 16.6662V15.9996C12.3333 15.8155 12.1841 15.6663 12 15.6663ZM10 3.66658C11.2847 3.66658 12.6667 3.29993 12.6667 2.49995C12.6667 1.69997 11.2847 1.33331 10 1.33331C8.71533 1.33331 7.33333 1.69997 7.33333 2.49995C7.33333 3.29993 8.71533 3.66658 10 3.66658ZM10 1.99996C11.2633 1.99996 11.94 2.35629 12 2.49995C11.94 2.64361 11.2633 2.99993 10 2.99993C8.71833 2.99993 8.04067 2.63328 8 2.50595C8.04067 2.36662 8.71833 1.99996 10 1.99996ZM7.33333 6.6665C7.14924 6.6665 7 6.81574 7 6.99983V7.66648C7 7.85057 7.14924 7.9998 7.33333 7.9998C7.51743 7.9998 7.66667 7.85057 7.66667 7.66648V6.99983C7.66667 6.81574 7.51743 6.6665 7.33333 6.6665ZM7.33333 8.66645C7.14924 8.66645 7 8.81568 7 8.99977V9.66642C7 9.85051 7.14924 9.99975 7.33333 9.99975C7.51743 9.99975 7.66667 9.85051 7.66667 9.66642V8.99977C7.66667 8.81568 7.51743 8.66645 7.33333 8.66645Z" fill="#DBC67F"/>
</g>
</g>
<defs>
<clipPath id="clip0_31_1660">
<rect width="20" height="20" fill="white"/>
</clipPath>
</defs>
</svg>
