<svg width="134" height="128" viewBox="0 0 134 128" fill="none" xmlns="http://www.w3.org/2000/svg">
<path id="Star 1" d="M63.4131 2.26794C64.8803 -0.705041 69.1197 -0.70504 70.5869 2.26794L88.1113 37.7761C88.6939 38.9567 89.8202 39.7749 91.123 39.9643L130.309 45.6583C133.589 46.135 134.9 50.1669 132.525 52.481L104.17 80.1203C103.228 81.0392 102.798 82.3632 103.02 83.6608L109.714 122.688C110.274 125.956 106.845 128.447 103.91 126.905L68.8614 108.479C67.6961 107.866 66.3039 107.866 65.1386 108.479L30.09 126.905C27.1555 128.447 23.7258 125.956 24.2862 122.688L30.9799 83.6608C31.2024 82.3632 30.7723 81.0392 29.8295 80.1203L1.47456 52.481C-0.899511 50.1669 0.410532 46.135 3.69141 45.6583L42.877 39.9643C44.1798 39.7749 45.3061 38.9567 45.8887 37.7761L63.4131 2.26794Z" fill="#ECCE00"/>
</svg>
