<svg width="16" height="20" viewBox="0 0 16 20" fill="none" xmlns="http://www.w3.org/2000/svg">
<g id="Group">
<path id="Vector" d="M12.9496 2.21516C9.98015 -0.738388 5.1846 -0.738388 2.21516 2.21516C-0.738388 5.16872 -0.738388 9.98015 2.21516 12.9496L7.58237 18.1898L12.9337 12.9337C15.9031 9.98015 15.9031 5.16872 12.9496 2.21516ZM12.0445 12.0286L7.58237 16.4113L3.12029 12.0445C1.92934 10.8535 1.27829 9.26558 1.27829 7.58237C1.27829 5.89917 1.92934 4.31123 3.12029 3.12029C4.31123 1.92934 5.89917 1.26241 7.58237 1.26241C9.26558 1.26241 10.8535 1.91346 12.0445 3.10441C13.2354 4.29536 13.8865 5.88329 13.8865 7.56649C13.9023 9.26558 13.2354 10.8376 12.0445 12.0286Z" fill="white"/>
<path id="Vector_2" d="M7.58264 4.32715C5.78828 4.32715 4.34326 5.78805 4.34326 7.56653C4.34326 9.34501 5.78828 10.8218 7.58264 10.8218C9.37701 10.8218 10.822 9.36089 10.822 7.58241C10.822 5.80393 9.37701 4.32715 7.58264 4.32715ZM7.58264 9.55144C6.50285 9.55144 5.61361 8.6622 5.61361 7.58241C5.61361 6.50261 6.50285 5.59749 7.58264 5.59749C8.66244 5.59749 9.55168 6.48674 9.55168 7.56653C9.55168 8.64632 8.66244 9.55144 7.58264 9.55144Z" fill="white"/>
<path id="Vector_3" d="M13.4577 18.7295H1.70703V19.9998H13.4577V18.7295Z" fill="white"/>
</g>
</svg>
