<svg width="14" height="16" viewBox="0 0 14 16" fill="none" xmlns="http://www.w3.org/2000/svg">
<path d="M11.7188 2.75H10.3125V1.22656C10.3125 1.05078 10.1367 0.875 9.96094 0.875H8.78906C8.58398 0.875 8.4375 1.05078 8.4375 1.22656V2.75H4.6875V1.22656C4.6875 1.05078 4.51172 0.875 4.33594 0.875H3.16406C2.95898 0.875 2.8125 1.05078 2.8125 1.22656V2.75H1.40625C0.615234 2.75 0 3.39453 0 4.15625V14.4688C0 15.2598 0.615234 15.875 1.40625 15.875H11.7188C12.4805 15.875 13.125 15.2598 13.125 14.4688V4.15625C13.125 3.39453 12.4805 2.75 11.7188 2.75ZM11.543 14.4688H1.58203C1.46484 14.4688 1.40625 14.4102 1.40625 14.293V5.5625H11.7188V14.293C11.7188 14.4102 11.6309 14.4688 11.543 14.4688Z" fill="#B20710"/>
</svg>
