<svg width="60" height="25" viewBox="0 0 60 25" fill="none" xmlns="http://www.w3.org/2000/svg">
<g id="Group 150">
<g id="Group">
<path id="Vector" d="M54.8614 25H48.4594V23.7953H54.8614C57.0646 23.7953 58.8577 21.9041 58.8577 19.5806C58.8577 17.2571 57.0646 15.3659 54.8614 15.3659H5.13856C2.30444 15.3659 0 12.9339 0 9.94655V9.90607C0 6.91707 2.30598 4.48669 5.13856 4.48669H50.9711V5.69136H5.13856C2.93544 5.69136 1.14224 7.58255 1.14224 9.90607V9.94655C1.14224 12.2701 2.93544 14.1613 5.13856 14.1613H54.8614C57.6956 14.1613 60 16.5933 60 19.5806C60.0015 22.568 57.6956 25 54.8614 25Z" fill="#173164"/>
</g>
<g id="Group_2">
<g id="Group_3">
<g id="Group_4">
<path id="Vector_2" d="M59.3673 3.06507H54.393C54.1965 3.06507 54.0383 2.8983 54.0383 2.69105C54.0383 2.48379 54.1965 2.31702 54.393 2.31702H59.3673C59.5638 2.31702 59.7219 2.48379 59.7219 2.69105C59.7219 2.89668 59.5638 3.06507 59.3673 3.06507Z" fill="url(#paint0_linear_401_728)"/>
<path id="Vector_3" d="M59.2508 7.77046H54.2765C54.08 7.77046 53.9219 7.60368 53.9219 7.39643C53.9219 7.18917 54.08 7.0224 54.2765 7.0224H59.2508C59.4473 7.0224 59.6055 7.18917 59.6055 7.39643C59.6055 7.60206 59.4473 7.77046 59.2508 7.77046Z" fill="url(#paint1_linear_401_728)"/>
</g>
<path id="Vector_4" d="M55.4815 8.99122H50.2033C48.1353 8.99122 46.4587 7.22308 46.4587 5.04206C46.4587 2.86103 48.1353 1.0929 50.2033 1.0929H55.4815V8.99122Z" fill="#173164"/>
<path id="Vector_5" d="M54.9641 10.0858H54.5541C53.9201 10.0858 53.4058 9.54341 53.4058 8.87469V1.21114C53.4058 0.542423 53.9201 0 54.5541 0H54.9641C55.5981 0 56.1124 0.542423 56.1124 1.21114V8.87469C56.1124 9.54341 55.5981 10.0858 54.9641 10.0858Z" fill="#E07019"/>
</g>
</g>
</g>
<defs>
<linearGradient id="paint0_linear_401_728" x1="54.0384" y1="2.69053" x2="59.7222" y2="2.69053" gradientUnits="userSpaceOnUse">
<stop stop-color="#1D1527"/>
<stop offset="0.2063" stop-color="#2C3952"/>
<stop offset="0.4615" stop-color="#3D5F80"/>
<stop offset="0.6882" stop-color="#497CA2"/>
<stop offset="0.8755" stop-color="#508DB7"/>
<stop offset="1" stop-color="#5393BE"/>
</linearGradient>
<linearGradient id="paint1_linear_401_728" x1="53.922" y1="7.39554" x2="59.6058" y2="7.39554" gradientUnits="userSpaceOnUse">
<stop stop-color="#1D1527"/>
<stop offset="0.2063" stop-color="#2C3952"/>
<stop offset="0.4615" stop-color="#3D5F80"/>
<stop offset="0.6882" stop-color="#497CA2"/>
<stop offset="0.8755" stop-color="#508DB7"/>
<stop offset="1" stop-color="#5393BE"/>
</linearGradient>
</defs>
</svg>
