<svg width="60" height="25" viewBox="0 0 60 25" fill="none" xmlns="http://www.w3.org/2000/svg">
<g id="Group 151">
<g id="Group">
<path id="Vector" d="M54.8634 20.7975H9.04854V19.5761H54.8634C57.0657 19.5761 58.8582 17.6587 58.8582 15.303V15.262C58.8582 12.9063 57.0657 10.9889 54.8634 10.9889H5.15966C2.32663 10.9889 0.0230713 8.52322 0.0230713 5.49445C0.0230713 2.46569 2.32817 0 5.15966 0H11.5593V1.22135H5.15966C2.95739 1.22135 1.16488 3.13875 1.16488 5.49445C1.16488 7.85016 2.95739 9.76755 5.15966 9.76755H54.8634C57.6965 9.76755 60 12.2332 60 15.262V15.303C60.0016 18.3334 57.6965 20.7975 54.8634 20.7975Z" fill="#173164"/>
</g>
<g id="Group_2">
<g id="Group_3">
<path id="Vector_2" d="M0.632324 15.8842H5.90856C7.97578 15.8842 9.65166 17.6768 9.65166 19.888C9.65166 22.0993 7.97578 23.8919 5.90856 23.8919H0.632324V15.8842Z" fill="#173164"/>
<path id="Vector_3" d="M1.14794 14.7744H1.5577C2.19153 14.7744 2.70565 15.3243 2.70565 16.0023V23.7721C2.70565 24.45 2.19153 25 1.5577 25H1.14794C0.514119 25 0 24.45 0 23.7721V16.0023C0 15.3243 0.514119 14.7744 1.14794 14.7744Z" fill="#E07019"/>
</g>
</g>
</g>
</svg>
