<svg width="32" height="17" viewBox="0 0 32 17" fill="none" xmlns="http://www.w3.org/2000/svg">
<g id="Group">
<g id="Group_2">
<path id="Vector" d="M27.446 0.0217961L27.4047 0.0131608C27.0706 -0.0530459 26.7429 0.136942 26.6665 0.439189L25.9824 3.24578L27.2328 3.49333L27.9169 0.68674C27.9901 0.387371 27.7801 0.0880027 27.446 0.0217961Z" fill="#E07019"/>
<path id="Vector_2" d="M31.0127 0.732798L30.9713 0.724163C30.6372 0.657956 30.3095 0.847944 30.2331 1.15019L29.5491 3.95678L30.7995 4.20433L31.4836 1.39774C31.5567 1.09837 31.3467 0.799005 31.0127 0.732798Z" fill="#E07019"/>
</g>
<path id="Vector_3" d="M31.1623 4.99018L24.732 3.70922C24.1561 3.59407 23.5834 3.92511 23.4561 4.44612L22.8325 7.0138C22.6066 7.93781 23.1825 8.84167 24.137 9.16119L24.0193 9.64479C23.8729 10.2406 24.2897 10.8279 24.9483 10.9603L25.8201 11.133C25.1106 13.1019 23.4275 14.783 21.2766 15.5487C18.0599 16.6915 14.2864 15.9459 11.741 13.8791C11.3783 13.5855 11.0442 13.2689 10.7292 12.9321C10.9169 12.722 11.0983 12.5061 11.2669 12.2758C12.2946 10.8768 12.8578 9.14968 12.6064 7.4686C12.4791 6.62807 12.1196 5.75299 11.3942 5.18303C10.7133 4.6505 9.74603 4.37417 8.85833 4.59582C6.97793 5.06214 6.92702 7.0944 7.24838 8.49913C7.61109 10.0823 8.3588 11.5907 9.41195 12.8976C7.15293 14.9759 3.71348 15.7387 0.490385 15.6782C-0.165051 15.6667 -0.16187 16.585 0.490385 16.5965C3.94892 16.6627 7.5761 15.8193 10.0388 13.6143C12.4887 16.1532 16.2399 17.4744 19.9562 16.844C23.1634 16.3029 25.8615 14.095 26.8256 11.3345L27.5987 11.4899C28.2573 11.6223 28.9064 11.2453 29.0528 10.6494L29.1705 10.1658C30.1823 10.2406 31.1273 9.63616 31.35 8.71502L31.9736 6.14735C32.104 5.62057 31.7381 5.10532 31.1623 4.99018ZM8.90606 10.2464C8.59425 9.57282 8.3588 8.86182 8.2029 8.14506C8.06608 7.51466 7.99608 6.78351 8.28562 6.17902C8.57834 5.56589 9.26241 5.32408 9.95603 5.49679C10.7515 5.69254 11.2414 6.32007 11.4674 7.00516C11.9287 8.40989 11.531 9.99021 10.7674 11.2481C10.5637 11.5849 10.3315 11.8901 10.0833 12.1837C9.61877 11.5763 9.22105 10.9286 8.90606 10.2464Z" fill="#E07019"/>
</g>
</svg>
