<svg width="20" height="19" viewBox="0 0 20 19" fill="none" xmlns="http://www.w3.org/2000/svg">
<g id="1-51_icon-icons.com_60330 1" clip-path="url(#clip0_22_1443)">
<g id="Group">
<path id="Vector" d="M18.125 2.53843H19.375H19.6875V0.600098H0.3125V2.53843H0.625H1.875V4.75366H0.3125V7.66115H1.875V9.87638H0.3125V12.7839H1.875V17.7681H18.125V12.7839H19.6875V9.87638H18.125V7.66115H19.6875V4.75366H18.125V2.53843ZM0.9375 1.98462V1.15391H19.0625V1.98462H17.5H2.5H0.9375ZM0.9375 5.30747H6.5625V7.10734H0.9375V5.30747ZM5.9375 4.75366H3.4375V3.64604H5.9375V4.75366ZM0.9375 10.4302H6.5625V12.2301H0.9375V10.4302ZM5.9375 9.87638H3.4375V8.76877H5.9375V9.87638ZM10.9375 17.2143H9.0625V13.8915H10.9375V17.2143ZM19.0625 12.2301H13.4375V10.4302H19.0625V12.2301ZM16.5625 9.87638H14.0625V8.76877H16.5625V9.87638ZM17.5 9.87638H17.1875V8.21496H13.4375V9.87638H12.8125V12.7839H17.5V17.2143H11.5625V13.3377H8.4375V17.2143H2.5V12.7839H7.1875V9.87638H6.5625V8.21496H2.8125V9.87638H2.5V7.66115H7.1875V4.75366H6.5625V3.09223H2.8125V4.75366H2.5V2.53843H17.5V4.75366H17.1875V3.09223H13.4375V4.75366H12.8125V7.66115H17.5V9.87638ZM16.5625 4.75366H14.0625V3.64604H16.5625V4.75366ZM19.0625 7.10734H13.4375V5.30747H19.0625V7.10734Z" fill="#DBC67F"/>
<path id="Vector_2" d="M8.125 6.13817H11.875V3.09222H8.125V6.13817ZM8.75 3.64603H11.25V5.58436H8.75V3.64603Z" fill="#DBC67F"/>
<path id="Vector_3" d="M8.125 11.2609H11.875V8.21497H8.125V11.2609ZM8.75 8.76877H11.25V10.7071H8.75V8.76877Z" fill="#DBC67F"/>
<path id="Vector_4" d="M2.8125 16.3836H6.5625V13.3377H2.8125V16.3836ZM3.4375 13.8915H5.9375V15.8298H3.4375V13.8915Z" fill="#DBC67F"/>
<path id="Vector_5" d="M17.1875 13.3377H13.4375V16.3836H17.1875V13.3377ZM16.5625 15.8298H14.0625V13.8915H16.5625V15.8298Z" fill="#DBC67F"/>
</g>
</g>
<defs>
<clipPath id="clip0_22_1443">
<rect width="20" height="17.7219" fill="white" transform="translate(0 0.323181)"/>
</clipPath>
</defs>
</svg>
