<svg width="20" height="20" viewBox="0 0 20 20" fill="none" xmlns="http://www.w3.org/2000/svg">
<g id="IMAGE">
<path id="Vector" d="M16.5659 10.0216H15.5076V6.17711H15.5292C16.089 6.17711 16.5443 5.72173 16.5443 5.16199V2.39741C16.5443 1.07546 15.4688 0 14.1469 0H5.8532C4.53126 0 3.45579 1.07546 3.45579 2.39741V5.16199C3.45579 5.72173 3.91117 6.17711 4.47091 6.17711H4.49251V10.0216H3.43419C3.06499 10.0216 2.76465 10.3219 2.76465 10.6911V11.3823C2.76465 11.7515 3.06499 12.0518 3.43419 12.0518H3.77199L3.14409 19.2724C3.12789 19.4589 3.19113 19.645 3.31761 19.7829C3.44409 19.9208 3.624 20 3.81113 20H4.19238C4.50508 20 4.78024 19.7782 4.84664 19.4727L5.70862 15.5076H14.2914L15.1534 19.4727C15.2199 19.7782 15.495 20 15.8077 20H16.1889C16.3761 20 16.556 19.9209 16.6825 19.7829C16.809 19.645 16.8722 19.459 16.856 19.2725L16.2281 12.0518H16.5659C16.9351 12.0518 17.2355 11.7515 17.2355 11.3823V10.6911C17.2355 10.3219 16.9351 10.0216 16.5659 10.0216ZM14.8597 10.0216H14.1253V6.17711H14.8597V10.0216ZM6.52275 10.0216V6.17711H13.4774V10.0216H6.52275ZM4.10374 5.16199V2.39741C4.10374 1.43274 4.88854 0.647948 5.8532 0.647948H14.1469C15.1116 0.647948 15.8964 1.43274 15.8964 2.39741V5.16199C15.8964 5.36445 15.7317 5.52916 15.5292 5.52916H4.47091C4.26845 5.52916 4.10374 5.36445 4.10374 5.16199ZM5.14046 6.17711H5.8748V10.0216H5.14046V6.17711ZM4.21346 19.3351C4.2113 19.3449 4.20245 19.3521 4.19238 19.3521H3.81113C3.80849 19.3521 3.80162 19.3521 3.79523 19.3451C3.78884 19.3381 3.7894 19.3312 3.78962 19.3286L4.42236 12.0518H5.79679L4.21346 19.3351ZM13.5402 12.0518L13.8501 13.4773H6.14996L6.45985 12.0518H13.5402ZM5.84949 14.8596L6.00914 14.1253H13.991L14.1506 14.8596H5.84949ZM16.2105 19.3286C16.2107 19.3311 16.2113 19.338 16.2049 19.345C16.1985 19.3521 16.1916 19.3521 16.189 19.3521H15.8077C15.7975 19.3521 15.7888 19.3451 15.7866 19.335L14.2033 12.0518H15.5778L16.2105 19.3286ZM16.5875 11.3823C16.5875 11.3942 16.5778 11.4039 16.5659 11.4039H3.43419C3.42232 11.4039 3.4126 11.3942 3.4126 11.3823V10.6911C3.4126 10.6792 3.42232 10.6695 3.43419 10.6695H16.5659C16.5778 10.6695 16.5875 10.6792 16.5875 10.6911V11.3823Z" fill="#DBC67F"/>
</g>
</svg>
