<svg width="20" height="20" viewBox="0 0 20 20" fill="none" xmlns="http://www.w3.org/2000/svg">
<g id="IMAGE">
<g id="Group">
<path id="Vector" d="M18.4535 0H1.54553C1.38333 0 1.25195 0.131378 1.25195 0.293579V19.7064C1.25195 19.8686 1.38333 20 1.54553 20H2.48486C2.64691 20 2.77844 19.8686 2.77844 19.7064V19.0607H17.2206V19.7064C17.2206 19.8686 17.3521 20 17.5142 20H18.4535C18.6157 20 18.7471 19.8686 18.7471 19.7064V0.293579C18.7471 0.131378 18.6157 0 18.4535 0ZM18.1599 18.4735H10.2931V18.1213H17.5142C17.6764 18.1213 17.8077 17.99 17.8077 17.8278V10.1566C17.8077 9.99435 17.6764 9.86298 17.5142 9.86298C17.3521 9.86298 17.2206 9.99435 17.2206 10.1566V11.272H10.2931V9.66736H15.9486C16.1108 9.66736 16.2422 9.53598 16.2422 9.37378V6.12823L17.2206 5.73685V8.74756C17.2206 8.90976 17.3521 9.04114 17.5142 9.04114C17.6764 9.04114 17.8077 8.90976 17.8077 8.74756V1.23291C17.8077 1.07071 17.6764 0.939331 17.5142 0.939331H10.2931V0.587158H18.1599V18.4735ZM13.1501 1.52649V2.50488H11.8586V1.52649H13.1501ZM17.2206 1.52649V4.27979L16.1975 2.64282C16.1445 2.55814 16.0486 2.50488 15.9486 2.50488H13.7373V1.52649H17.2206ZM16.2422 3.82202L17.0791 5.16113L16.2422 5.49591V3.82202ZM10.2931 9.0802V3.09204H10.3676C10.4995 3.63052 10.9863 4.03137 11.5651 4.03137C12.1438 4.03137 12.6306 3.63052 12.7626 3.09204H13.7764V9.0802H10.2931ZM10.2931 14.9902H17.2206V17.5342H10.2931V14.9902ZM17.2206 14.4031H10.2931V11.8591H17.2206V14.4031ZM11.5651 3.09204H12.1396C12.0324 3.30078 11.8155 3.44421 11.5651 3.44421C11.3147 3.44421 11.0977 3.30078 10.9906 3.09204H11.5651ZM15.655 4.78088L14.5996 3.09204H15.655V4.78088ZM14.3635 3.82202L15.2005 5.16113L14.3635 5.49591V3.82202ZM14.3635 6.12823L15.655 5.61172V9.0802H14.3635V6.12823ZM11.2715 2.50488H10.2931V1.52649H11.2715V2.50488ZM2.19128 19.4128H1.83911V19.0607H2.19128V19.4128ZM1.83911 18.4735V0.587158H9.70593V18.4735H1.83911ZM18.1599 19.4128H17.8077V19.0607H18.1599V19.4128Z" fill="#DBC67F"/>
<path id="Vector_2" d="M14.3832 15.9686H13.1307C12.9687 15.9686 12.8372 16.1 12.8372 16.2622C12.8372 16.4244 12.9687 16.5558 13.1307 16.5558H14.3832C14.5454 16.5558 14.6768 16.4244 14.6768 16.2622C14.6768 16.1 14.5454 15.9686 14.3832 15.9686ZM13.1307 13.1116H14.3832C14.5454 13.1116 14.6768 12.9802 14.6768 12.818C14.6768 12.6558 14.5454 12.5244 14.3832 12.5244H13.1307C12.9687 12.5244 12.8372 12.6558 12.8372 12.818C12.8372 12.9802 12.9687 13.1116 13.1307 13.1116ZM8.12097 0.939331H2.48499C2.32278 0.939331 2.19141 1.07071 2.19141 1.23291V17.8278C2.19141 17.99 2.32278 18.1213 2.48499 18.1213H8.12097C8.28302 18.1213 8.41455 17.99 8.41455 17.8278V1.23291C8.41455 1.07071 8.28302 0.939331 8.12097 0.939331ZM7.82739 17.5342H2.77856V1.52649H7.82739V17.5342ZM9.0603 8.45398C8.89825 8.45398 8.76672 8.58536 8.76672 8.74756V10.6262C8.76672 10.7884 8.89825 10.9198 9.0603 10.9198C9.22235 10.9198 9.35388 10.7884 9.35388 10.6262V8.74756C9.35388 8.58536 9.22235 8.45398 9.0603 8.45398Z" fill="#DBC67F"/>
</g>
</g>
</svg>
