<svg width="20" height="20" viewBox="0 0 20 20" fill="none" xmlns="http://www.w3.org/2000/svg">
<g id="IMAGE" clip-path="url(#clip0_31_1502)">
<path id="Vector" d="M17.4725 8.3569C17.2638 8.3569 17.0611 8.38281 16.8669 8.43077V4.45069C16.8669 2.36711 15.1718 0.671997 13.0883 0.671997H6.91175C4.82817 0.671997 3.13306 2.36711 3.13306 4.45069V8.43077C2.93891 8.38281 2.73619 8.3569 2.52747 8.3569C1.13379 8.3569 0 9.49069 0 10.8844C0 11.7548 0.44349 12.5541 1.1702 13.0164V16.6362C1.1702 17.2636 1.56906 17.7997 2.12651 18.0041V18.9942C2.12651 19.1783 2.27577 19.3276 2.45986 19.3276H4.99529C5.17939 19.3276 5.32864 19.1783 5.32864 18.9942V18.0926H14.6714V18.9942C14.6714 19.1783 14.8206 19.3276 15.0047 19.3276H17.5401C17.7242 19.3276 17.8735 19.1783 17.8735 18.9942V18.0041C18.4309 17.7997 18.8298 17.2636 18.8298 16.6362V13.0164C19.5565 12.5541 20 11.7548 20 10.8844C20 9.49069 18.8662 8.3569 17.4725 8.3569ZM3.79976 4.45069C3.79976 2.73473 5.19579 1.3387 6.91175 1.3387H13.0883C14.8042 1.3387 16.2002 2.73473 16.2002 4.45069V8.70185C15.4502 9.14076 14.9451 9.9544 14.9451 10.8844V11.8904H5.05494V10.8844C5.05494 9.95445 4.54975 9.14076 3.79976 8.70185V4.45069ZM14.9451 15.5459H5.05494V12.5571H14.9451V15.5459ZM5.05494 17.4259V16.2126H14.9451V17.4259H5.05494ZM1.8369 16.6362V12.843C1.83748 12.8326 1.83752 12.8222 1.83712 12.8117C1.83232 12.693 1.76481 12.5858 1.65978 12.5304C1.04726 12.2067 0.666702 11.576 0.666702 10.8844C0.666702 9.85835 1.50141 9.0236 2.52747 9.0236C3.55352 9.0236 4.38823 9.85831 4.38823 10.8844V17.4259H2.62663C2.19118 17.4259 1.8369 17.0716 1.8369 16.6362ZM4.66194 18.6609H2.79322V18.0926H4.66194V18.6609ZM17.2068 18.6609H15.3381V18.0926H17.2068V18.6609ZM18.3402 12.5304C18.2352 12.5859 18.1679 12.6932 18.1631 12.8118C18.1627 12.8206 18.1627 12.8293 18.1631 12.8379V16.6362C18.1631 17.0716 17.8088 17.4259 17.3734 17.4259H15.6118V10.8844C15.6118 9.85835 16.4465 9.0236 17.4725 9.0236C18.4985 9.0236 19.3333 9.85831 19.3333 10.8844C19.3333 11.576 18.9528 12.2067 18.3402 12.5304Z" fill="#DBC67F"/>
</g>
<defs>
<clipPath id="clip0_31_1502">
<rect width="20" height="20" fill="white"/>
</clipPath>
</defs>
</svg>
