<svg width="20" height="20" viewBox="0 0 20 20" fill="none" xmlns="http://www.w3.org/2000/svg">
<g id="IMAGE">
<g id="Group">
<path id="Vector" d="M19.0809 2.505H0.919222C0.412384 2.505 0 2.91739 0 3.42423V15.3232C0 15.7277 0.262657 16.0717 0.626252 16.1943V16.8889C0.626252 17.2231 0.898129 17.495 1.23235 17.495H1.97821C2.20927 17.495 2.41696 17.3666 2.52032 17.1599L2.97904 16.2425H17.021L17.4797 17.16C17.583 17.3667 17.7907 17.495 18.0218 17.495H18.7677C19.1019 17.495 19.3737 17.2231 19.3737 16.8889V16.1944C19.7373 16.0717 20 15.7277 20 15.3233V3.42423C20 2.91739 19.5877 2.505 19.0809 2.505ZM1.99626 16.8979C1.99282 16.9047 1.98591 16.909 1.97821 16.909H1.23235C1.22122 16.909 1.21219 16.9 1.21219 16.8889V16.2425H2.32399L1.99626 16.8979ZM15.0303 13.1515H14.697C14.5132 13.1515 14.3637 13.0019 14.3637 12.8182V5.92932C14.3637 5.74553 14.5132 5.59603 14.697 5.59603H15.0303V13.1515ZM18.7677 16.909H18.0219C18.0142 16.909 18.0073 16.9048 18.0038 16.8979L17.6761 16.2425H18.7879V16.8889C18.7879 16.9 18.7788 16.909 18.7677 16.909ZM19.4141 15.3232C19.4141 15.507 19.2646 15.6565 19.0809 15.6565H15.6163V4.67677C15.6163 4.51497 15.4851 4.3838 15.3233 4.3838C15.1615 4.3838 15.0303 4.51497 15.0303 4.67677V5.01001H14.697C14.1901 5.01001 13.7778 5.4224 13.7778 5.92924V12.8181C13.7778 13.325 14.1902 13.7373 14.697 13.7373H15.0303V15.6565H0.919222C0.735433 15.6565 0.58594 15.5069 0.58594 15.3231V3.42423C0.58594 3.24044 0.735472 3.09094 0.919222 3.09094H15.0303V3.42431C15.0303 3.5861 15.1615 3.71728 15.3233 3.71728C15.4851 3.71728 15.6162 3.5861 15.6162 3.42431V3.09094H19.0808C19.2646 3.09094 19.4141 3.24048 19.4141 3.42423V15.3232Z" fill="#DBC67F"/>
<path id="Vector_2" d="M12.1918 5.01004H3.42411C2.91723 5.01004 2.50488 5.42243 2.50488 5.92926V10.9392C2.50488 11.101 2.63606 11.2322 2.79785 11.2322C2.95965 11.2322 3.09082 11.101 3.09082 10.9392V5.9293C3.09082 5.74551 3.24035 5.59602 3.42411 5.59602H12.1918C12.3756 5.59602 12.5251 5.74555 12.5251 5.9293V12.8182C12.5251 13.0019 12.3755 13.1514 12.1918 13.1514H3.42411C3.24032 13.1514 3.09082 13.0019 3.09082 12.8182V12.192C3.09082 12.0302 2.95965 11.899 2.79785 11.899C2.63606 11.899 2.50488 12.0302 2.50488 12.192V12.8182C2.50488 13.325 2.91727 13.7374 3.42411 13.7374H12.1918C12.6987 13.7374 13.111 13.325 13.111 12.8182V5.9293C13.111 5.42243 12.6986 5.01004 12.1918 5.01004ZM17.515 11.2727C16.8355 11.2727 16.2827 11.8255 16.2827 12.505C16.2827 13.1846 16.8355 13.7374 17.515 13.7374C18.1946 13.7374 18.7474 13.1846 18.7474 12.505C18.7474 11.8255 18.1946 11.2727 17.515 11.2727ZM17.515 13.1514C17.1586 13.1514 16.8686 12.8615 16.8686 12.505C16.8686 12.1486 17.1586 11.8586 17.515 11.8586C17.8715 11.8586 18.1614 12.1486 18.1614 12.505C18.1614 12.8615 17.8715 13.1514 17.515 13.1514ZM16.5756 10.6061H16.8888C17.0506 10.6061 17.1817 10.4749 17.1817 10.3131C17.1817 10.1513 17.0506 10.0201 16.8888 10.0201H16.5756C16.4138 10.0201 16.2827 10.1513 16.2827 10.3131C16.2827 10.4749 16.4138 10.6061 16.5756 10.6061ZM18.4544 10.0201H18.1413C17.9795 10.0201 17.8483 10.1513 17.8483 10.3131C17.8483 10.4749 17.9795 10.6061 18.1413 10.6061H18.4544C18.6162 10.6061 18.7474 10.4749 18.7474 10.3131C18.7474 10.1513 18.6162 10.0201 18.4544 10.0201ZM16.5756 9.35357H16.8888C17.0506 9.35357 17.1817 9.2224 17.1817 9.0606C17.1817 8.89881 17.0506 8.76763 16.8888 8.76763H16.5756C16.4138 8.76763 16.2827 8.89881 16.2827 9.0606C16.2827 9.2224 16.4138 9.35357 16.5756 9.35357ZM18.4544 8.76763H18.1413C17.9795 8.76763 17.8483 8.89881 17.8483 9.0606C17.8483 9.2224 17.9795 9.35357 18.1413 9.35357H18.4544C18.6162 9.35357 18.7474 9.2224 18.7474 9.0606C18.7474 8.89881 18.6162 8.76763 18.4544 8.76763ZM16.5756 8.10103H16.8888C17.0506 8.10103 17.1817 7.96986 17.1817 7.80806C17.1817 7.64626 17.0506 7.51509 16.8888 7.51509H16.5756C16.4138 7.51509 16.2827 7.64626 16.2827 7.80806C16.2827 7.96986 16.4138 8.10103 16.5756 8.10103ZM18.4544 7.51509H18.1413C17.9795 7.51509 17.8483 7.64626 17.8483 7.80806C17.8483 7.96986 17.9795 8.10103 18.1413 8.10103H18.4544C18.6162 8.10103 18.7474 7.96986 18.7474 7.80806C18.7474 7.64626 18.6162 7.51509 18.4544 7.51509ZM18.1413 4.38379H16.8888C16.5545 4.38379 16.2827 4.65567 16.2827 4.98989V5.9293C16.2827 6.26352 16.5545 6.5354 16.8888 6.5354H18.1413C18.4755 6.5354 18.7474 6.26352 18.7474 5.9293V4.98989C18.7474 4.65567 18.4755 4.38379 18.1413 4.38379ZM18.1615 5.9293C18.1615 5.94044 18.1524 5.94946 18.1413 5.94946H16.8888C16.8777 5.94946 16.8687 5.94044 16.8687 5.9293V4.98989C16.8687 4.97875 16.8777 4.96973 16.8888 4.96973H18.1413C18.1524 4.96973 18.1615 4.97875 18.1615 4.98989V5.9293Z" fill="#DBC67F"/>
<path id="Vector_3" d="M7.20204 11.5657C7.20204 11.7275 7.33321 11.8587 7.49501 11.8587C7.65681 11.8587 7.78798 11.7275 7.78798 11.5657C7.78798 11.3089 7.88446 11.1964 8.03052 11.0261C8.20146 10.8267 8.41423 10.5787 8.41423 10.1051C8.41423 9.63135 8.20153 9.38311 8.0306 9.18365C7.8845 9.01318 7.78798 8.90053 7.78798 8.64349C7.78798 8.38646 7.8845 8.2738 8.0306 8.10333C8.20153 7.90388 8.41423 7.65568 8.41423 7.18189C8.41423 7.02009 8.28306 6.88892 8.12126 6.88892C7.95946 6.88892 7.82829 7.02009 7.82829 7.18189C7.82829 7.43892 7.73177 7.55157 7.58567 7.72204C7.41473 7.9215 7.20204 8.1697 7.20204 8.64349C7.20204 9.11728 7.41473 9.36549 7.58567 9.56494C7.73177 9.73541 7.82829 9.84807 7.82829 10.1051C7.82829 10.3618 7.73181 10.4744 7.58575 10.6447C7.41477 10.844 7.20204 11.0921 7.20204 11.5657ZM9.08083 11.5657C9.08083 11.7275 9.21201 11.8587 9.37381 11.8587C9.5356 11.8587 9.66677 11.7275 9.66677 11.5657C9.66677 11.3089 9.76326 11.1964 9.90932 11.0261C10.0803 10.8267 10.293 10.5787 10.293 10.1051C10.293 9.63135 10.0803 9.38311 9.90939 9.18365C9.7633 9.01318 9.66677 8.90053 9.66677 8.64349C9.66677 8.38646 9.7633 8.2738 9.90939 8.10333C10.0803 7.90388 10.293 7.65568 10.293 7.18189C10.293 7.02009 10.1619 6.88892 10.0001 6.88892C9.83826 6.88892 9.70709 7.02009 9.70709 7.18189C9.70709 7.43892 9.61056 7.55157 9.46447 7.72204C9.29353 7.9215 9.08083 8.1697 9.08083 8.64349C9.08083 9.11728 9.29353 9.36549 9.46447 9.56494C9.61056 9.73541 9.70709 9.84807 9.70709 10.1051C9.70709 10.3618 9.6106 10.4744 9.46455 10.6447C9.29357 10.844 9.08083 11.0921 9.08083 11.5657ZM5.32324 11.5657C5.32324 11.7275 5.45441 11.8587 5.61621 11.8587C5.77801 11.8587 5.90918 11.7275 5.90918 11.5657C5.90918 11.3089 6.00567 11.1964 6.15172 11.0261C6.32266 10.8267 6.53543 10.5787 6.53543 10.1051C6.53543 9.63135 6.32274 9.38311 6.1518 9.18365C6.00571 9.01318 5.90918 8.90053 5.90918 8.64349C5.90918 8.38646 6.00571 8.2738 6.1518 8.10333C6.32274 7.90388 6.53543 7.65568 6.53543 7.18189C6.53543 7.02009 6.40426 6.88892 6.24246 6.88892C6.08067 6.88892 5.94949 7.02009 5.94949 7.18189C5.94949 7.43892 5.85297 7.55157 5.70688 7.72204C5.53594 7.9215 5.32324 8.1697 5.32324 8.64349C5.32324 9.11728 5.53594 9.36549 5.70688 9.56494C5.85297 9.73541 5.94949 9.84807 5.94949 10.1051C5.94949 10.3618 5.85301 10.4744 5.70695 10.6447C5.53602 10.844 5.32324 11.0921 5.32324 11.5657Z" fill="#DBC67F"/>
</g>
</g>
</svg>
