<svg width="20" height="20" viewBox="0 0 20 20" fill="none" xmlns="http://www.w3.org/2000/svg">
<g id="IMAGE">
<g id="Group">
<path id="Vector" d="M4.49023 3.50775V5.22584C4.49023 5.69674 4.87332 6.07982 5.34418 6.07982C5.81504 6.07982 6.19816 5.6967 6.19816 5.22584V3.50775C6.19816 3.03686 5.81504 2.65381 5.34418 2.65381C4.87332 2.65381 4.49023 3.03686 4.49023 3.50775ZM5.61227 3.50775V5.22584C5.61227 5.37365 5.49203 5.49389 5.34422 5.49389C5.19645 5.49389 5.07621 5.37365 5.07621 5.22584V3.50775C5.07621 3.35998 5.19645 3.23975 5.34422 3.23975C5.49203 3.23971 5.61227 3.35998 5.61227 3.50775ZM5.34418 8.46826C4.87328 8.46826 4.49023 8.85139 4.49023 9.32225V11.0403C4.49023 11.4193 4.73848 11.7412 5.08082 11.8525V12.901C5.08082 13.0628 5.21195 13.1939 5.37379 13.1939C5.53562 13.1939 5.66676 13.0628 5.66676 12.901V11.8308C5.97816 11.7033 6.19816 11.3971 6.19816 11.0403V9.32221C6.1982 8.85139 5.81508 8.46826 5.34418 8.46826ZM5.07617 9.32225C5.07617 9.17443 5.19641 9.0542 5.34418 9.0542C5.49199 9.0542 5.61223 9.17443 5.61223 9.32225V11.0403C5.61223 11.1881 5.49199 11.3083 5.34418 11.3083C5.19641 11.3083 5.07617 11.1881 5.07617 11.0403V9.32225Z" fill="#DBC67F"/>
<path id="Vector_2" d="M16.5736 7.16977H15.9137L16.0909 6.99262C16.2053 6.87816 16.2053 6.6927 16.0909 6.57828C15.9764 6.46391 15.7909 6.46391 15.6765 6.57828L15.085 7.1698H13.7124L14.7325 6.14973H15.569C15.7308 6.14973 15.862 6.01859 15.862 5.85676C15.862 5.69492 15.7308 5.56379 15.569 5.56379H15.3184L15.785 5.09719C15.8995 4.98273 15.8995 4.79727 15.785 4.68285C15.6706 4.56848 15.4851 4.56848 15.3707 4.68285L14.9041 5.14941V4.89891C14.9041 4.73707 14.773 4.60594 14.6112 4.60594C14.4493 4.60594 14.3182 4.73707 14.3182 4.89891V5.73535L13.2981 6.75547V5.38293L13.8896 4.79141C14.0041 4.67695 14.0041 4.49148 13.8896 4.37707C13.7752 4.2627 13.5897 4.2627 13.4753 4.37707L13.2982 4.55426V3.89426C13.2982 3.73242 13.167 3.60129 13.0052 3.60129C12.8434 3.60129 12.7122 3.73242 12.7122 3.89426V4.55418L12.535 4.37695C12.4206 4.26258 12.2351 4.26254 12.1207 4.37699C12.0063 4.49141 12.0063 4.67691 12.1207 4.79129L12.7123 5.38277V6.75539L11.6832 5.72637V4.88992C11.6832 4.72809 11.5521 4.59695 11.3903 4.59695C11.2284 4.59695 11.0973 4.72809 11.0973 4.88992V5.14043L10.7386 4.78172C10.6242 4.66738 10.4387 4.6673 10.3243 4.78172C10.2098 4.89617 10.2098 5.08164 10.3243 5.19605L10.683 5.5548H10.4325C10.2706 5.5548 10.1395 5.68594 10.1395 5.84777C10.1395 6.00961 10.2706 6.14074 10.4325 6.14074H11.2689L12.2979 7.16973H10.7728L10.1813 6.5782C10.0668 6.46383 9.88137 6.46383 9.76695 6.5782C9.65254 6.69266 9.65254 6.87812 9.76695 6.99254L9.94414 7.16969H3.71973V0.958359C3.71973 0.753008 3.8868 0.585938 4.09215 0.585938H12.3397C12.5451 0.585938 12.7121 0.753008 12.7121 0.958359V2.46227C12.7121 2.6241 12.8433 2.75523 13.0051 2.75523C13.167 2.75523 13.2981 2.6241 13.2981 2.46227V0.958359C13.2981 0.429922 12.8682 0 12.3397 0H4.09215C3.56371 0 3.13379 0.429922 3.13379 0.958359V19.2473C3.13379 19.6623 3.47148 20 3.88652 20H4.53C4.83781 20 5.11152 19.8157 5.22738 19.5305L5.68281 18.4094C5.7577 18.2553 5.64539 17.9977 5.41336 18.0014H3.71973V7.75566H9.94395L9.76676 7.93281C9.65234 8.04727 9.65234 8.23273 9.76676 8.34715C9.82398 8.40434 9.89898 8.43293 9.97395 8.43293C10.0489 8.43293 10.1239 8.40434 10.1811 8.34715L10.7727 7.75562H12.2978L11.2688 8.78461H10.4323C10.2705 8.78461 10.1393 8.91574 10.1393 9.07758C10.1393 9.23941 10.2705 9.37055 10.4323 9.37055H10.6829L10.3241 9.7293C10.2097 9.84375 10.2097 10.0292 10.3241 10.1436C10.3813 10.2008 10.4563 10.2294 10.5313 10.2294C10.6063 10.2294 10.6813 10.2008 10.7385 10.1436L11.0972 9.78492V10.0354C11.0972 10.1973 11.2283 10.3284 11.3902 10.3284C11.552 10.3284 11.6831 10.1973 11.6831 10.0354V9.19898L12.7121 8.16996V9.69516L12.1206 10.2866C12.0062 10.4011 12.0062 10.5866 12.1206 10.7009C12.235 10.8153 12.4205 10.8154 12.5349 10.701L12.7121 10.5238V18.0013H6.8616C6.69977 18.0013 6.56863 18.1324 6.56863 18.2943C6.56863 18.4561 6.69977 18.5872 6.8616 18.5872H10.8214L11.2045 19.5305C11.3204 19.8156 11.5941 20 11.9019 20H12.5454C12.9604 20 13.2981 19.6622 13.2981 19.2471V10.5239L13.4753 10.7011C13.5325 10.7583 13.6075 10.7869 13.6825 10.7869C13.7574 10.7869 13.8324 10.7583 13.8896 10.7011C14.0041 10.5866 14.0041 10.4012 13.8896 10.2868L13.2981 9.69523V8.17012L14.3182 9.19023V10.0267C14.3182 10.1885 14.4493 10.3196 14.6112 10.3196C14.773 10.3196 14.9041 10.1885 14.9041 10.0267V9.77617L15.3707 10.2427C15.4279 10.2999 15.5029 10.3285 15.5779 10.3285C15.6529 10.3285 15.7279 10.2999 15.7851 10.2427C15.8995 10.1283 15.8995 9.94281 15.7851 9.8284L15.3185 9.3618H15.569C15.7309 9.3618 15.862 9.23066 15.862 9.06883C15.862 8.90699 15.7309 8.77586 15.569 8.77586H14.7325L13.7125 7.75578H15.085L15.6766 8.3473C15.7338 8.40449 15.8088 8.43309 15.8837 8.43309C15.9587 8.43309 16.0337 8.40449 16.0909 8.3473C16.2054 8.23285 16.2054 8.04738 16.0909 7.93297L15.9137 7.75582H16.5736C16.7355 7.75582 16.8666 7.62469 16.8666 7.46285C16.8666 7.30102 16.7354 7.16977 16.5736 7.16977ZM4.97809 18.5873L4.68449 19.31C4.65883 19.3732 4.59816 19.4141 4.52996 19.4141H3.88648C3.79453 19.4141 3.71969 19.3393 3.71969 19.2473V18.5873L4.97809 18.5873ZM12.7121 19.2473C12.7121 19.3392 12.6373 19.4141 12.5454 19.4141H11.9019C11.8337 19.4141 11.773 19.3732 11.7473 19.3101L11.4537 18.5873H12.7121L12.7121 19.2473Z" fill="#DBC67F"/>
</g>
</g>
</svg>
