<svg width="30" height="30" viewBox="0 0 30 30" fill="none" xmlns="http://www.w3.org/2000/svg">
<g id="1486504349-calculate-calculation-education-business-calculator-math_81324 1" clip-path="url(#clip0_10_828)">
<g id="Group">
<g id="Group_2">
<path id="Vector" d="M15 30C23.2843 30 30 23.2843 30 15C30 6.71573 23.2843 0 15 0C6.71573 0 0 6.71573 0 15C0 23.2843 6.71573 30 15 30Z" fill="white"/>
<path id="Vector_2" d="M15 27.5C8.10753 27.5 2.5 21.8925 2.5 15C2.5 8.10756 8.10753 2.5 15 2.5C21.8927 2.5 27.5 8.10756 27.5 15C27.5 21.8925 21.8927 27.5 15 27.5Z" fill="url(#paint0_linear_10_828)"/>
</g>
<g id="Group_3">
<path id="Vector_3" opacity="0.3" d="M17.8559 17.4309L17.4417 17.8452L17.8561 18.2595L18.2703 17.8452L17.8559 17.4309Z" fill="white"/>
<path id="Vector_4" opacity="0.3" d="M12.6123 10.9375H12.0264V12.0261H10.9375V12.612H12.0264V13.7009H12.6123V12.612H13.7011V12.0261H12.6123V10.9375Z" fill="white"/>
<path id="Vector_5" opacity="0.3" d="M19.3803 18.9548L18.9661 19.3691L19.3805 19.7834L19.7947 19.3691L19.3803 18.9548Z" fill="white"/>
<path id="Vector_6" opacity="0.3" d="M13.0895 17.4341L12.3195 18.2041L11.5495 17.4341L11.1353 17.8483L11.9053 18.6184L11.1353 19.3885L11.5495 19.8027L12.3195 19.0327L13.0895 19.8027L13.5038 19.3885L12.7338 18.6184L13.5038 17.8483L13.0895 17.4341Z" fill="white"/>
<path id="Vector_7" opacity="0.3" d="M8.4375 8.4375V22.5H22.5V8.4375H8.4375ZM12.3194 21.0352C10.9846 21.0352 9.90244 19.9531 9.90244 18.6182C9.90244 17.2833 10.9845 16.2012 12.3194 16.2012C13.6543 16.2012 14.7364 17.2833 14.7364 18.6182C14.7364 19.9531 13.6543 21.0352 12.3194 21.0352ZM12.3194 14.7363C10.9846 14.7363 9.90244 13.6542 9.90244 12.3193C9.90244 10.9845 10.9845 9.90234 12.3194 9.90234C13.6543 9.90234 14.7364 10.9845 14.7364 12.3193C14.7364 13.6542 13.6543 14.7363 12.3194 14.7363ZM18.6182 21.0352C17.2834 21.0352 16.2013 19.9531 16.2013 18.6182C16.2013 17.2833 17.2834 16.2012 18.6182 16.2012C19.9531 16.2012 21.0352 17.2833 21.0352 18.6182C21.0352 19.9531 19.9531 21.0352 18.6182 21.0352ZM18.6182 14.7363C17.2834 14.7363 16.2013 13.6542 16.2013 12.3193C16.2013 10.9845 17.2834 9.90234 18.6182 9.90234C19.9531 9.90234 21.0352 10.9845 21.0352 12.3193C21.0352 13.6542 19.9531 14.7363 18.6182 14.7363Z" fill="white"/>
<path id="Vector_8" opacity="0.3" d="M19.396 17.4305L17.4419 19.3848L17.8562 19.799L19.8103 17.8448L19.396 17.4305Z" fill="white"/>
<path id="Vector_9" opacity="0.3" d="M19.9999 12.0264H17.2363V12.6123H19.9999V12.0264Z" fill="white"/>
</g>
<g id="Group_4">
<path id="Vector_10" d="M17.3871 16.9621L16.9729 17.3765L17.3873 17.7907L17.8015 17.3764L17.3871 16.9621Z" fill="white"/>
<path id="Vector_11" d="M12.1436 10.4688H11.5577V11.5573H10.4688V12.1433H11.5577V13.2322H12.1436V12.1433H13.2324V11.5573H12.1436V10.4688Z" fill="white"/>
<path id="Vector_12" d="M18.9115 18.486L18.4973 18.9004L18.9117 19.3147L19.3259 18.9003L18.9115 18.486Z" fill="white"/>
<path id="Vector_13" d="M12.6207 16.9653L11.8508 17.7354L11.0808 16.9653L10.6665 17.3796L11.4365 18.1496L10.6665 18.9197L11.0808 19.334L11.8508 18.5639L12.6207 19.334L13.035 18.9197L12.265 18.1496L13.035 17.3796L12.6207 16.9653Z" fill="white"/>
<path id="Vector_14" d="M7.96875 7.96875V22.0312H22.0312V7.96875H7.96875ZM11.8507 20.5664C10.5158 20.5664 9.43369 19.4843 9.43369 18.1494C9.43369 16.8145 10.5158 15.7324 11.8507 15.7324C13.1855 15.7324 14.2677 16.8145 14.2677 18.1494C14.2677 19.4843 13.1855 20.5664 11.8507 20.5664ZM11.8507 14.2676C10.5158 14.2676 9.43369 13.1855 9.43369 11.8506C9.43369 10.5157 10.5158 9.43359 11.8507 9.43359C13.1855 9.43359 14.2677 10.5157 14.2677 11.8506C14.2677 13.1855 13.1855 14.2676 11.8507 14.2676ZM18.1495 20.5664C16.8147 20.5664 15.7325 19.4843 15.7325 18.1494C15.7325 16.8145 16.8146 15.7324 18.1495 15.7324C19.4843 15.7324 20.5665 16.8145 20.5665 18.1494C20.5665 19.4843 19.4843 20.5664 18.1495 20.5664ZM18.1495 14.2676C16.8147 14.2676 15.7325 13.1855 15.7325 11.8506C15.7325 10.5157 16.8146 9.43359 18.1495 9.43359C19.4843 9.43359 20.5665 10.5157 20.5665 11.8506C20.5665 13.1855 19.4843 14.2676 18.1495 14.2676Z" fill="white"/>
<path id="Vector_15" d="M18.9272 16.9618L16.9731 18.916L17.3874 19.3303L19.3415 17.3761L18.9272 16.9618Z" fill="white"/>
<path id="Vector_16" d="M19.5312 11.5576H16.7676V12.1436H19.5312V11.5576Z" fill="white"/>
</g>
</g>
</g>
<defs>
<linearGradient id="paint0_linear_10_828" x1="2.5" y1="15" x2="27.5" y2="15" gradientUnits="userSpaceOnUse">
<stop stop-color="#25283B"/>
<stop offset="1" stop-color="#43465A" stop-opacity="0.95"/>
</linearGradient>
<clipPath id="clip0_10_828">
<rect width="30" height="30" fill="white"/>
</clipPath>
</defs>
</svg>
