<svg width="10" height="10" viewBox="0 0 10 10" fill="none" xmlns="http://www.w3.org/2000/svg">
<g id="e49ca2542c0445a9e1bc43703bc13b16 1" clip-path="url(#clip0_138_7351)">
<g id="Group">
<g id="Group_2">
<path id="Vector" d="M9.89113 7.95231C9.82023 7.5327 9.44663 7.0902 8.80293 6.663C8.14963 6.232 7.65343 6.1687 7.20323 6.4599C7.13813 6.502 6.96573 6.6515 6.82003 6.7932C6.51733 7.0863 6.49243 7.0978 6.29703 7.0442C5.85453 6.9216 5.20693 6.4178 4.30083 5.4982C3.74713 4.935 3.46363 4.5997 3.20883 4.2108C3.00963 3.9043 2.90423 3.6169 2.95023 3.4981C2.96173 3.4674 3.06323 3.3467 3.17633 3.2318C3.52113 2.8755 3.64763 2.6839 3.70893 2.4233C3.80473 2.0114 3.59973 1.4903 3.09013 0.854301C2.53463 0.160901 2.01163 -0.0478996 1.44833 0.201201C1.23953 0.293201 1.04983 0.444501 0.678228 0.816201C0.348728 1.1438 0.306528 1.1936 0.245328 1.3239C0.0556282 1.7224 0.0518283 2.2051 0.229928 2.9044C0.473228 3.8584 1.06713 4.9581 1.90813 6.0098C2.48483 6.7301 3.29903 7.5424 4.02513 8.1191C5.71283 9.46201 7.53093 10.1478 8.52523 9.81831C8.72643 9.75121 8.81833 9.68421 9.14973 9.36421C9.59803 8.93121 9.78963 8.66301 9.86623 8.3642C9.90073 8.2263 9.91033 8.07111 9.89113 7.95231ZM9.49463 8.37381C9.45053 8.48491 9.35093 8.64391 9.25323 8.75701C9.20343 8.81451 9.19383 8.82021 9.17663 8.7934C9.10763 8.67651 8.85093 8.37001 8.68043 8.2014C8.26283 7.7857 7.72063 7.4274 7.18423 7.2129C7.08463 7.1746 6.99453 7.1343 6.98693 7.1286C6.96203 7.1075 7.34713 6.7761 7.47163 6.709C7.68623 6.594 7.88543 6.5921 8.15553 6.6994C8.53873 6.8527 9.14213 7.3144 9.36053 7.619C9.55783 7.89491 9.59803 8.1171 9.49463 8.37381ZM8.63633 9.37001C8.10763 9.79531 6.70913 9.46771 5.28763 8.58451C2.91973 7.1132 0.827628 4.4427 0.486628 2.4541C0.425328 2.0901 0.454028 1.6744 0.553728 1.4809C0.574828 1.4426 0.699328 1.2989 0.829628 1.161L1.06913 0.911901L1.15723 0.959801C1.30093 1.0364 1.63423 1.2931 1.82013 1.4694C2.23393 1.8641 2.59983 2.4311 2.76843 2.9388L2.81823 3.0902L2.74163 3.1726C2.63053 3.2933 2.59983 3.3757 2.59793 3.5558C2.59603 3.9255 2.85463 4.3968 3.44463 5.098C3.69173 5.391 4.58253 6.2856 4.88523 6.5423C5.57873 7.1362 6.07493 7.414 6.43893 7.4159C6.55773 7.4159 6.71093 7.368 6.78183 7.3067L6.84313 7.2569L6.94083 7.2914C7.70333 7.5615 8.48493 8.13431 8.95243 8.76651L9.08083 8.93891L8.90263 9.11901C8.80683 9.21671 8.68613 9.32981 8.63633 9.37001ZM3.30473 2.5039C3.23583 2.6437 2.97523 2.9675 2.95033 2.9388C2.94263 2.9311 2.91773 2.8679 2.89283 2.799C2.64183 2.0806 2.10543 1.4062 1.40813 0.931101C1.30273 0.858301 1.21273 0.797001 1.20893 0.793201C1.19743 0.785501 1.27403 0.724201 1.41773 0.624601C1.90813 0.285501 2.35453 0.457901 2.91013 1.1974C3.25113 1.6514 3.40443 2.002 3.37953 2.2722C3.37373 2.3257 3.34113 2.4273 3.30473 2.5039Z" fill="white"/>
</g>
</g>
</g>
<defs>
<clipPath id="clip0_138_7351">
<rect width="10" height="10" fill="white" transform="translate(10) rotate(90)"/>
</clipPath>
</defs>
</svg>
