<svg width="30" height="30" viewBox="0 0 30 30" fill="none" xmlns="http://www.w3.org/2000/svg">
<g id="telegram.svg" clip-path="url(#clip0_10_6616)">
<path id="Vector" d="M15 29.5C23.0081 29.5 29.5 23.0081 29.5 15C29.5 6.99187 23.0081 0.5 15 0.5C6.99187 0.5 0.5 6.99187 0.5 15C0.5 23.0081 6.99187 29.5 15 29.5Z" fill="#52B6FF" stroke="white"/>
<g id="Clip path group">
<mask id="mask0_10_6616" style="mask-type:luminance" maskUnits="userSpaceOnUse" x="7" y="8" width="16" height="15">
<g id="clip0_1276_724">
<path id="Vector_2" d="M23 8H7V23H23V8Z" fill="white"/>
</g>
</mask>
<g mask="url(#mask0_10_6616)">
<g id="Group">
<path id="Vector_3" d="M7.83325 15.7317L10.8748 16.77L12.0521 20.2329C12.1274 20.4547 12.4239 20.5367 12.6207 20.3895L14.3161 19.1253C14.4938 18.9929 14.747 18.9863 14.9327 19.1096L17.9906 21.1402C18.2012 21.2802 18.4994 21.1746 18.5522 20.942L20.7923 11.0866C20.85 10.8324 20.5769 10.6204 20.3123 10.714L7.82968 15.1183C7.52164 15.227 7.52432 15.6259 7.83325 15.7317ZM11.8623 16.2173L17.8066 12.8687C17.9135 12.8087 18.0234 12.9409 17.9317 13.0187L13.0259 17.1896C12.8534 17.3364 12.7422 17.5328 12.7107 17.7461L12.5436 18.8788C12.5215 19.03 12.2892 19.0451 12.2436 18.8987L11.6008 16.8332C11.5272 16.5976 11.6345 16.3459 11.8623 16.2173Z" fill="white"/>
</g>
</g>
</g>
</g>
<defs>
<clipPath id="clip0_10_6616">
<rect width="30" height="30" fill="white"/>
</clipPath>
</defs>
</svg>
