<svg width="60" height="60" viewBox="0 0 60 60" fill="none" xmlns="http://www.w3.org/2000/svg">
<g id="taxi_icon-icons.com_59818 1">
<g id="Group">
<path id="Vector" d="M11.0944 35.9357H16.7368C17.8376 35.9357 18.7327 35.04 18.7327 33.9392V28.2968C18.7327 28.2269 18.7187 28.1615 18.7117 28.0936C18.7796 28.1006 18.8456 28.1139 18.9155 28.1139H24.5579C24.6277 28.1139 24.6938 28.1006 24.761 28.0936C24.7547 28.1615 24.7406 28.2269 24.7406 28.2968V33.9391C24.7406 35.0399 25.6358 35.9357 26.7365 35.9357H32.3789C33.4798 35.9357 34.3748 35.0399 34.3748 33.9391V28.2968C34.3748 28.2269 34.3608 28.1615 34.3545 28.0936C34.4217 28.1006 34.4878 28.1139 34.5575 28.1139H40.1999C40.2698 28.1139 40.3358 28.1006 40.4037 28.0936C40.3967 28.1615 40.3828 28.2269 40.3828 28.2968V33.9391C40.3828 35.0399 41.2785 35.9357 42.3788 35.9357H48.021C49.1219 35.9357 50.017 35.0399 50.017 33.9391V28.2968C50.017 27.1966 49.1218 26.3009 48.021 26.3009H42.3788C42.3095 26.3009 42.2434 26.3148 42.1756 26.3218C42.1825 26.2538 42.1958 26.1885 42.1958 26.1187V20.4757C42.1958 19.3755 41.3008 18.4798 40.2 18.4798H34.5578C33.4571 18.4798 32.5619 19.3755 32.5619 20.4757V26.1187C32.5619 26.1885 32.5759 26.2539 32.5823 26.3218C32.5149 26.3148 32.449 26.3009 32.3791 26.3009H26.7367C26.6669 26.3009 26.6008 26.3148 26.5335 26.3218C26.5399 26.2538 26.5538 26.1885 26.5538 26.1187V20.4757C26.5538 19.3755 25.6587 18.4798 24.5579 18.4798H18.9156C17.8148 18.4798 16.9197 19.3755 16.9197 20.4757V26.1187C16.9197 26.1885 16.9331 26.2539 16.94 26.3218C16.8722 26.3148 16.8068 26.3009 16.7369 26.3009H11.0945C9.99376 26.3009 9.09863 27.1966 9.09863 28.2968V33.9391C9.09848 35.0399 9.99368 35.9357 11.0944 35.9357ZM42.6581 28.5761H47.7419V33.6605H42.6581V28.5761ZM34.8371 20.7549H39.9208V25.8386H34.8371V20.7549ZM27.016 28.5761H32.0997V33.6605H27.016V28.5761ZM19.1948 20.7549H24.2786V25.8386H19.1948V20.7549ZM11.3738 28.5761H16.4575V33.6605H11.3738V28.5761Z" fill="#4D4D4D"/>
<path id="Vector_2" d="M11.0304 42.7898H46.605C50.2184 42.7898 52.9475 41.7792 54.7161 39.7852C56.5552 37.7119 57.2529 34.7046 56.7895 30.8461L56.735 30.3897C56.076 24.8413 54.532 11.8475 46.7433 11.6247H12.8009C5.36254 11.6247 3.60027 22.3654 2.75276 27.5272L2.72479 27.6992C1.99729 32.1259 1.60624 37.0655 4.21729 40.1407C5.70979 41.8986 8.00224 42.7898 11.0304 42.7898ZM4.97029 28.0682L4.99887 27.8956C5.74414 23.3527 7.29439 13.9001 12.801 13.9001H46.711C52.5045 14.0658 53.9367 26.1206 54.4763 30.6583L54.531 31.1173C54.9132 34.3023 54.4026 36.7102 53.015 38.2751C51.6957 39.7612 49.5399 40.5147 46.6051 40.5147H11.0304C8.66817 40.5147 7.00684 39.911 5.95174 38.668C3.92974 36.2866 4.36526 31.7521 4.97029 28.0682Z" fill="#4D4D4D"/>
<path id="Vector_3" d="M56.9661 46.1H3.03408C2.40626 46.1 1.89648 46.6097 1.89648 47.2376C1.89648 47.866 2.40626 48.3752 3.03408 48.3752H56.9661C57.594 48.3752 58.1037 47.866 58.1037 47.2376C58.1037 46.6097 57.594 46.1 56.9661 46.1Z" fill="#4D4D4D"/>
</g>
</g>
</svg>
