<svg width="58" height="58" viewBox="0 0 58 58" fill="none" xmlns="http://www.w3.org/2000/svg">
<g id="3702393-discount-flash-sale-shopping_108733 1">
<g id="Layer_2">
<g id="Group">
<g id="Group_2">
<path id="Vector" d="M21.75 18.125H19.0312C17.5812 18.125 16.3125 19.3937 16.3125 20.8438C16.3125 22.2938 17.5812 23.5625 19.0312 23.5625C20.4813 23.5625 21.75 24.8312 21.75 26.2812C21.75 27.7313 20.4813 29 19.0312 29H16.3125" stroke="#4D4D4D" stroke-width="2" stroke-miterlimit="10" stroke-linecap="round" stroke-linejoin="round"/>
<path id="Vector_2" d="M27.1875 29V20.8438C27.1875 19.3937 28.4562 18.125 29.9062 18.125C31.3563 18.125 32.625 19.3937 32.625 20.8438V29" stroke="#4D4D4D" stroke-width="2" stroke-miterlimit="10" stroke-linecap="round" stroke-linejoin="round"/>
<path id="Vector_3" d="M27.1875 23.5625H32.625" stroke="#4D4D4D" stroke-width="2" stroke-miterlimit="10" stroke-linecap="round" stroke-linejoin="round"/>
<path id="Vector_4" d="M38.0625 18.125V29H43.5" stroke="#4D4D4D" stroke-width="2" stroke-miterlimit="10" stroke-linecap="round" stroke-linejoin="round"/>
<path id="Vector_5" d="M52.5625 18.125H48.9375V29H52.5625" stroke="#4D4D4D" stroke-width="2" stroke-miterlimit="10" stroke-linecap="round" stroke-linejoin="round"/>
<path id="Vector_6" d="M52.5625 23.5625H48.9375" stroke="#4D4D4D" stroke-width="2" stroke-miterlimit="10" stroke-linecap="round" stroke-linejoin="round"/>
</g>
<path id="Vector_7" d="M45.3125 36.25L14.5 54.375L23.5625 36.25H3.625L18.125 3.625H47.125L41.6875 12.6875" stroke="#4D4D4D" stroke-width="2" stroke-miterlimit="10" stroke-linecap="round" stroke-linejoin="round"/>
</g>
</g>
</g>
</svg>
