<svg width="61" height="61" viewBox="0 0 61 61" fill="none" xmlns="http://www.w3.org/2000/svg">
<g id="1492617355-31-shield-protection-safety-security-google_83440 1">
<g id="layer1">
<path id="rect3478" d="M30.4776 5.71502C30.2269 5.71802 29.9874 5.81968 29.8112 5.99798C25.0029 10.8551 18.888 14.2066 12.2081 15.6521C11.9947 15.6982 11.8036 15.8161 11.6667 15.9862C11.5298 16.1563 11.4554 16.3683 11.4561 16.5866V34.7555C11.4561 39.8826 13.4354 43.5903 16.7355 46.6212C20.0356 49.652 24.6016 52.1036 30.0159 55.1584C30.1595 55.2378 30.321 55.2788 30.4851 55.2775H30.5148C30.6789 55.2788 30.8404 55.2378 30.984 55.1584C36.3983 52.1036 40.9643 49.652 44.2644 46.6212C47.5645 43.5903 49.5438 39.8826 49.5438 34.7555V16.5792C49.5445 16.3608 49.4701 16.1489 49.3332 15.9788C49.1963 15.8087 49.0052 15.6907 48.7918 15.6446C42.105 14.2052 35.9815 10.8521 31.1664 5.99425C31.0761 5.90395 30.9686 5.83271 30.8503 5.78474C30.732 5.73677 30.6053 5.71306 30.4776 5.71502ZM30.4888 7.84838C35.2725 12.4573 41.175 15.6916 47.6376 17.2307V34.7555C47.6376 39.4129 46.0029 42.4379 42.9762 45.2176C40.0427 47.9119 35.7052 50.3043 30.4999 53.2372C25.2947 50.3043 20.9572 47.9119 18.0237 45.2176C14.997 42.4379 13.3623 39.4129 13.3623 34.7555V17.2381C19.8176 15.6935 25.7121 12.4564 30.4888 7.84838ZM30.4999 19.0625C24.1945 19.0625 19.0624 24.1945 19.0624 30.5C19.0624 36.8055 24.1945 41.9375 30.4999 41.9375C36.8054 41.9375 41.9374 36.8055 41.9374 30.5C41.9374 24.1945 36.8054 19.0625 30.4999 19.0625ZM30.4999 20.9687C35.7752 20.9687 40.0312 25.2248 40.0312 30.5C40.0312 32.7536 39.2212 34.7906 37.9202 36.4198C37.3599 33.9872 35.6381 32.0006 33.3668 31.0734C33.9474 30.4037 34.3124 29.5427 34.3124 28.5937C34.3124 26.4995 32.5942 24.7812 30.4999 24.7812C28.4056 24.7812 26.6874 26.4995 26.6874 28.5937C26.6874 29.5408 27.0509 30.4005 27.6294 31.0696C25.3639 31.9949 23.634 33.9771 23.0723 36.4161C21.7741 34.7878 20.9687 32.7508 20.9687 30.5C20.9687 25.2248 25.2247 20.9687 30.4999 20.9687ZM30.4999 26.6875C31.564 26.6875 32.4062 27.5297 32.4062 28.5937C32.4062 29.6578 31.564 30.5 30.4999 30.5C29.4359 30.5 28.5937 29.6578 28.5937 28.5937C28.5937 27.5297 29.4359 26.6875 30.4999 26.6875ZM30.567 32.4062C33.6811 32.4425 36.179 34.9402 36.2187 38.0543C36.2198 38.0642 36.221 38.0741 36.2224 38.084C34.6265 39.2887 32.6597 40.0312 30.4999 40.0312C28.3353 40.0312 26.3641 39.2861 24.7663 38.0766C24.7768 38.0251 24.783 37.9728 24.7849 37.9202C24.8977 34.8081 27.4529 32.3696 30.567 32.4062Z" fill="#4D4D4D"/>
</g>
</g>
</svg>
