<svg width="54" height="54" viewBox="0 0 54 54" fill="none" xmlns="http://www.w3.org/2000/svg">
<g id="coin_currency_dollar_finance_money_payment_wallet_icon_123189 1" clip-path="url(#clip0_10_906)">
<g id="Layer 2">
<path id="Vector" d="M40.5 48.9375H13.5C11.2622 48.9375 9.11612 48.0486 7.53379 46.4662C5.95145 44.8839 5.0625 42.7378 5.0625 40.5V16.875C5.0625 16.4274 5.24029 15.9982 5.55676 15.6818C5.87322 15.3653 6.30245 15.1875 6.75 15.1875H40.5C42.7378 15.1875 44.8839 16.0764 46.4662 17.6588C48.0486 19.2411 48.9375 21.3872 48.9375 23.625V40.5C48.9375 42.7378 48.0486 44.8839 46.4662 46.4662C44.8839 48.0486 42.7378 48.9375 40.5 48.9375ZM8.4375 18.5625V40.5C8.4375 41.8427 8.97087 43.1303 9.92027 44.0797C10.8697 45.0291 12.1573 45.5625 13.5 45.5625H40.5C41.8427 45.5625 43.1303 45.0291 44.0797 44.0797C45.0291 43.1303 45.5625 41.8427 45.5625 40.5V23.625C45.5625 22.2823 45.0291 20.9947 44.0797 20.0453C43.1303 19.0959 41.8427 18.5625 40.5 18.5625H8.4375Z" fill="#4D4D4D"/>
<path id="Vector_2" d="M43.8749 18.5625C43.4274 18.5625 42.9982 18.3847 42.6817 18.0682C42.3652 17.7518 42.1874 17.3225 42.1874 16.875V12.2344C42.2198 11.6432 42.1182 11.0524 41.8903 10.506C41.6624 9.95958 41.314 9.4717 40.8712 9.07874C40.4733 8.78065 40.0127 8.5771 39.5244 8.48354C39.0362 8.38997 38.533 8.40885 38.0531 8.53874L9.75369 14.9681C9.37302 15.0538 9.03383 15.2688 8.79384 15.5765C8.55385 15.8842 8.42791 16.2655 8.43744 16.6556C8.43744 17.1032 8.25965 17.5324 7.94319 17.8489C7.62672 18.1653 7.1975 18.3431 6.74994 18.3431C6.30239 18.3431 5.87317 18.1653 5.5567 17.8489C5.24023 17.5324 5.06244 17.1032 5.06244 16.6556C5.05254 15.502 5.43694 14.3797 6.15198 13.4743C6.86702 12.569 7.86981 11.9351 8.99432 11.6775L37.3106 5.24811C38.2844 5.00187 39.3017 4.98181 40.2845 5.18949C41.2674 5.39717 42.1896 5.82706 42.9806 6.44624C43.8169 7.15607 44.4832 8.04472 44.93 9.04655C45.3769 10.0484 45.593 11.1378 45.5624 12.2344V16.875C45.5624 17.3225 45.3847 17.7518 45.0682 18.0682C44.7517 18.3847 44.3225 18.5625 43.8749 18.5625Z" fill="#4D4D4D"/>
<path id="Vector_3" d="M47.25 38.8125H35.4375C33.6473 38.8125 31.9304 38.1013 30.6645 36.8355C29.3987 35.5696 28.6875 33.8527 28.6875 32.0625C28.6875 30.2723 29.3987 28.5554 30.6645 27.2895C31.9304 26.0237 33.6473 25.3125 35.4375 25.3125H47.25C47.6976 25.3125 48.1268 25.4903 48.4432 25.8068C48.7597 26.1232 48.9375 26.5524 48.9375 27V37.125C48.9375 37.5726 48.7597 38.0018 48.4432 38.3182C48.1268 38.6347 47.6976 38.8125 47.25 38.8125ZM35.4375 28.6875C34.5424 28.6875 33.684 29.0431 33.051 29.676C32.4181 30.309 32.0625 31.1674 32.0625 32.0625C32.0625 32.9576 32.4181 33.816 33.051 34.449C33.684 35.0819 34.5424 35.4375 35.4375 35.4375H45.5625V28.6875H35.4375Z" fill="#4D4D4D"/>
</g>
</g>
<defs>
<clipPath id="clip0_10_906">
<rect width="54" height="54" fill="white"/>
</clipPath>
</defs>
</svg>
