<svg width="60" height="61" viewBox="0 0 60 61" fill="none" xmlns="http://www.w3.org/2000/svg">
<rect x="0.00488281" y="0.262695" width="60" height="60" rx="30" fill="#ECCE00"/>
<path d="M28.833 44.4268C29.3604 45.2471 30.5908 45.2471 31.1182 44.4268C39.6729 32.1221 41.2549 30.833 41.2549 26.2627C41.2549 20.0518 36.2158 15.0127 30.0049 15.0127C23.7354 15.0127 18.7549 20.0518 18.7549 26.2627C18.7549 30.833 20.2783 32.1221 28.833 44.4268ZM30.0049 30.9502C27.3682 30.9502 25.3174 28.8994 25.3174 26.2627C25.3174 23.6846 27.3682 21.5752 30.0049 21.5752C32.583 21.5752 34.6924 23.6846 34.6924 26.2627C34.6924 28.8994 32.583 30.9502 30.0049 30.9502Z" fill="#43475B"/>
</svg>
