<svg width="60" height="61" viewBox="0 0 60 61" fill="none" xmlns="http://www.w3.org/2000/svg">
<rect y="0.262695" width="60" height="60" rx="30" fill="#ECCE00"/>
<path d="M44.4141 26.2041C43.0664 27.2588 41.3672 28.5479 35.3906 32.8838C34.2188 33.7627 32.0508 35.6963 30 35.6963C27.8906 35.6963 25.7812 33.7627 24.5508 32.8838C18.5742 28.5479 16.875 27.2588 15.5273 26.2041C15.293 26.0283 15 26.2041 15 26.4971V38.4502C15 40.0322 16.2305 41.2627 17.8125 41.2627H42.1875C43.7109 41.2627 45 40.0322 45 38.4502V26.4971C45 26.2041 44.6484 26.0283 44.4141 26.2041ZM30 33.7627C31.3477 33.8213 33.2812 32.0635 34.2773 31.3604C42.0703 25.7354 42.6562 25.208 44.4141 23.8018C44.7656 23.5674 45 23.1572 45 22.6885V21.5752C45 20.0518 43.7109 18.7627 42.1875 18.7627H17.8125C16.2305 18.7627 15 20.0518 15 21.5752V22.6885C15 23.1572 15.1758 23.5674 15.5273 23.8018C17.2852 25.208 17.8711 25.7354 25.6641 31.3604C26.6602 32.0635 28.5938 33.8213 30 33.7627Z" fill="#43475B"/>
</svg>
