<svg width="60" height="61" viewBox="0 0 60 61" fill="none" xmlns="http://www.w3.org/2000/svg">
<rect x="0.00488281" y="0.262695" width="60" height="60" rx="30" fill="#ECCE00"/>
<path d="M44.126 36.2236L37.5635 33.4111C37.3877 33.3525 37.2119 33.2939 36.9775 33.2939C36.5674 33.2939 36.1572 33.5283 35.9229 33.8213L32.9932 37.3955C28.4229 35.2275 24.79 31.5947 22.6221 27.0244L26.1963 24.0947C26.4893 23.8604 26.7236 23.4502 26.7236 22.9814C26.7236 22.8057 26.665 22.6299 26.6064 22.4541L23.7939 15.8916C23.5596 15.3643 23.0322 15.0127 22.4463 15.0127C22.3877 15.0127 22.2705 15.0713 22.1533 15.0713L16.0596 16.4775C15.415 16.6533 15.0049 17.1807 15.0049 17.8252C15.0049 32.8838 27.1338 45.0127 42.1924 45.0127C42.8369 45.0127 43.3643 44.6025 43.54 43.958L44.9463 37.8643C44.9463 37.7471 44.9463 37.6299 44.9463 37.5713C44.9463 36.9854 44.5947 36.458 44.126 36.2236Z" fill="#43475B"/>
</svg>
