<svg width="20" height="20" viewBox="0 0 20 20" fill="none" xmlns="http://www.w3.org/2000/svg">
<g id="IMAGE">
<path id="Vector" d="M18.403 2.82549C17.2837 2.71663 16.1595 2.66561 15.035 2.67264C13.9104 2.66561 12.7861 2.71663 11.6668 2.82549C10.3246 2.97247 10.07 3.15056 10.07 3.42865C10.0672 3.53612 10.121 3.63716 10.2117 3.69484C10.2374 3.79864 10.2817 3.97753 10.3354 4.19022C10.2243 4.19022 9.77603 4.19022 9.6646 4.19022C9.71825 3.97753 9.76253 3.79864 9.78825 3.69484C9.87897 3.63716 9.93278 3.53612 9.92999 3.42865C9.92999 3.1512 9.67603 2.9731 8.3332 2.82549C7.21385 2.71663 6.08963 2.66561 4.96502 2.67264C3.84046 2.66561 2.71629 2.71663 1.59699 2.82549C0.254162 2.97247 9.57606e-05 3.15056 9.57606e-05 3.42802C-0.00258616 3.53548 0.0512207 3.63653 0.141942 3.6942C0.205433 3.95324 0.385111 4.67513 0.538759 5.24147C0.575716 5.37784 0.600521 5.51722 0.612884 5.65797L1.40255 14.6895C1.43435 15.0443 1.67162 15.3473 2.00841 15.4632C2.65205 15.6854 3.72964 15.8138 4.96502 15.8138C5.47723 15.8138 5.95944 15.7908 6.39753 15.7492L6.43737 16.2049C6.46951 16.5596 6.70672 16.8624 7.04339 16.9785C7.68734 17.2007 8.76494 17.329 9.99999 17.329C11.235 17.329 12.3126 17.2012 12.9568 16.9784C13.2933 16.8622 13.5304 16.5595 13.5626 16.2049L13.6025 15.7487C14.0407 15.7905 14.5231 15.8138 15.035 15.8138C16.2703 15.8138 17.3479 15.6868 17.9916 15.4632C18.3283 15.3473 18.5656 15.0444 18.5974 14.6897L19.3871 5.65813C19.3994 5.51742 19.4243 5.37809 19.4614 5.24179C19.6147 4.67545 19.7947 3.95356 19.8582 3.69452C19.949 3.63675 20.0027 3.53556 19.9999 3.42802C19.9999 3.15056 19.7458 2.97247 18.403 2.82549ZM15.035 3.14882C16.9311 3.14882 18.3412 3.26818 19.0592 3.39675C19.0744 3.39941 19.0854 3.4126 19.0854 3.42802C19.0854 3.44344 19.0744 3.45662 19.0592 3.45929C18.3412 3.58785 16.9311 3.70722 15.035 3.70722C13.1388 3.70722 11.7284 3.58849 11.0104 3.45929C10.9953 3.45662 10.9842 3.44344 10.9842 3.42802C10.9842 3.4126 10.9953 3.39941 11.0104 3.39675C11.7284 3.26818 13.1387 3.14882 15.035 3.14882ZM14.0244 4.91195C14.0395 4.91461 14.0506 4.9278 14.0506 4.94322C14.0506 4.95864 14.0395 4.97183 14.0244 4.97449C13.3064 5.10306 11.8963 5.22242 9.99999 5.22242C8.10368 5.22242 6.69355 5.10306 5.97563 4.97449C5.96044 4.97183 5.94936 4.95864 5.94936 4.94322C5.94936 4.9278 5.96044 4.91461 5.97563 4.91195C6.69355 4.78338 8.10368 4.66402 9.99999 4.66402C11.8963 4.66402 13.3064 4.78338 14.0244 4.91195ZM14.2832 5.40734C14.1993 5.74336 13.9512 6.70303 13.9429 6.73858C12.9306 6.99096 11.0158 7.08651 9.99999 7.08651C8.98414 7.08651 7.06942 6.99127 6.05706 6.73858C6.0488 6.70303 5.80071 5.74336 5.71675 5.40734C6.01917 5.46928 6.3246 5.51548 6.63181 5.54575C7.75116 5.65461 8.87538 5.70563 9.99999 5.6986C11.1246 5.70563 12.2488 5.65461 13.3682 5.54575C13.6754 5.51548 13.9808 5.46928 14.2832 5.40734ZM4.96502 3.14882C6.86132 3.14882 8.27161 3.26818 8.98953 3.39675C9.00472 3.39941 9.0158 3.4126 9.0158 3.42802C9.0158 3.44344 9.00472 3.45662 8.98953 3.45929C8.27161 3.58785 6.86132 3.70722 4.96502 3.70722C3.06871 3.70722 1.65874 3.58849 0.940814 3.45929C0.925626 3.45662 0.914547 3.44344 0.914547 3.42802C0.914547 3.4126 0.925626 3.39941 0.940814 3.39675C1.65874 3.26818 3.06886 3.14882 4.96502 3.14882ZM0.998273 5.11687C0.888752 4.71243 0.765897 4.228 0.681931 3.89213C0.984348 3.95408 1.28978 4.00028 1.59699 4.03054C2.71629 4.1394 3.84046 4.19042 4.96502 4.1834C6.08963 4.19042 7.21385 4.1394 8.3332 4.03054C8.64046 4.00027 8.94594 3.95407 9.24842 3.89213C9.22556 3.98372 9.19953 4.08705 9.17191 4.1961C8.2159 4.21435 7.33385 4.26387 6.63228 4.3407C5.29009 4.48768 5.03581 4.66577 5.03581 4.94386C5.03296 5.05134 5.08678 5.15241 5.17755 5.21004C5.19739 5.29083 5.22866 5.41639 5.26676 5.56908C5.16041 5.57067 5.05787 5.57194 4.96517 5.57194C3.94932 5.57194 2.03444 5.4767 1.0224 5.22401C1.01399 5.18798 1.0078 5.15195 0.998273 5.11687ZM4.96502 15.3389C3.78044 15.3389 2.75966 15.2206 2.16444 15.0146C2.00518 14.96 1.89266 14.8172 1.87683 14.6495L1.09716 5.72908C2.18571 5.9605 3.94726 6.04749 4.96502 6.04749C5.09327 6.04749 5.23691 6.04542 5.38628 6.04256C5.44675 6.27907 5.51231 6.53017 5.57357 6.75684C5.61054 6.89316 5.6354 7.03248 5.64786 7.17318L6.3561 15.2763C5.9342 15.316 5.46548 15.3389 4.96502 15.3389ZM13.0883 16.1643C13.0725 16.3318 12.9601 16.4747 12.8009 16.5293C12.2052 16.7357 11.1841 16.8538 9.99999 16.8538C8.81589 16.8538 7.7948 16.7355 7.1991 16.5295C7.0399 16.4748 6.92745 16.332 6.91164 16.1644L6.13213 7.24429C7.221 7.47571 8.98239 7.56269 9.99999 7.56269C11.0176 7.56269 12.779 7.47571 13.868 7.24429L13.0883 16.1643ZM18.1232 14.6492C18.1073 14.8168 17.9948 14.9597 17.8355 15.0143C17.2403 15.2206 16.2195 15.3386 15.035 15.3386C14.5347 15.3386 14.0659 15.3167 13.6439 15.2767L14.3521 7.17365C14.3646 7.0329 14.3894 6.89353 14.4264 6.75715C14.4877 6.53081 14.5534 6.27986 14.6137 6.04288C14.7639 6.04574 14.9058 6.04733 15.035 6.04733C16.0527 6.04733 17.8143 5.96034 18.9028 5.72892L18.1232 14.6492ZM19.0019 5.11735C18.9923 5.15242 18.986 5.1883 18.9779 5.22385C17.9659 5.47623 16.0515 5.57178 15.035 5.57178C14.9424 5.57178 14.84 5.57051 14.7334 5.56892C14.7715 5.4167 14.8027 5.29068 14.8226 5.20988C14.9134 5.15225 14.9672 5.05118 14.9643 4.9437C14.9643 4.66624 14.7104 4.48815 13.3679 4.34054C12.6658 4.26371 11.7838 4.21356 10.8282 4.19594C10.8006 4.08689 10.7746 3.98356 10.7517 3.89197C11.0542 3.95391 11.3597 4.00011 11.6669 4.03038C12.7863 4.13924 13.9105 4.19026 15.0351 4.18324C16.1597 4.19027 17.2838 4.13925 18.4031 4.03038C18.7104 4.00011 19.0159 3.95391 19.3184 3.89197C19.2341 4.22832 19.1109 4.71291 19.0019 5.11735Z" fill="#DBC67F"/>
</g>
</svg>
