<svg width="20" height="20" viewBox="0 0 20 20" fill="none" xmlns="http://www.w3.org/2000/svg">
<g id="IMAGE">
<path id="Vector" d="M19.6667 2.99799C19.4826 2.99799 19.3333 3.14724 19.3333 3.33132V4.33132H17.3333V3.33132C17.3333 3.14724 17.1841 2.99799 17 2.99799H1C0.447754 2.99799 0 3.44574 0 3.99799C0 4.55023 0.447754 4.99799 1 4.99799H2.8667L8.84863 10.6647L2.77067 16.4226C2.68197 16.504 2.64388 16.6269 2.67122 16.7441C2.69857 16.8614 2.78711 16.9547 2.90267 16.9884C3.01823 17.0221 3.1429 16.9908 3.229 16.9067L9.33333 11.1236L15.4373 16.9067C15.5234 16.9908 15.6481 17.0221 15.7637 16.9884C15.8792 16.9547 15.9678 16.8614 15.9951 16.7441C16.0225 16.6269 15.9844 16.504 15.8957 16.4226L9.81803 10.6647L15.8 4.99799H19.6667C19.8507 4.99799 20 4.84873 20 4.66465V3.33132C20 3.14724 19.8507 2.99799 19.6667 2.99799ZM9.33333 10.2053L3.83659 4.99799H14.8301L9.33333 10.2053ZM15.6667 4.33132H1C0.815918 4.33132 0.666667 4.18207 0.666667 3.99799C0.666667 3.8139 0.815918 3.66465 1 3.66465H16.6667V4.33132H15.6667Z" fill="#DBC67F"/>
</g>
</svg>
