<svg width="20" height="20" viewBox="0 0 20 20" fill="none" xmlns="http://www.w3.org/2000/svg">
<g id="IMAGE">
<g id="Group">
<path id="Vector" d="M19.6341 16.6659H19.1994V9.4872C19.1994 9.32525 19.0682 9.19402 18.9062 9.19402C18.7443 9.19402 18.613 9.32525 18.613 9.4872V16.6659H3.9727C3.81075 16.6659 3.67952 16.7971 3.67952 16.9591C3.67952 17.121 3.81075 17.2523 3.9727 17.2523H19.4137V17.524C19.4137 17.9799 19.0427 18.3509 18.5868 18.3509H1.4132C0.95729 18.3509 0.586359 17.9799 0.586359 17.524V17.2523H2.72329C2.88524 17.2523 3.01646 17.121 3.01646 16.9591C3.01646 16.7971 2.88524 16.6659 2.72329 16.6659H1.38701V6.45971C1.38701 5.97417 1.78202 5.57916 2.26757 5.57916H5.60211C5.76406 5.57916 5.89529 5.44793 5.89529 5.28598C5.89529 5.12403 5.76406 4.9928 5.60211 4.9928H2.26761C1.45874 4.9928 0.800693 5.65085 0.800693 6.45971V16.6659H0.365966C0.164181 16.6659 0 16.8301 0 17.0319V17.524C0 18.3033 0.633971 18.9372 1.4132 18.9372H18.5868C19.3661 18.9372 20 18.3032 20 17.524V17.0319C20 16.8301 19.8359 16.6659 19.6341 16.6659ZM14.437 5.57916H17.7324C18.218 5.57916 18.613 5.97413 18.613 6.45967V8.23775C18.613 8.3997 18.7442 8.53093 18.9062 8.53093C19.0681 8.53093 19.1993 8.3997 19.1993 8.23775V6.45967C19.1993 5.65085 18.5413 4.9928 17.7324 4.9928H14.437C14.275 4.9928 14.1438 5.12403 14.1438 5.28598C14.1438 5.44793 14.2751 5.57916 14.437 5.57916Z" fill="#DBC67F"/>
<path id="Vector_2" d="M1.97363 6.45972V15.7864C1.97363 15.9483 2.10486 16.0796 2.26681 16.0796H17.7336C17.8113 16.0796 17.8859 16.0487 17.9409 15.9937C17.9959 15.9387 18.0268 15.8641 18.0268 15.7863L18.0259 6.45867C18.0259 6.29675 17.8946 6.16553 17.7327 6.16553L14.0984 6.1658C13.9365 6.1658 13.8052 6.29707 13.8052 6.45902C13.8052 6.62093 13.9365 6.75216 14.0984 6.75216L17.4396 6.75193L17.4404 15.4932H2.55999V6.7529L5.94145 6.75267C6.1034 6.75267 6.23462 6.6214 6.23462 6.45949C6.23462 6.29754 6.10336 6.16631 5.94141 6.16631L2.26681 6.16654C2.1049 6.16654 1.97363 6.29781 1.97363 6.45972Z" fill="#DBC67F"/>
<path id="Vector_3" d="M10.0194 8.23068C11.9956 8.23068 13.6032 6.623 13.6032 4.64685C13.6032 4.07539 13.4718 3.52812 13.2125 3.02022C13.1389 2.87605 12.9624 2.81882 12.8181 2.89239C12.6739 2.966 12.6167 3.14257 12.6903 3.28681C12.907 3.71134 13.0168 4.16893 13.0168 4.64685C13.0168 6.29964 11.6722 7.64432 10.0194 7.64432C8.36654 7.64432 7.02191 6.29968 7.02191 4.64685C7.02191 2.99402 8.36654 1.64935 10.0194 1.64935C10.7408 1.64935 11.4382 1.91012 11.9834 2.38359C12.1056 2.48976 12.2908 2.47682 12.3969 2.3545C12.5032 2.23227 12.4901 2.04709 12.3679 1.94092C11.7161 1.37477 10.882 1.06299 10.0194 1.06299C8.04323 1.06299 6.43555 2.67071 6.43555 4.64685C6.43555 6.623 8.0433 8.23068 10.0194 8.23068Z" fill="#DBC67F"/>
<path id="Vector_4" d="M11.6198 2.86714C11.4693 2.71672 11.2244 2.71688 11.0738 2.86722L9.47958 4.46149L8.92691 3.90883C8.77638 3.75841 8.53147 3.75852 8.38086 3.90895L7.68325 4.6066C7.61023 4.6795 7.57004 4.77656 7.57004 4.87972C7.57004 4.98288 7.61023 5.07994 7.68317 5.15277L8.85765 6.32721C9.0237 6.49334 9.24456 6.58485 9.47954 6.58485C9.71443 6.58485 9.9353 6.49338 10.1015 6.32725L12.3175 4.11116C12.3905 4.03826 12.4307 3.94119 12.4307 3.83803C12.4307 3.73487 12.3905 3.63781 12.3176 3.56503L11.6198 2.86714ZM9.68691 5.91261C9.63152 5.968 9.55784 5.99849 9.47954 5.99849C9.40124 5.99849 9.32763 5.968 9.27228 5.91261L8.23935 4.87972L8.65394 4.46513L9.20657 5.01779C9.35711 5.16817 9.60201 5.16809 9.75263 5.01771L11.3468 3.42344L11.7614 3.83803L9.68691 5.91261ZM7.13262 14.5494H12.9074C13.2914 14.5494 13.6038 14.237 13.6038 13.853V12.9666C13.6038 12.5826 13.2914 12.2702 12.9074 12.2702H8.98C8.81805 12.2702 8.68682 12.4014 8.68682 12.5634C8.68682 12.7253 8.81805 12.8565 8.98 12.8565H12.9074C12.9681 12.8565 13.0175 12.906 13.0175 12.9666V13.853C13.0175 13.9137 12.9681 13.9631 12.9074 13.9631H7.13262C7.07191 13.9631 7.02258 13.9137 7.02258 13.853V12.9666C7.02258 12.9059 7.07195 12.8565 7.13262 12.8565H7.73059C7.89254 12.8565 8.02377 12.7253 8.02377 12.5634C8.02377 12.4014 7.89254 12.2702 7.73059 12.2702H7.13262C6.74863 12.2702 6.43622 12.5826 6.43622 12.9666V13.853C6.43622 14.237 6.74863 14.5494 7.13262 14.5494ZM7.16201 9.96205C7.16201 8.93521 6.32661 8.09981 5.29974 8.09981C4.27291 8.09981 3.4375 8.93521 3.4375 9.96205C3.4375 10.9889 4.27291 11.8243 5.29974 11.8243C6.32661 11.8242 7.16201 10.9888 7.16201 9.96205ZM5.29974 11.2379C4.59622 11.2379 4.02386 10.6655 4.02386 9.96201C4.02386 9.25849 4.59622 8.68613 5.29974 8.68613C6.00325 8.68613 6.57565 9.25849 6.57565 9.96201C6.57565 10.6655 6.00329 11.2379 5.29974 11.2379ZM8.35529 9.78035H8.80949C8.97144 9.78035 9.10267 9.64913 9.10267 9.48717C9.10267 9.32522 8.97144 9.19399 8.80949 9.19399H8.35529C8.19334 9.19399 8.06211 9.32522 8.06211 9.48717C8.06211 9.64913 8.19338 9.78035 8.35529 9.78035ZM15.9941 9.19399H10.0004C9.83843 9.19399 9.7072 9.32522 9.7072 9.48717C9.7072 9.64913 9.83843 9.78035 10.0004 9.78035H15.9941C16.156 9.78035 16.2872 9.64913 16.2872 9.48717C16.2872 9.32522 16.156 9.19399 15.9941 9.19399ZM16.2873 10.7052C16.2873 10.5433 16.1561 10.4121 15.9941 10.4121H8.35529C8.19334 10.4121 8.06211 10.5433 8.06211 10.7052C8.06211 10.8672 8.19334 10.9984 8.35529 10.9984H15.9941C16.156 10.9984 16.2873 10.8672 16.2873 10.7052Z" fill="#DBC67F"/>
</g>
</g>
</svg>
