<svg width="20" height="20" viewBox="0 0 20 20" fill="none" xmlns="http://www.w3.org/2000/svg">
<g id="IMAGE">
<g id="Group">
<path id="Vector" d="M20 11.542V7.45882C20 7.16937 19.7652 6.93386 19.4765 6.93386H15.7062C14.7375 3.97703 11.9658 1.83679 8.70641 1.83679C4.64379 1.83679 1.33863 5.16183 1.33863 9.2489C1.33863 9.77667 1.39461 10.2914 1.49937 10.7882H0.666484C0.362148 10.7882 0.114609 11.0366 0.114609 11.3418C0.114609 11.6243 0.137344 11.9027 0.180234 12.1753C0.0919531 12.274 0.0376953 12.4039 0.0376953 12.5467C0.0376953 12.8475 0.0625781 13.1437 0.110547 13.4332C0.0414062 13.5263 0 13.6413 0 13.766C0 15.9578 1.30172 17.9138 3.31621 18.7492C3.38406 18.7774 3.45578 18.7917 3.52934 18.7917H7.7525C7.82609 18.7917 7.89781 18.7774 7.96555 18.7493C9.10613 18.2762 10.0179 17.4438 10.5946 16.413C12.1454 15.999 13.497 15.0884 14.4698 13.8607V16.3769C14.0621 16.4942 13.7365 16.8507 13.6174 17.3114H13.3754C13.1061 17.3114 12.8871 17.5304 12.8871 17.7997V18.3531C12.8871 18.6224 13.1061 18.8414 13.3754 18.8414H19.25C19.5193 18.8414 19.7383 18.6224 19.7383 18.3531V17.7997C19.7383 17.5305 19.5193 17.3114 19.25 17.3114H19.008C18.8889 16.8508 18.5633 16.4942 18.1555 16.3769V13.6703C19.1959 13.5262 20 12.627 20 11.542ZM10.5812 11.3741C10.5798 11.5821 10.5644 11.7874 10.5366 11.9894H0.745234C0.717461 11.7874 0.702031 11.5821 0.700625 11.3741H10.5812ZM7.74656 18.2057H3.53523C2.95047 17.9624 2.43387 17.6124 2.00242 17.1841H9.27941C8.84797 17.6123 8.33133 17.9624 7.74656 18.2057ZM9.78191 16.5982H1.49988C0.922344 15.8013 0.591641 14.8271 0.585977 13.7928H7.38277C7.54457 13.7928 7.67574 13.6616 7.67574 13.4998C7.67574 13.338 7.54457 13.2068 7.38277 13.2068H0.669375C0.640742 12.9996 0.624961 12.7889 0.623711 12.5753H10.6581C10.6569 12.7889 10.6411 12.9996 10.6125 13.2068H8.94527C8.78348 13.2068 8.6523 13.338 8.6523 13.4998C8.6523 13.6616 8.78348 13.7928 8.94527 13.7928H10.6958C10.6902 14.8271 10.3595 15.8013 9.78191 16.5982ZM10.9282 15.698C11.1579 15.0935 11.2818 14.441 11.2818 13.766C11.2818 13.6413 11.2404 13.5264 11.1713 13.4332C11.2193 13.1437 11.2441 12.8475 11.2441 12.5467C11.2441 12.404 11.1899 12.274 11.1016 12.1753C11.1445 11.9027 11.1672 11.6243 11.1672 11.3418C11.1672 11.3353 11.1665 11.329 11.1663 11.3226C11.635 10.7611 11.9178 10.0377 11.9178 9.2489C11.9178 8.4175 11.6043 7.62769 11.0352 7.02503C10.9241 6.90734 10.7387 6.9021 10.6211 7.01316C10.5034 7.12425 10.4981 7.30968 10.6092 7.42734C11.0752 7.92078 11.3318 8.56769 11.3318 9.2489C11.3318 9.83937 11.1377 10.3845 10.8114 10.825C10.7504 10.8016 10.6845 10.7882 10.6153 10.7882H6.57414C6.26418 10.3544 6.08102 9.82292 6.08102 9.2489C6.08102 7.79121 7.25875 6.60523 8.70641 6.60523C8.93418 6.60523 9.16008 6.63457 9.37793 6.69242C9.53422 6.73406 9.69477 6.64093 9.73629 6.48453C9.77785 6.32816 9.68477 6.16773 9.52836 6.12617C9.26145 6.05527 8.98488 6.01929 8.70637 6.01929C6.93563 6.01929 5.49504 7.46808 5.49504 9.2489C5.49504 9.80609 5.63656 10.3304 5.88473 10.7882H2.09961C1.98574 10.2932 1.92457 9.77824 1.92457 9.2489C1.92457 5.48496 4.96688 2.42273 8.70641 2.42273C11.6389 2.42273 14.1423 4.30593 15.0864 6.93382H13.1489C12.8603 6.93382 12.6254 7.16933 12.6254 7.45878V11.5419C12.6254 12.4478 13.1861 13.224 13.9766 13.5396C13.1876 14.5196 12.1348 15.2755 10.9282 15.698ZM14.7628 16.9213C14.9872 16.9213 15.1848 17.0778 15.2904 17.3114H14.2353C14.3409 17.0778 14.5385 16.9213 14.7628 16.9213ZM15.0558 16.3769V13.6703C15.548 13.6021 15.987 13.365 16.3133 13.019C16.6394 13.3648 17.0778 13.6019 17.5696 13.6702V16.3769C17.1619 16.4942 16.8363 16.8508 16.7172 17.3114H15.9083C15.7892 16.8508 15.4636 16.4942 15.0558 16.3769ZM16.0527 18.2555H13.473V17.8974H16.0527V18.2555ZM19.1524 17.8974V18.2555H16.6386V17.8974H19.1524ZM18.3902 17.3114H17.335C17.4407 17.0778 17.6382 16.9214 17.8626 16.9214C18.0869 16.9213 18.2845 17.0778 18.3902 17.3114ZM17.8626 13.105C17.3782 13.105 16.9456 12.8797 16.6609 12.5281C16.8135 12.2326 16.9002 11.8974 16.9002 11.542V10.5466C16.9002 10.3848 16.7691 10.2536 16.6073 10.2536C16.4455 10.2536 16.3143 10.3848 16.3143 10.5466V11.542C16.3143 12.4039 15.6183 13.105 14.7628 13.105C13.9073 13.105 13.2113 12.4039 13.2113 11.542V7.5198H16.3143V8.98406C16.3143 9.14589 16.4455 9.27703 16.6073 9.27703C16.7691 9.27703 16.9002 9.14589 16.9002 8.98406V7.5198H19.4141V11.542C19.4141 12.4039 18.7181 13.105 17.8626 13.105ZM2.36551 3.78191C1.98996 3.66484 1.96066 3.63554 1.84371 3.25953C1.79324 3.0971 1.64512 2.988 1.47504 2.988C1.30492 2.988 1.15676 3.09718 1.10641 3.25945C0.989453 3.6355 0.960195 3.6648 0.584687 3.78187C0.422422 3.83242 0.313359 3.98058 0.313359 4.15058C0.313398 4.32058 0.422422 4.46878 0.584648 4.51929C0.960234 4.6364 0.989492 4.6657 1.10637 5.04156C1.15676 5.20402 1.30492 5.3132 1.47504 5.3132C1.64512 5.3132 1.79324 5.2041 1.84367 5.04179C1.96066 4.66566 1.98996 4.63636 2.36555 4.51929C2.52773 4.46867 2.63668 4.3205 2.63668 4.15058C2.63668 3.98066 2.5277 3.83253 2.36551 3.78191ZM1.47512 4.41664C1.40465 4.30523 1.32055 4.22113 1.20914 4.15062C1.32055 4.08011 1.40461 3.99605 1.47508 3.8846C1.54555 3.99605 1.62965 4.08011 1.74105 4.15062C1.62965 4.22113 1.54559 4.30519 1.47512 4.41664Z" fill="#DBC67F"/>
<path id="Vector_2" d="M19.0026 4.8613C18.627 4.74423 18.5978 4.71493 18.4808 4.33904C18.4304 4.1765 18.2823 4.06732 18.1121 4.06732C17.9421 4.06732 17.7939 4.17646 17.7435 4.33884C17.6265 4.7149 17.5973 4.74419 17.2218 4.86126C17.0595 4.91181 16.9505 5.05997 16.9505 5.22993C16.9504 5.39997 17.0595 5.54818 17.2217 5.59868C17.5973 5.71579 17.6265 5.74509 17.7434 6.12111C17.7939 6.28349 17.942 6.39259 18.1121 6.39259C18.2822 6.39259 18.4304 6.28341 18.4807 6.12122C18.5978 5.74505 18.627 5.71575 19.0026 5.59868C19.1648 5.5481 19.2738 5.39993 19.2738 5.22997C19.2738 5.06005 19.1648 4.91189 19.0026 4.8613ZM18.1121 5.49603C18.0417 5.38462 17.9576 5.30052 17.8462 5.23001C17.9576 5.1595 18.0416 5.07544 18.1121 4.964C18.1826 5.07544 18.2667 5.1595 18.3781 5.23001C18.2667 5.30052 18.1827 5.38462 18.1121 5.49603ZM16.1614 2.11329C15.6892 1.96611 15.6391 1.91595 15.492 1.4431C15.439 1.27259 15.2835 1.15802 15.1049 1.15802C14.9264 1.15802 14.7709 1.27255 14.7179 1.44298C14.5709 1.91595 14.5208 1.96607 14.0484 2.11329C13.8781 2.16638 13.7637 2.32197 13.7637 2.5004C13.7637 2.67884 13.8781 2.83439 14.0484 2.88751C14.5208 3.03478 14.5708 3.08486 14.7179 3.55782C14.7709 3.72825 14.9264 3.84279 15.1049 3.84279C15.2835 3.84279 15.439 3.72822 15.4919 3.5579C15.6391 3.08486 15.6892 3.0347 16.1616 2.88747C16.3318 2.83435 16.4462 2.6788 16.4462 2.5004C16.4462 2.322 16.3318 2.16646 16.1614 2.11329ZM15.105 2.94474C14.9972 2.74122 14.8642 2.60825 14.6607 2.5004C14.8643 2.39255 14.9972 2.25962 15.105 2.05607C15.2127 2.25962 15.3457 2.39259 15.5492 2.5004C15.3457 2.60825 15.2128 2.74118 15.105 2.94474Z" fill="#DBC67F"/>
</g>
</g>
</svg>
