<svg width="20" height="20" viewBox="0 0 20 20" fill="none" xmlns="http://www.w3.org/2000/svg">
<g id="IMAGE" clip-path="url(#clip0_31_1725)">
<g id="Group">
<path id="Vector" d="M11.8912 12.3819C11.8911 12.3818 11.8913 12.382 11.8912 12.3819L9.28688 9.77747C9.28677 9.77738 9.28698 9.77757 9.28688 9.77747L3.8746 4.36524C3.81249 4.30311 3.72743 4.26947 3.6395 4.27323C3.55174 4.2767 3.46941 4.31664 3.41237 4.38346C2.07525 5.94954 1.33887 7.94423 1.33887 10C1.33887 14.776 5.22436 18.6615 10.0003 18.6615C12.0562 18.6615 14.0509 17.9251 15.6169 16.588C15.6838 16.531 15.7237 16.4487 15.7272 16.3609C15.7306 16.2731 15.6973 16.1879 15.6352 16.1258L11.8912 12.3819ZM4.37444 12.2893V10.3152H6.10003V12.2893H4.37444ZM6.72995 10.3152H8.93368L10.9078 12.2893H6.72995V10.3152ZM10.0003 18.0315C5.57171 18.0315 1.96879 14.4286 1.96879 10C1.96879 8.20782 2.57243 6.46569 3.67531 5.05679L8.30376 9.68524H4.05948C3.88552 9.68524 3.74452 9.82626 3.74452 10.0002V12.6043C3.74452 12.7782 3.88552 12.9192 4.05948 12.9192H11.5378L14.9436 16.3251C13.5347 17.4279 11.7926 18.0315 10.0003 18.0315Z" fill="#DBC67F"/>
<path id="Vector_2" d="M17.071 2.92896C15.1823 1.04019 12.6711 0 10 0C7.47166 0 5.05821 0.94642 3.20443 2.66471C3.02302 2.83276 2.84627 3.00906 2.67853 3.18955C0.951245 5.04564 0 7.46428 0 10C0 12.6712 1.04019 15.1825 2.92896 17.0712C4.8177 18.9598 7.32891 20 10 20C12.4172 20 14.7506 19.1258 16.5704 17.5384C16.83 17.3117 17.0984 17.0522 17.3353 16.7958C19.0537 14.9418 20 12.5284 20 10C20 7.32895 18.9598 4.81776 17.071 2.92896ZM16.8735 16.3673C16.6517 16.6074 16.4 16.8509 16.157 17.063C14.4518 18.5508 12.2652 19.3701 10 19.3701C4.83331 19.3701 0.629921 15.1667 0.629921 10C0.629921 7.62407 1.52123 5.35779 3.13976 3.61859C3.29697 3.44937 3.46265 3.28424 3.63243 3.12688C5.36959 1.51671 7.63097 0.629921 10 0.629921C15.1667 0.629921 19.3701 4.83333 19.3701 10C19.3701 12.3691 18.4834 14.6304 16.8735 16.3673Z" fill="#DBC67F"/>
<path id="Vector_3" d="M10.0002 1.33856C7.94989 1.33856 5.95928 2.07148 4.39505 3.40234C4.32807 3.45932 4.28797 3.54167 4.28443 3.62956C4.2809 3.71741 4.31425 3.80273 4.37644 3.86494L10.7344 10.2229L13.3384 12.8269L16.1353 15.6238C16.1945 15.683 16.2747 15.716 16.358 15.716C16.3622 15.716 16.3664 15.716 16.3707 15.7158C16.4586 15.7122 16.5409 15.6721 16.5979 15.6051C17.9287 14.041 18.6616 12.0504 18.6616 9.99998C18.6616 5.22405 14.7761 1.33856 10.0002 1.33856ZM15.626 10.3151V12.2892H14.9993V10.3151H15.626ZM14.3694 12.2892H13.6916L11.7175 10.3151H14.3694V12.2892ZM16.3342 14.9318L14.3216 12.9192H15.941C16.1149 12.9192 16.2559 12.7781 16.2559 12.6042V10.1121C16.5909 9.56773 16.6108 8.78303 16.3003 8.08588C16.0423 7.50652 15.6022 7.08513 15.0862 6.90797C15.109 6.70593 15.0992 6.44068 14.974 6.17482C14.8109 5.8284 14.4999 5.57838 14.0494 5.4317C13.3541 5.20536 13.1877 4.92751 13.1808 4.83473C13.1945 4.67083 13.0787 4.52223 12.9136 4.49747C12.7414 4.47125 12.5812 4.59017 12.5555 4.76222C12.5431 4.84473 12.4743 5.58138 13.8544 6.03068C14.1309 6.12072 14.3152 6.25801 14.4021 6.43883C14.5337 6.71254 14.4185 7.02612 14.4185 7.02612C14.3829 7.11639 14.3909 7.21808 14.4401 7.30167C14.4894 7.38529 14.5745 7.44154 14.6707 7.45407C15.1086 7.51121 15.5027 7.8432 15.7249 8.34217C15.9336 8.81071 15.9482 9.31873 15.7732 9.68517H15.0372C15.0444 9.39841 14.996 9.00485 14.7426 8.67939C14.4581 8.31406 14.0004 8.12882 13.3823 8.12882C13.0006 8.12882 12.7239 8.02471 12.5364 7.81056C12.1626 7.3836 12.2557 6.64926 12.2566 6.64283C12.273 6.52549 12.2235 6.40819 12.1263 6.34033C12.0293 6.27259 11.9037 6.2642 11.7991 6.31995C11.7727 6.33329 11.1472 6.64076 10.4615 6.08354C10.1533 5.83313 10.0547 5.59007 9.95942 5.355C9.81384 4.99594 9.64884 4.58894 8.83873 4.58894C8.66478 4.58894 8.52377 4.72996 8.52377 4.9039C8.52377 5.07784 8.66478 5.21886 8.83873 5.21886C9.2245 5.21886 9.25054 5.28307 9.37565 5.59168C9.48313 5.85682 9.63035 6.21991 10.0642 6.57244C10.6581 7.05495 11.2352 7.08582 11.6212 7.02335C11.6426 7.3731 11.7377 7.85223 12.0594 8.22202C12.3693 8.57816 12.8143 8.75875 13.3823 8.75875C13.7946 8.75875 14.0844 8.86148 14.2438 9.06413C14.3916 9.25216 14.4152 9.50309 14.4079 9.68517H11.0876L5.06841 3.66605C6.47524 2.56903 8.21335 1.96848 10.0002 1.96848C14.4288 1.96848 18.0317 5.57138 18.0317 9.99998C18.0317 11.7869 17.4311 13.525 16.3342 14.9318Z" fill="#DBC67F"/>
</g>
</g>
<defs>
<clipPath id="clip0_31_1725">
<rect width="20" height="20" fill="white"/>
</clipPath>
</defs>
</svg>
