<svg width="20" height="20" viewBox="0 0 20 20" fill="none" xmlns="http://www.w3.org/2000/svg">
<g id="IMAGE" clip-path="url(#clip0_31_1732)">
<g id="Group">
<path id="Vector" d="M15.6729 14.265C16.2251 14.265 16.6729 13.8172 16.6729 13.265C16.6729 12.7127 16.2251 12.265 15.6729 12.265C15.1206 12.265 14.6729 12.7127 14.6729 13.265C14.6729 13.8172 15.1206 14.265 15.6729 14.265Z" fill="#DBC67F"/>
<path id="Vector_2" d="M19.2188 2.5448H18.4375C18.0067 2.5448 17.6562 2.89527 17.6562 3.32605V6.87175H16.0586C15.9967 6.00058 15.2687 5.31058 14.382 5.31058C13.8638 5.31058 13.3998 5.54628 13.0912 5.91593C12.7825 5.54628 12.3185 5.31058 11.8004 5.31058C11.2822 5.31058 10.8182 5.54628 10.5095 5.91593C10.2009 5.54628 9.73687 5.31058 9.21871 5.31058C8.70055 5.31058 8.23656 5.54628 7.92789 5.91593C7.61922 5.54628 7.15523 5.31058 6.63707 5.31058C6.11891 5.31058 5.65492 5.54628 5.34625 5.91593C5.03758 5.54628 4.57359 5.31058 4.05547 5.31058C3.16871 5.31058 2.44062 6.00066 2.37879 6.87191H0.78125C0.350469 6.87191 0 7.22238 0 7.65316V8.43441C0 8.86519 0.350469 9.21566 0.78125 9.21566H2.37406V17.4375C2.37406 18.3646 3.12832 19.1189 4.05551 19.1189C4.57363 19.1189 5.03762 18.8832 5.34629 18.5135C5.65496 18.8832 6.11898 19.1189 6.63711 19.1189C7.15523 19.1189 7.61926 18.8832 7.92793 18.5135C8.2366 18.8832 8.70063 19.1189 9.21875 19.1189C9.73687 19.1189 10.2009 18.8832 10.5096 18.5135C10.8182 18.8832 11.2823 19.1189 11.8004 19.1189C12.3185 19.1189 12.7825 18.8832 13.0912 18.5135C13.3999 18.8832 13.8639 19.1189 14.382 19.1189C15.3091 19.1189 16.0634 18.3646 16.0634 17.4375V15.0231C16.0634 14.8074 15.8885 14.6325 15.6728 14.6325C15.4571 14.6325 15.2822 14.8074 15.2822 15.0231V17.4375C15.2822 17.9338 14.8784 18.3376 14.382 18.3376C13.8857 18.3376 13.4818 17.9338 13.4818 17.4375V6.99203C13.4818 6.49566 13.8857 6.09183 14.382 6.09183C14.8784 6.09183 15.2822 6.49566 15.2822 6.99203V11.5075C15.2822 11.7232 15.4571 11.8981 15.6728 11.8981C15.8885 11.8981 16.0634 11.7232 16.0634 11.5075V9.2155H18.0469C19.1238 9.2155 20 8.33933 20 7.26238V3.32605C20 2.89527 19.6495 2.5448 19.2188 2.5448ZM0.78125 8.43441V7.65316H2.37406V8.43441H0.78125ZM4.05551 18.3376C3.55914 18.3376 3.15531 17.9338 3.15531 17.4375V6.99203C3.15531 6.49566 3.55914 6.09183 4.05551 6.09183C4.55184 6.09183 4.95566 6.49566 4.95566 6.99203V17.4375C4.95566 17.9338 4.55184 18.3376 4.05551 18.3376ZM6.63711 18.3376C6.14074 18.3376 5.73691 17.9338 5.73691 17.4375V6.99203C5.73691 6.49566 6.14074 6.09183 6.63711 6.09183C7.13348 6.09183 7.5373 6.49566 7.5373 6.99203V17.4375C7.5373 17.9338 7.13348 18.3376 6.63711 18.3376ZM9.21875 18.3376C8.72238 18.3376 8.31855 17.9338 8.31855 17.4375V6.99203C8.31855 6.49566 8.72238 6.09183 9.21875 6.09183C9.71512 6.09183 10.1189 6.49566 10.1189 6.99203V17.4375C10.1189 17.9338 9.71512 18.3376 9.21875 18.3376ZM11.8004 18.3376C11.304 18.3376 10.9002 17.9338 10.9002 17.4375V6.99203C10.9002 6.49566 11.304 6.09183 11.8004 6.09183C12.2968 6.09183 12.7006 6.49566 12.7006 6.99203V17.4375C12.7006 17.9338 12.2968 18.3376 11.8004 18.3376ZM19.2188 7.26238C19.2188 7.90855 18.693 8.43425 18.0469 8.43425H16.0634V7.653H18.0469C18.2626 7.653 18.4375 7.47812 18.4375 7.26238V3.32605H19.2188V7.26238Z" fill="#DBC67F"/>
<path id="Vector_3" d="M11.625 2.9002C11.5531 2.97301 11.386 3.17661 11.386 3.49364C11.386 3.6345 11.4211 3.77458 11.4876 3.89868C11.5038 3.92895 11.5124 3.9661 11.5124 4.00602C11.5124 4.22176 11.6873 4.39665 11.903 4.39665C12.1187 4.39665 12.2937 4.22176 12.2937 4.00602C12.2937 3.83782 12.2531 3.67317 12.1763 3.52981C12.1682 3.51465 12.1673 3.50192 12.1673 3.49368C12.1673 3.46895 12.1788 3.45231 12.1808 3.44946C12.4028 3.23129 12.5131 2.80309 12.3174 2.44864C12.3019 2.41875 12.2937 2.38239 12.2937 2.34325C12.2937 2.1275 12.1188 1.95262 11.9031 1.95262C11.6874 1.95262 11.5125 2.1275 11.5125 2.34325C11.5125 2.51149 11.553 2.67614 11.6298 2.81942C11.6309 2.82165 11.6322 2.82387 11.6334 2.82606C11.645 2.84665 11.6345 2.88383 11.6264 2.89891L11.625 2.9002ZM6.25625 2.90047C6.18449 2.97336 6.01758 3.17704 6.01758 3.49364C6.01758 3.63454 6.0527 3.77461 6.11918 3.89868C6.13539 3.92895 6.14398 3.9661 6.14398 4.00602C6.14398 4.22176 6.31887 4.39665 6.53461 4.39665C6.75031 4.39665 6.92523 4.22176 6.92523 4.00602C6.92523 3.83782 6.88465 3.67317 6.80785 3.52981C6.7998 3.51473 6.79887 3.50196 6.79887 3.49368C6.79887 3.46899 6.81039 3.45235 6.81262 3.44922C7.03445 3.23098 7.14461 2.80297 6.94902 2.44868C6.93348 2.41875 6.92527 2.38235 6.92527 2.34325C6.92527 2.1275 6.75035 1.95262 6.53465 1.95262C6.31891 1.95262 6.14402 2.1275 6.14402 2.34325C6.14402 2.51145 6.18461 2.6761 6.26137 2.81942C6.26254 2.82165 6.26375 2.82383 6.265 2.82602C6.27656 2.84665 6.26605 2.88383 6.25793 2.89891L6.25625 2.90047ZM8.94098 2.36434C8.86578 2.44047 8.62043 2.72313 8.62043 3.16344C8.62043 3.35641 8.66664 3.54051 8.75773 3.71059C8.80391 3.7968 8.82832 3.89895 8.82832 4.00598C8.82832 4.22172 9.00324 4.39661 9.21895 4.39661C9.43465 4.39661 9.60957 4.22172 9.60957 4.00598C9.60957 3.77071 9.55316 3.54102 9.44645 3.34176C9.41676 3.28633 9.40168 3.22633 9.40168 3.16344C9.40168 3.0234 9.47672 2.93481 9.49418 2.9161C9.79547 2.62567 9.9457 2.04528 9.67875 1.56446C9.63348 1.47879 9.60957 1.37758 9.60957 1.27161C9.60957 1.05586 9.43465 0.880981 9.21895 0.880981C9.00324 0.880981 8.82832 1.05586 8.82832 1.27161C8.82832 1.50688 8.88473 1.73657 8.99145 1.93583C8.99262 1.93805 8.99383 1.94028 8.99512 1.94247C9.09035 2.11227 8.99492 2.31336 8.9516 2.35403C8.94793 2.35743 8.94441 2.36083 8.94098 2.36434Z" fill="#DBC67F"/>
</g>
</g>
<defs>
<clipPath id="clip0_31_1732">
<rect width="20" height="20" fill="white"/>
</clipPath>
</defs>
</svg>
