<svg width="86" height="86" viewBox="0 0 86 86" fill="none" xmlns="http://www.w3.org/2000/svg">
<g id="quote_left_icon_177215 3">
<path id="Vector" d="M61.0842 48.429C53.3119 48.429 46.9856 42.108 46.9856 34.3304C46.9856 26.5527 53.3066 20.2317 61.0842 20.2317C68.8564 20.2317 75.1828 26.5527 75.1828 34.3304L75.25 36.3057C75.25 51.9174 62.5999 64.5029 47.0528 64.5029L47.0528 56.4673C52.4546 56.4673 57.4614 54.3603 61.2831 50.5414C62.0114 49.8131 62.6644 49.0928 63.3256 48.2355C62.5973 48.3672 61.8098 48.429 61.0842 48.429ZM24.8486 48.429C17.0764 48.429 10.75 42.108 10.75 34.3304C10.75 26.5527 17.071 20.2317 24.8486 20.2317C32.6209 20.2317 38.9473 26.5527 38.9473 34.3304L39.0144 36.3057C39.0144 51.9174 26.3644 64.5029 10.8172 64.5029L10.8172 56.4673C16.1519 56.4673 21.2259 54.3603 25.0475 50.5414C25.7758 49.813 26.4289 49.0928 27.0228 48.2355C26.2945 48.3672 25.5743 48.4317 24.8459 48.4317L24.8486 48.4344L24.8486 48.429Z" fill="#3B3D51"/>
</g>
</svg>
