<svg width="86" height="86" viewBox="0 0 86 86" fill="none" xmlns="http://www.w3.org/2000/svg">
<g id="quote_left_icon_177215 2">
<path id="Vector" d="M24.9158 37.5715C32.6881 37.5715 39.0144 43.8925 39.0144 51.6701C39.0144 59.4477 32.6934 65.7687 24.9158 65.7687C17.1436 65.7687 10.8172 59.4477 10.8172 51.6701L10.75 49.6948C10.75 34.0831 23.4001 21.4976 38.9472 21.4976V29.5332C33.5454 29.5332 28.5386 31.6402 24.7169 35.4591C23.9886 36.1874 23.3356 36.9077 22.6744 37.765C23.4028 37.6333 24.1902 37.5715 24.9158 37.5715ZM61.1514 37.5715C68.9236 37.5715 75.25 43.8925 75.25 51.6701C75.25 59.4477 68.929 65.7687 61.1514 65.7687C53.3791 65.7687 47.0527 59.4477 47.0527 51.6701L46.9856 49.6948C46.9856 34.0831 59.6356 21.4976 75.1828 21.4976V29.5332C69.8481 29.5332 64.7741 31.6402 60.9525 35.4591C60.2242 36.1874 59.5711 36.9077 58.9772 37.765C59.7055 37.6333 60.4257 37.5688 61.1541 37.5688L61.1514 37.5661V37.5715Z" fill="#3B3D51"/>
</g>
</svg>
