<svg width="18" height="18" viewBox="0 0 18 18" fill="none" xmlns="http://www.w3.org/2000/svg">
<g id="3643769-building-home-house-main-menu-start_113416 (1) 1">
<path id="Vector" d="M16.8754 8.4375C16.7582 8.43674 16.6441 8.39937 16.5492 8.33062L9.00043 2.94187L1.45168 8.33062C1.33058 8.40235 1.18698 8.42606 1.04925 8.39709C0.91151 8.36811 0.789641 8.28856 0.707697 8.17412C0.625754 8.05968 0.589691 7.91868 0.606628 7.77895C0.623565 7.63922 0.692271 7.51092 0.799183 7.41937L8.67418 1.79437C8.76945 1.72654 8.88349 1.69009 9.00043 1.69009C9.11738 1.69009 9.23142 1.72654 9.32668 1.79437L17.2017 7.41937C17.2977 7.4889 17.3693 7.58699 17.4063 7.69965C17.4433 7.8123 17.4437 7.93375 17.4075 8.04666C17.3713 8.15957 17.3004 8.25816 17.2048 8.32835C17.1093 8.39854 16.994 8.43674 16.8754 8.4375Z" fill="#DBC67F"/>
<path id="Vector_2" d="M2.8125 5.0625C2.66332 5.0625 2.52024 5.00324 2.41475 4.89775C2.30926 4.79226 2.25 4.64918 2.25 4.5V2.25C2.25 2.10082 2.30926 1.95774 2.41475 1.85225C2.52024 1.74676 2.66332 1.6875 2.8125 1.6875H5.0625C5.21168 1.6875 5.35476 1.74676 5.46025 1.85225C5.56574 1.95774 5.625 2.10082 5.625 2.25C5.625 2.39918 5.56574 2.54226 5.46025 2.64775C5.35476 2.75324 5.21168 2.8125 5.0625 2.8125H3.375V4.5C3.375 4.64918 3.31574 4.79226 3.21025 4.89775C3.10476 5.00324 2.96168 5.0625 2.8125 5.0625Z" fill="#DBC67F"/>
<path id="Vector_3" d="M14.0625 16.3125H11.25C11.1008 16.3125 10.9577 16.2532 10.8523 16.1477C10.7468 16.0423 10.6875 15.8992 10.6875 15.75V11.8125H7.3125V15.75C7.3125 15.8992 7.25324 16.0423 7.14775 16.1477C7.04226 16.2532 6.89918 16.3125 6.75 16.3125H3.9375C3.48995 16.3125 3.06072 16.1347 2.74426 15.8182C2.42779 15.5018 2.25 15.0726 2.25 14.625V9C2.25 8.85082 2.30926 8.70774 2.41475 8.60225C2.52024 8.49676 2.66332 8.4375 2.8125 8.4375C2.96168 8.4375 3.10476 8.49676 3.21025 8.60225C3.31574 8.70774 3.375 8.85082 3.375 9V14.625C3.375 14.7742 3.43426 14.9173 3.53975 15.0227C3.64524 15.1282 3.78832 15.1875 3.9375 15.1875H6.1875V11.25C6.1875 11.1008 6.24676 10.9577 6.35225 10.8523C6.45774 10.7468 6.60082 10.6875 6.75 10.6875H11.25C11.3992 10.6875 11.5423 10.7468 11.6477 10.8523C11.7532 10.9577 11.8125 11.1008 11.8125 11.25V15.1875H14.0625C14.2117 15.1875 14.3548 15.1282 14.4602 15.0227C14.5657 14.9173 14.625 14.7742 14.625 14.625V9C14.625 8.85082 14.6843 8.70774 14.7898 8.60225C14.8952 8.49676 15.0383 8.4375 15.1875 8.4375C15.3367 8.4375 15.4798 8.49676 15.5852 8.60225C15.6907 8.70774 15.75 8.85082 15.75 9V14.625C15.75 15.0726 15.5722 15.5018 15.2557 15.8182C14.9393 16.1347 14.5101 16.3125 14.0625 16.3125Z" fill="#DBC67F"/>
</g>
</svg>
